# Blender 3.3.1
# www.blender.org
mtllib bag_004.mtl
o bag_004
v 0.006525 0.083105 -0.053121
v 0.186970 0.472309 -0.191277
v 0.262665 0.471242 -0.076436
v 0.061332 0.485448 -0.252251
v -0.081408 0.499220 -0.247134
v -0.203300 0.500516 -0.171473
v -0.269413 0.495859 -0.039427
v -0.261695 0.485408 0.108249
v -0.182894 0.463657 0.225463
v -0.056854 0.449182 0.285040
v 0.075957 0.456988 0.270969
v 0.189342 0.473027 0.189294
v 0.260834 0.476940 0.062161
v 0.167657 0.528849 -0.140306
v 0.235914 0.526089 -0.047862
v 0.054884 0.543970 -0.196239
v -0.071325 0.561510 -0.200742
v -0.177490 0.569439 -0.144717
v -0.233398 0.571159 -0.036248
v -0.223105 0.563184 0.093390
v -0.151128 0.543075 0.201213
v -0.040670 0.526941 0.254897
v 0.075126 0.528702 0.245811
v 0.173488 0.539123 0.176107
v 0.235494 0.536227 0.066151
v 0.137347 0.471822 -0.080841
v -0.032386 0.489288 -0.139099
v -0.166062 0.478919 -0.066723
v -0.153117 0.470131 0.104396
v -0.001709 0.462955 0.191879
v 0.140822 0.472025 0.081670
v -0.211482 0.040639 -0.031218
v -0.114010 -0.000000 0.033226
v -0.170373 0.034313 0.136553
v -0.185583 0.170823 0.176908
v -0.259654 0.168360 0.075228
v -0.244229 0.181178 -0.053766
v 0.152542 0.053566 0.165627
v 0.186557 0.183468 0.186862
v 0.084301 0.187028 0.260878
v -0.055893 0.185726 0.247650
v -0.033992 0.051970 0.215043
v 0.029684 -0.000000 0.114143
v -0.136194 0.057936 -0.171579
v -0.169557 0.195671 -0.185279
v -0.063762 0.199349 -0.266319
v 0.056192 0.197514 -0.250505
v 0.035561 0.062035 -0.225173
v -0.032652 0.000000 -0.114230
v 0.223774 0.051788 0.029537
v 0.116978 0.000000 -0.033141
v 0.166898 0.058933 -0.146798
v 0.179885 0.195250 -0.179412
v 0.263319 0.188781 -0.078392
v 0.256314 0.182474 0.054242
v -0.255845 0.384530 -0.041727
v -0.249522 0.372920 0.090810
v -0.175550 0.370587 0.203656
v 0.193671 0.366213 0.184716
v -0.052366 0.370352 0.261464
v 0.082875 0.366155 0.256689
v -0.076408 0.389181 -0.239589
v -0.189027 0.391104 -0.163111
v 0.053643 0.387723 -0.243748
v 0.249009 0.374017 -0.073235
v 0.172804 0.382166 -0.181189
v 0.256241 0.368247 0.061671
v -0.239140 0.055456 0.065490
v 0.077943 0.079885 0.237656
v -0.058365 0.087685 -0.250470
v 0.243169 0.079688 -0.073960
v 0.156327 0.516900 -0.153533
v 0.221687 0.514059 -0.054355
v 0.049763 0.526410 -0.207429
v -0.069091 0.535339 -0.200754
v -0.169074 0.535883 -0.134968
v -0.222954 0.532132 -0.027937
v -0.216008 0.525760 0.091523
v -0.149551 0.513757 0.189924
v -0.042700 0.504796 0.242115
v 0.071200 0.506958 0.232846
v 0.167215 0.513678 0.166400
v 0.224196 0.515611 0.061531
vn 0.0075 -0.9914 -0.1309
vn 0.6561 0.0722 -0.7512
vn 0.9544 -0.0087 -0.2985
vn 0.2229 0.1192 -0.9675
vn -0.2678 0.0959 -0.9587
vn -0.7340 0.0088 -0.6790
vn -0.9801 -0.0430 -0.1936
vn -0.9444 -0.0614 0.3229
vn -0.6588 -0.1267 0.7415
vn -0.1788 -0.1897 0.9654
vn 0.3480 -0.1839 0.9193
vn 0.7413 -0.1475 0.6548
vn 0.9648 -0.0934 0.2457
vn 0.2050 0.9757 -0.0779
vn 0.3494 0.9316 -0.1004
vn 0.1266 0.9834 -0.1303
vn 0.0189 0.9804 -0.1961
vn -0.1995 0.9737 -0.1102
vn -0.1936 0.9791 -0.0616
vn -0.1509 0.9732 0.1738
vn -0.1147 0.9563 0.2689
vn 0.0309 0.9264 0.3752
vn 0.0833 0.9081 0.4104
vn 0.2746 0.9233 0.2687
vn 0.3621 0.9267 0.1009
vn -0.3941 0.8345 0.3851
vn 0.1343 0.7249 0.6757
vn 0.6926 0.6179 0.3722
vn 0.6828 0.6508 -0.3322
vn -0.0061 0.7982 -0.6024
vn -0.5024 0.8235 -0.2637
vn -0.0477 0.9974 0.0548
vn -0.0106 0.9973 0.0732
vn 0.0130 0.9985 0.0524
vn -0.0003 0.9968 0.0793
vn 0.0289 0.9980 0.0554
vn 0.1035 0.9946 -0.0035
vn -0.2126 -0.9762 0.0433
vn -0.7068 -0.6640 -0.2441
vn -0.5508 -0.6216 -0.5570
vn -0.0655 -0.9564 -0.2845
vn -0.9408 -0.1277 -0.3140
vn -0.7455 -0.1026 -0.6586
vn -0.6422 -0.1594 0.7498
vn -0.4896 -0.6901 0.5329
vn -0.1684 -0.6435 0.7467
vn -0.2715 -0.1562 0.9497
vn 0.0850 -0.9616 0.2611
vn -0.9591 -0.1267 0.2531
vn -0.9480 0.0953 0.3036
vn -0.9667 0.1051 -0.2335
vn -0.6488 0.0628 0.7584
vn 0.7492 -0.1423 0.6469
vn 0.5502 -0.6526 0.5210
vn 0.7394 -0.6542 0.1591
vn 0.9572 -0.1298 0.2587
vn 0.2638 -0.9600 -0.0941
vn 0.2726 -0.1287 0.9535
vn 0.2984 0.0829 0.9508
vn -0.2186 0.0551 0.9743
vn 0.7451 0.0946 0.6602
vn 0.3092 -0.0762 -0.9479
vn -0.2623 -0.0556 -0.9634
vn -0.2994 0.1636 -0.9400
vn 0.2454 0.1551 -0.9569
vn -0.7444 0.1242 -0.6561
vn 0.2104 -0.6144 -0.7604
vn 0.5230 -0.6215 -0.5833
vn 0.6397 -0.0902 -0.7633
vn 0.9443 -0.0868 -0.3176
vn 0.9394 0.1326 -0.3162
vn 0.9676 0.1062 0.2289
vn 0.6524 0.1352 -0.7457
vn -0.8140 -0.5506 0.1851
vn 0.2316 -0.5105 0.8281
vn -0.2282 -0.4661 -0.8548
vn 0.8189 -0.4976 -0.2860
vn 0.6520 0.2346 -0.7210
vn 0.9314 0.2204 -0.2895
vn 0.2126 0.2534 -0.9437
vn -0.3073 0.2547 -0.9169
vn -0.7282 0.2357 -0.6436
vn -0.9543 0.2244 -0.1972
vn -0.9247 0.2069 0.3194
vn -0.6402 0.1803 0.7467
vn -0.1854 0.1627 0.9691
vn 0.3123 0.1795 0.9329
vn 0.7266 0.2020 0.6567
vn 0.9514 0.2091 0.2260
vt 0.832355 0.226397
vt 0.832355 0.226397
vt 0.832355 0.226397
vt 0.832355 0.226397
vt 0.832355 0.226397
vt 0.832355 0.226397
vt 0.832355 0.226397
vt 0.832355 0.226397
vt 0.832355 0.226397
vt 0.832355 0.226397
vt 0.832355 0.226397
vt 0.832355 0.226397
vt 0.832355 0.226397
vt 0.832355 0.226397
vt 0.832355 0.226397
vt 0.832355 0.226397
vt 0.832355 0.226397
vt 0.832355 0.226397
vt 0.832355 0.226397
vt 0.832355 0.226397
vt 0.832355 0.226397
vt 0.832355 0.226397
vt 0.832355 0.226397
vt 0.832355 0.226397
vt 0.832355 0.226397
vt 0.890094 0.561708
vt 0.832355 0.226387
vt 0.889819 0.563398
vt 0.832355 0.226387
vt 0.888605 0.564260
vt 0.832355 0.226387
vt 0.887233 0.563300
vt 0.832355 0.226387
vt 0.887184 0.561638
vt 0.832355 0.226387
vt 0.888752 0.560947
vt 0.832355 0.226387
vt 0.832356 0.189621
vt 0.832356 0.189619
vt 0.832356 0.189629
vt 0.832356 0.189523
vt 0.832356 0.189532
vt 0.832356 0.189532
vt 0.832356 0.189532
vt 0.832356 0.189523
vt 0.832356 0.189532
vt 0.832356 0.189532
vt 0.832356 0.189532
vt 0.832356 0.189629
vt 0.832356 0.189523
vt 0.832356 0.189619
vt 0.832355 0.189523
vt 0.832355 0.189532
vt 0.832353 0.189234
vt 0.832356 0.189596
vt 0.832356 0.189593
vt 0.832356 0.189602
vt 0.832356 0.189611
vt 0.832356 0.189610
vt 0.832356 0.189611
vt 0.832356 0.189602
vt 0.832356 0.189593
vt 0.832356 0.189596
vt 0.832356 0.189532
vt 0.832356 0.189559
vt 0.832356 0.189549
vt 0.832356 0.189549
vt 0.832356 0.189559
vt 0.832356 0.189549
vt 0.832356 0.189549
vt 0.832353 0.189381
vt 0.832356 0.189576
vt 0.832356 0.189567
vt 0.832356 0.189576
vt 0.832356 0.189576
vt 0.832356 0.189576
vt 0.832356 0.189567
vt 0.832356 0.189629
vt 0.832356 0.189523
vt 0.832356 0.189629
vt 0.832356 0.189523
vt 0.832353 0.189186
vt 0.832356 0.189602
vt 0.832356 0.189602
vt 0.832356 0.189576
vt 0.832356 0.189576
vt 0.832356 0.189576
vt 0.832356 0.189576
vt 0.832356 0.189567
vt 0.832356 0.189559
vt 0.832356 0.189549
vt 0.832356 0.189549
vt 0.832356 0.189549
vt 0.832356 0.189549
vt 0.832356 0.189559
vt 0.832356 0.189567
s 1
usemtl Material
f 1/1/1 2/2/2 3/3/3
f 1/1/1 4/4/4 2/2/2
f 1/1/1 5/5/5 4/4/4
f 1/1/1 6/6/6 5/5/5
f 1/1/1 7/7/7 6/6/6
f 1/1/1 8/8/8 7/7/7
f 1/1/1 9/9/9 8/8/8
f 1/1/1 10/10/10 9/9/9
f 1/1/1 11/11/11 10/10/10
f 1/1/1 12/12/12 11/11/11
f 1/1/1 13/13/13 12/12/12
f 1/1/1 3/3/3 13/13/13
f 3/3/3 2/2/2 14/14/14 15/15/15
f 2/2/2 4/4/4 16/16/16 14/14/14
f 4/4/4 5/5/5 17/17/17 16/16/16
f 5/5/5 6/6/6 18/18/18 17/17/17
f 6/6/6 7/7/7 19/19/19 18/18/18
f 7/7/7 8/8/8 20/20/20 19/19/19
f 8/8/8 9/9/9 21/21/21 20/20/20
f 9/9/9 10/10/10 22/22/22 21/21/21
f 10/10/10 11/11/11 23/23/23 22/22/22
f 11/11/11 12/12/12 24/24/24 23/23/23
f 12/12/12 13/13/13 25/25/25 24/24/24
f 13/13/13 3/3/3 15/15/15 25/25/25
f 15/15/15 14/14/14 26/27/26
f 16/16/16 26/27/26 14/14/14
f 16/16/16 17/17/17 27/29/27
f 18/18/18 27/29/27 17/17/17
f 18/18/18 19/19/19 28/31/28
f 19/19/19 29/33/29 28/31/28
f 20/20/20 21/21/21 29/33/29
f 22/22/22 23/23/23 30/35/30
f 23/23/23 31/37/31 30/35/30
f 15/15/15 31/37/31 25/25/25
f 30/35/30 21/21/21 22/22/22
f 25/25/25 31/37/31 24/24/24
f 28/30/32 29/32/33 27/28/34
f 29/32/33 30/34/35 27/28/34
f 30/34/35 31/36/36 27/28/34
f 26/26/37 27/28/34 31/36/36
f 33/39/38 32/38/39 44/52/40 49/58/41
f 32/38/39 37/44/42 45/53/43 44/52/40
f 35/42/44 34/41/45 42/50/46 41/48/47
f 34/40/45 33/39/38 43/51/48 42/49/46
f 37/44/42 36/43/49 57/66/50 56/65/51
f 36/43/49 35/42/44 58/67/52 57/66/50
f 39/46/53 38/45/54 50/59/55 55/64/56
f 38/45/54 43/51/48 51/60/57 50/59/55
f 41/48/47 40/47/58 61/70/59 60/69/60
f 40/47/58 39/46/53 59/68/61 61/70/59
f 47/56/62 46/55/63 62/72/64 64/74/65
f 46/54/63 45/53/43 63/73/66 62/71/64
f 49/58/41 48/57/67 52/61/68 51/60/57
f 48/57/67 47/56/62 53/62/69 52/61/68
f 55/64/56 54/63/70 65/75/71 67/77/72
f 54/63/70 53/62/69 66/76/73 65/75/71
f 35/42/44 41/48/47 60/69/60 58/67/52
f 47/56/62 64/74/65 66/76/73 53/62/69
f 39/46/53 55/64/56 67/77/72 59/68/61
f 45/53/43 37/44/42 56/65/51 63/73/66
f 36/43/49 37/44/42 32/38/39 68/79/74
f 32/38/39 33/39/38 34/40/45 68/78/74
f 34/41/45 35/42/44 36/43/49 68/79/74
f 42/49/46 43/51/48 38/45/54 69/80/75
f 38/45/54 39/46/53 40/47/58 69/81/75
f 40/47/58 41/48/47 42/50/46 69/81/75
f 48/57/67 49/58/41 44/52/40 70/83/76
f 44/52/40 45/53/43 46/54/63 70/82/76
f 46/55/63 47/56/62 48/57/67 70/83/76
f 54/63/70 55/64/56 50/59/55 71/84/77
f 50/59/55 51/60/57 52/61/68 71/84/77
f 52/61/68 53/62/69 54/63/70 71/84/77
f 65/75/71 66/76/73 72/85/78 73/86/79
f 66/76/73 64/74/65 74/87/80 72/85/78
f 64/74/65 62/72/64 75/88/81 74/87/80
f 62/72/64 63/73/66 76/89/82 75/88/81
f 63/73/66 56/65/51 77/90/83 76/89/82
f 56/65/51 57/66/50 78/91/84 77/90/83
f 57/66/50 58/67/52 79/92/85 78/91/84
f 58/67/52 60/69/60 80/93/86 79/92/85
f 60/69/60 61/70/59 81/94/87 80/93/86
f 61/70/59 59/68/61 82/95/88 81/94/87
f 59/68/61 67/77/72 83/96/89 82/95/88
f 67/77/72 65/75/71 73/86/79 83/96/89
f 49/58/41 51/60/57 43/51/48 33/39/38
f 16/16/16 27/29/27 26/27/26
f 18/18/18 28/31/28 27/29/27
f 19/19/19 20/20/20 29/33/29
f 23/23/23 24/24/24 31/37/31
f 15/15/15 26/27/26 31/37/31
f 30/35/30 29/33/29 21/21/21
