# Blender 3.3.1
# www.blender.org
mtllib bag_001.mtl
o bag_001
v -0.050460 0.083105 0.017838
v -0.254566 0.472309 -0.082103
v -0.185508 0.471242 -0.201052
v -0.253142 0.485448 0.057542
v -0.184933 0.499220 0.183035
v -0.062871 0.500516 0.258420
v 0.084800 0.495859 0.258740
v 0.213553 0.485408 0.186004
v 0.283351 0.463657 0.063215
v 0.280497 0.449182 -0.076167
v 0.208700 0.456988 -0.188781
v 0.085046 0.473027 -0.253870
v -0.060626 0.476940 -0.261195
v -0.200330 0.528849 -0.087536
v -0.148006 0.526089 -0.189844
v -0.200128 0.543970 0.038346
v -0.147900 0.561510 0.153330
v -0.050426 0.569439 0.223390
v 0.071592 0.571159 0.225085
v 0.183050 0.563184 0.158083
v 0.247483 0.543075 0.045589
v 0.246301 0.526941 -0.077218
v 0.186550 0.528702 -0.176822
v 0.080309 0.539123 -0.233800
v -0.045759 0.536227 -0.240291
v -0.133589 0.471822 -0.086910
v -0.110078 0.489288 0.090996
v 0.014318 0.479142 0.167068
v 0.161704 0.470131 0.090527
v 0.172523 0.462955 -0.084002
v 0.010334 0.472025 -0.162462
v 0.066325 0.040639 0.203224
v 0.080564 -0.000000 0.087245
v 0.198182 0.034313 0.091640
v 0.241086 0.170823 0.087266
v 0.183085 0.168360 0.198896
v 0.060739 0.181178 0.242589
v 0.080264 0.053566 -0.210378
v 0.084110 0.183468 -0.250293
v 0.195948 0.187028 -0.191752
v 0.246600 0.185726 -0.060360
v 0.207649 0.051970 -0.065430
v 0.088944 -0.000000 -0.077453
v -0.092879 0.057936 0.198397
v -0.090271 0.195671 0.234369
v -0.209974 0.199349 0.175792
v -0.249289 0.197514 0.061365
v -0.217416 0.062035 0.068541
v -0.087699 0.000000 0.080148
v -0.073310 0.051788 -0.213478
v -0.081810 0.000000 -0.089940
v -0.205803 0.058933 -0.083962
v -0.240787 0.195250 -0.081049
v -0.187550 0.188781 -0.200766
v -0.065700 0.182474 -0.253619
v 0.076694 0.384530 0.247620
v 0.192516 0.372920 0.182881
v 0.260557 0.370587 0.066362
v 0.079017 0.366213 -0.255704
v 0.257392 0.370352 -0.069675
v 0.192833 0.366155 -0.188608
v -0.180409 0.389181 0.175196
v -0.061749 0.391104 0.241916
v -0.242104 0.387723 0.060635
v -0.176556 0.374017 -0.190255
v -0.239221 0.382166 -0.073918
v -0.059017 0.368247 -0.256865
v 0.165223 0.055456 0.184874
v 0.177994 0.079885 -0.175708
v -0.198192 0.087685 0.163895
v -0.174601 0.079688 -0.184705
v -0.207120 0.516900 -0.071497
v -0.147476 0.514059 -0.174214
v -0.207862 0.526410 0.047919
v -0.148907 0.535339 0.151335
v -0.045450 0.535883 0.211511
v 0.074377 0.532132 0.212031
v 0.178215 0.525760 0.152563
v 0.236675 0.513757 0.049210
v 0.235763 0.504796 -0.069703
v 0.176694 0.506958 -0.167528
v 0.074415 0.513678 -0.223857
v -0.044858 0.515611 -0.228118
vn -0.1205 -0.9914 0.0516
vn -0.9649 0.0722 -0.2525
vn -0.6926 -0.0087 -0.7212
vn -0.9654 0.1192 0.2318
vn -0.7388 0.0959 0.6671
vn -0.2806 0.0088 0.9598
vn 0.2636 -0.0430 0.9637
vn 0.7100 -0.0614 0.7015
vn 0.9575 -0.1267 0.2592
vn 0.9439 -0.1897 -0.2703
vn 0.6677 -0.1839 -0.7213
vn 0.2557 -0.1475 -0.9554
vn -0.2101 -0.0934 -0.9732
vn -0.1611 0.9757 -0.1488
vn -0.2456 0.9316 -0.2680
vn -0.1730 0.9834 -0.0552
vn -0.1840 0.9804 0.0705
vn -0.0346 0.9702 0.2398
vn 0.0486 0.9724 0.2283
vn 0.2380 0.9696 0.0573
vn 0.2919 0.9563 -0.0172
vn 0.3222 0.9264 -0.1949
vn 0.3302 0.9081 -0.2575
vn 0.1181 0.9233 -0.3655
vn -0.0711 0.9267 -0.3691
vn 0.5204 0.8345 0.1811
vn 0.5331 0.7325 -0.4235
vn 0.0183 0.6596 -0.7514
vn -0.5858 0.6564 -0.4755
vn -0.5365 0.7982 0.2740
vn -0.0121 0.8235 0.5672
vn 0.0703 0.9974 0.0180
vn 0.0702 0.9972 -0.0243
vn 0.0403 0.9985 -0.0365
vn 0.0711 0.9968 -0.0351
vn 0.0367 0.9980 -0.0506
vn -0.0492 0.9946 -0.0911
vn 0.1335 -0.9762 0.1710
vn 0.0965 -0.6640 0.7415
vn -0.2531 -0.6216 0.7414
vn -0.2255 -0.9564 0.1854
vn 0.1383 -0.1277 0.9821
vn -0.2573 -0.1026 0.9609
vn 0.9574 -0.1594 0.2407
vn 0.6953 -0.6901 0.2007
vn 0.7434 -0.6435 -0.1821
vn 0.9711 -0.1562 -0.1803
vn 0.1959 -0.9616 -0.1925
vn 0.6541 -0.1267 0.7457
vn 0.6943 0.0953 0.7133
vn 0.2219 0.1051 0.9694
vn 0.9681 0.0628 0.2427
vn 0.2451 -0.1423 -0.9590
vn 0.2211 -0.6526 -0.7247
vn -0.1871 -0.6542 -0.7328
vn -0.1951 -0.1298 -0.9721
vn -0.2018 -0.9600 -0.1943
vn 0.7320 -0.1287 -0.6690
vn 0.7182 0.0829 -0.6909
vn 0.9695 0.0551 -0.2386
vn 0.2588 0.0946 -0.9613
vn -0.9864 -0.0762 0.1458
vn -0.7455 -0.0556 0.6642
vn -0.7080 0.1636 0.6870
vn -0.9660 0.1551 0.2069
vn -0.2555 0.1242 0.9588
vn -0.7745 -0.6144 0.1506
vn -0.7553 -0.6215 -0.2082
vn -0.9684 -0.0902 -0.2324
vn -0.7052 -0.0868 -0.7037
vn -0.7018 0.1326 -0.7000
vn -0.2265 0.1062 -0.9682
vn -0.9583 0.1352 -0.2516
vn 0.5286 -0.5506 0.6461
vn 0.6381 -0.5105 -0.5764
vn -0.6634 -0.4661 0.5853
vn -0.6211 -0.4976 -0.6056
vn -0.9361 0.2346 -0.2622
vn -0.6744 0.2204 -0.7047
vn -0.9395 0.2534 0.2304
vn -0.6838 0.2547 0.6838
vn -0.2515 0.2357 0.9387
vn 0.2488 0.2244 0.9422
vn 0.6982 0.2069 0.6854
vn 0.9538 0.1803 0.2403
vn 0.9501 0.1627 -0.2660
vn 0.6958 0.1795 -0.6954
vn 0.2640 0.2020 -0.9431
vn -0.2218 0.2091 -0.9524
vt 0.832355 0.226397
vt 0.832355 0.226397
vt 0.832355 0.226397
vt 0.832355 0.226397
vt 0.832355 0.226397
vt 0.832355 0.226397
vt 0.832355 0.226397
vt 0.832355 0.226397
vt 0.832355 0.226397
vt 0.832355 0.226397
vt 0.832355 0.226397
vt 0.832355 0.226397
vt 0.832355 0.226397
vt 0.832355 0.226397
vt 0.832355 0.226397
vt 0.832355 0.226397
vt 0.832355 0.226397
vt 0.832355 0.226397
vt 0.832355 0.226397
vt 0.832355 0.226397
vt 0.832355 0.226397
vt 0.832355 0.226397
vt 0.832355 0.226397
vt 0.832355 0.226397
vt 0.832355 0.226397
vt 0.623493 0.927919
vt 0.832355 0.226387
vt 0.623217 0.929609
vt 0.832355 0.226387
vt 0.622004 0.930471
vt 0.832355 0.226387
vt 0.620631 0.929511
vt 0.832355 0.226387
vt 0.620583 0.927848
vt 0.832355 0.226387
vt 0.622151 0.927158
vt 0.832355 0.226387
vt 0.832356 0.189621
vt 0.832356 0.189619
vt 0.832356 0.189629
vt 0.832356 0.189523
vt 0.832356 0.189532
vt 0.832356 0.189532
vt 0.832356 0.189532
vt 0.832356 0.189523
vt 0.832356 0.189532
vt 0.832356 0.189532
vt 0.832356 0.189532
vt 0.832356 0.189629
vt 0.832356 0.189523
vt 0.832356 0.189619
vt 0.832355 0.189523
vt 0.832355 0.189532
vt 0.832353 0.189234
vt 0.832356 0.189596
vt 0.832356 0.189593
vt 0.832356 0.189602
vt 0.832356 0.189611
vt 0.832356 0.189610
vt 0.832356 0.189611
vt 0.832356 0.189602
vt 0.832356 0.189593
vt 0.832356 0.189596
vt 0.832356 0.189532
vt 0.832356 0.189559
vt 0.832356 0.189549
vt 0.832356 0.189549
vt 0.832356 0.189559
vt 0.832356 0.189549
vt 0.832356 0.189549
vt 0.832353 0.189381
vt 0.832356 0.189576
vt 0.832356 0.189567
vt 0.832356 0.189576
vt 0.832356 0.189576
vt 0.832356 0.189576
vt 0.832356 0.189567
vt 0.832356 0.189629
vt 0.832356 0.189523
vt 0.832356 0.189629
vt 0.832356 0.189523
vt 0.832353 0.189186
vt 0.832356 0.189602
vt 0.832356 0.189602
vt 0.832356 0.189576
vt 0.832356 0.189576
vt 0.832356 0.189576
vt 0.832356 0.189576
vt 0.832356 0.189567
vt 0.832356 0.189559
vt 0.832356 0.189549
vt 0.832356 0.189549
vt 0.832356 0.189549
vt 0.832356 0.189549
vt 0.832356 0.189559
vt 0.832356 0.189567
s 1
usemtl Material
f 1/1/1 2/2/2 3/3/3
f 1/1/1 4/4/4 2/2/2
f 1/1/1 5/5/5 4/4/4
f 1/1/1 6/6/6 5/5/5
f 1/1/1 7/7/7 6/6/6
f 1/1/1 8/8/8 7/7/7
f 1/1/1 9/9/9 8/8/8
f 1/1/1 10/10/10 9/9/9
f 1/1/1 11/11/11 10/10/10
f 1/1/1 12/12/12 11/11/11
f 1/1/1 13/13/13 12/12/12
f 1/1/1 3/3/3 13/13/13
f 3/3/3 2/2/2 14/14/14 15/15/15
f 2/2/2 4/4/4 16/16/16 14/14/14
f 4/4/4 5/5/5 17/17/17 16/16/16
f 5/5/5 6/6/6 18/18/18 17/17/17
f 6/6/6 7/7/7 19/19/19 18/18/18
f 7/7/7 8/8/8 20/20/20 19/19/19
f 8/8/8 9/9/9 21/21/21 20/20/20
f 9/9/9 10/10/10 22/22/22 21/21/21
f 10/10/10 11/11/11 23/23/23 22/22/22
f 11/11/11 12/12/12 24/24/24 23/23/23
f 12/12/12 13/13/13 25/25/25 24/24/24
f 13/13/13 3/3/3 15/15/15 25/25/25
f 15/15/15 14/14/14 26/27/26
f 16/16/16 26/27/26 14/14/14
f 16/16/16 17/17/17 27/29/27
f 18/18/18 27/29/27 17/17/17
f 18/18/18 19/19/19 28/31/28
f 20/20/20 28/31/28 19/19/19
f 20/20/20 21/21/21 29/33/29
f 22/22/22 23/23/23 30/35/30
f 23/23/23 31/37/31 30/35/30
f 15/15/15 31/37/31 25/25/25
f 30/35/30 21/21/21 22/22/22
f 25/25/25 31/37/31 24/24/24
f 28/30/32 29/32/33 27/28/34
f 29/32/33 30/34/35 27/28/34
f 30/34/35 31/36/36 27/28/34
f 26/26/37 27/28/34 31/36/36
f 33/39/38 32/38/39 44/52/40 49/58/41
f 32/38/39 37/44/42 45/53/43 44/52/40
f 35/42/44 34/41/45 42/50/46 41/48/47
f 34/40/45 33/39/38 43/51/48 42/49/46
f 37/44/42 36/43/49 57/66/50 56/65/51
f 36/43/49 35/42/44 58/67/52 57/66/50
f 39/46/53 38/45/54 50/59/55 55/64/56
f 38/45/54 43/51/48 51/60/57 50/59/55
f 41/48/47 40/47/58 61/70/59 60/69/60
f 40/47/58 39/46/53 59/68/61 61/70/59
f 47/56/62 46/55/63 62/72/64 64/74/65
f 46/54/63 45/53/43 63/73/66 62/71/64
f 49/58/41 48/57/67 52/61/68 51/60/57
f 48/57/67 47/56/62 53/62/69 52/61/68
f 55/64/56 54/63/70 65/75/71 67/77/72
f 54/63/70 53/62/69 66/76/73 65/75/71
f 35/42/44 41/48/47 60/69/60 58/67/52
f 47/56/62 64/74/65 66/76/73 53/62/69
f 39/46/53 55/64/56 67/77/72 59/68/61
f 45/53/43 37/44/42 56/65/51 63/73/66
f 36/43/49 37/44/42 32/38/39 68/79/74
f 32/38/39 33/39/38 34/40/45 68/78/74
f 34/41/45 35/42/44 36/43/49 68/79/74
f 42/49/46 43/51/48 38/45/54 69/80/75
f 38/45/54 39/46/53 40/47/58 69/81/75
f 40/47/58 41/48/47 42/50/46 69/81/75
f 48/57/67 49/58/41 44/52/40 70/83/76
f 44/52/40 45/53/43 46/54/63 70/82/76
f 46/55/63 47/56/62 48/57/67 70/83/76
f 54/63/70 55/64/56 50/59/55 71/84/77
f 50/59/55 51/60/57 52/61/68 71/84/77
f 52/61/68 53/62/69 54/63/70 71/84/77
f 65/75/71 66/76/73 72/85/78 73/86/79
f 66/76/73 64/74/65 74/87/80 72/85/78
f 64/74/65 62/72/64 75/88/81 74/87/80
f 62/72/64 63/73/66 76/89/82 75/88/81
f 63/73/66 56/65/51 77/90/83 76/89/82
f 56/65/51 57/66/50 78/91/84 77/90/83
f 57/66/50 58/67/52 79/92/85 78/91/84
f 58/67/52 60/69/60 80/93/86 79/92/85
f 60/69/60 61/70/59 81/94/87 80/93/86
f 61/70/59 59/68/61 82/95/88 81/94/87
f 59/68/61 67/77/72 83/96/89 82/95/88
f 67/77/72 65/75/71 73/86/79 83/96/89
f 49/58/41 51/60/57 43/51/48 33/39/38
f 18/18/18 28/31/28 27/29/27
f 16/16/16 27/29/27 26/27/26
f 20/20/20 29/33/29 28/31/28
f 23/23/23 24/24/24 31/37/31
f 15/15/15 26/27/26 31/37/31
f 30/35/30 29/33/29 21/21/21
