# Blender 3.3.1
# www.blender.org
mtllib bag_003.mtl
o bag_003
v 0.053451 0.083105 0.002724
v 0.204110 0.472309 0.172869
v 0.094954 0.471242 0.256552
v 0.255979 0.485448 0.043206
v 0.240706 0.499220 -0.098807
v 0.156554 0.500516 -0.214999
v 0.020135 0.495859 -0.271537
v -0.126616 0.485408 -0.253319
v -0.237919 0.463657 -0.166368
v -0.288366 0.449182 -0.036404
v -0.264870 0.456988 0.095067
v -0.175325 0.473027 0.202346
v -0.043422 0.476940 0.264599
v 0.151893 0.528849 0.157236
v 0.064547 0.526089 0.231905
v 0.199650 0.543970 0.040765
v 0.195151 0.561510 -0.085444
v 0.131706 0.569439 -0.187348
v 0.019529 0.571159 -0.235387
v -0.109046 0.563184 -0.215886
v -0.211468 0.543075 -0.136410
v -0.257147 0.526941 -0.022409
v -0.239834 0.528702 0.092446
v -0.163301 0.539123 0.185593
v -0.049207 0.536227 0.239608
v 0.090420 0.471822 0.131239
v 0.136439 0.489288 -0.042213
v 0.057943 0.478919 -0.177824
v -0.115039 0.470131 -0.145291
v -0.191514 0.462955 0.011964
v -0.071430 0.472025 0.146282
v 0.016074 0.040639 -0.213169
v -0.041264 -0.000000 -0.111353
v -0.148343 0.034313 -0.160213
v -0.189679 0.170823 -0.172509
v -0.093534 0.168360 -0.253636
v 0.036231 0.181178 -0.247438
v -0.154339 0.053566 0.163953
v -0.173098 0.183468 0.199395
v -0.254210 0.187028 0.102671
v -0.251003 0.185726 -0.038109
v -0.216918 0.051970 -0.018586
v -0.111739 -0.000000 0.037740
v 0.161441 0.057936 -0.148071
v 0.172729 0.195671 -0.182325
v 0.261101 0.199349 -0.082572
v 0.253872 0.197514 0.038204
v 0.227134 0.062035 0.019430
v 0.111614 0.000000 -0.040707
v -0.013521 0.051788 0.225309
v 0.041390 0.000000 0.114320
v 0.158314 0.058933 0.156016
v 0.191771 0.195250 0.166647
v 0.096951 0.188781 0.257066
v -0.035845 0.182474 0.259526
v 0.023395 0.384530 -0.258167
v -0.108354 0.372920 -0.242419
v -0.215645 0.370587 -0.160596
v -0.170450 0.366213 0.206338
v -0.264530 0.370352 -0.033607
v -0.250133 0.366155 0.100950
v 0.233537 0.389181 -0.093281
v 0.149231 0.391104 -0.200166
v 0.246950 0.387723 0.036143
v 0.090788 0.374017 0.243159
v 0.193039 0.382166 0.159457
v -0.043261 0.368247 0.259983
v -0.082359 0.055456 -0.233867
v -0.231499 0.079885 0.094675
v 0.245676 0.087685 -0.076060
v 0.091095 0.079688 0.237283
v 0.164279 0.516900 0.144992
v 0.070010 0.514059 0.217251
v 0.210447 0.526410 0.034859
v 0.195322 0.535339 -0.083217
v 0.122581 0.535883 -0.178260
v 0.011983 0.532132 -0.224378
v -0.106678 0.525760 -0.208940
v -0.200095 0.513757 -0.135641
v -0.244542 0.504796 -0.025343
v -0.227182 0.506958 0.087606
v -0.154065 0.513678 0.178644
v -0.045404 0.515611 0.228010
vn 0.1311 -0.9914 -0.0018
vn 0.7960 0.0722 0.6010
vn 0.3657 -0.0087 0.9307
vn 0.9809 0.1192 0.1534
vn 0.9372 0.0959 -0.3354
vn 0.6250 0.0088 -0.7806
vn 0.1232 -0.0430 -0.9914
vn -0.3893 -0.0614 -0.9190
vn -0.7866 -0.1267 -0.6043
vn -0.9757 -0.1897 -0.1096
vn -0.8921 -0.1839 0.4126
vn -0.6003 -0.1475 0.7860
vn -0.1764 -0.0934 0.9799
vn 0.0923 0.9757 0.1989
vn 0.1250 0.9316 0.3414
vn 0.1389 0.9834 0.1170
vn 0.1970 0.9804 0.0049
vn 0.0739 0.9756 -0.2068
vn 0.0625 0.9818 -0.1793
vn -0.1841 0.9732 -0.1381
vn -0.2764 0.9563 -0.0952
vn -0.3721 0.9264 0.0575
vn -0.4034 0.9081 0.1123
vn -0.2484 0.9233 0.2930
vn -0.0748 0.9267 0.3684
vn -0.4122 0.8345 -0.3656
vn -0.6710 0.7198 0.1777
vn -0.3299 0.5814 0.7438
vn 0.3881 0.6442 0.6591
vn 0.6004 0.7982 -0.0490
vn 0.2272 0.8235 -0.5199
vn -0.0586 0.9974 -0.0423
vn -0.0736 0.9973 -0.0057
vn -0.0516 0.9985 0.0160
vn -0.0792 0.9968 0.0054
vn -0.0532 0.9980 0.0328
vn 0.0108 0.9946 0.1030
vn -0.0584 -0.9762 -0.2089
vn 0.1932 -0.6640 -0.7224
vn 0.5164 -0.6216 -0.5891
vn 0.2791 -0.9564 -0.0856
vn 0.2462 -0.1277 -0.9608
vn 0.6038 -0.1026 -0.7905
vn -0.7936 -0.1594 -0.5872
vn -0.5664 -0.6901 -0.4504
vn -0.7568 -0.6435 -0.1148
vn -0.9666 -0.1562 -0.2032
vn -0.2544 -0.9616 0.1034
vn -0.3208 -0.1267 -0.9386
vn -0.3703 0.0953 -0.9240
vn 0.1640 0.1051 -0.9808
vn -0.8027 0.0628 -0.5931
vn -0.5919 -0.1423 0.7934
vn -0.4805 -0.6526 0.5859
vn -0.1061 -0.6542 0.7488
vn -0.1898 -0.1298 0.9732
vn 0.1126 -0.9600 0.2565
vn -0.9316 -0.1287 0.3398
vn -0.9272 0.0829 0.3653
vn -0.9874 0.0551 -0.1486
vn -0.6054 0.0946 0.7903
vn 0.9676 -0.0762 0.2409
vn 0.9423 -0.0556 -0.3303
vn 0.9163 0.1636 -0.3656
vn 0.9720 0.1551 0.1766
vn 0.6014 0.1242 -0.7892
vn 0.7735 -0.6144 0.1557
vn 0.6191 -0.6215 0.4801
vn 0.8070 -0.0902 0.5837
vn 0.3840 -0.0868 0.9192
vn 0.3823 0.1326 0.9145
vn -0.1594 0.1062 0.9815
vn 0.7903 0.1352 0.5977
vn -0.2426 -0.5506 -0.7987
vn -0.8095 -0.5105 0.2900
vn 0.8363 -0.4661 -0.2885
vn 0.3436 -0.4976 0.7965
vn 0.7656 0.2346 0.5990
vn 0.3552 0.2204 0.9084
vn 0.9565 0.2534 0.1448
vn 0.8927 0.2547 -0.3718
vn 0.5900 0.2357 -0.7722
vn 0.1288 0.2244 -0.9659
vn -0.3845 0.2069 -0.8996
vn -0.7904 0.1803 -0.5854
vn -0.9799 0.1627 -0.1159
vn -0.9082 0.1795 0.3780
vn -0.6033 0.2020 0.7715
vn -0.1577 0.2091 0.9651
vt 0.832355 0.226397
vt 0.832355 0.226397
vt 0.832355 0.226397
vt 0.832355 0.226397
vt 0.832355 0.226397
vt 0.832355 0.226397
vt 0.832355 0.226397
vt 0.832355 0.226397
vt 0.832355 0.226397
vt 0.832355 0.226397
vt 0.832355 0.226397
vt 0.832355 0.226397
vt 0.832355 0.226397
vt 0.832355 0.226397
vt 0.832355 0.226397
vt 0.832355 0.226397
vt 0.832355 0.226397
vt 0.832355 0.226397
vt 0.832355 0.226397
vt 0.832355 0.226397
vt 0.832355 0.226397
vt 0.832355 0.226397
vt 0.832355 0.226397
vt 0.832355 0.226397
vt 0.832355 0.226397
vt 0.814899 0.936708
vt 0.832355 0.226387
vt 0.814623 0.938398
vt 0.832355 0.226387
vt 0.813410 0.939260
vt 0.832355 0.226387
vt 0.812037 0.938300
vt 0.832355 0.226387
vt 0.811989 0.936638
vt 0.832355 0.226387
vt 0.813557 0.935947
vt 0.832355 0.226387
vt 0.832356 0.189621
vt 0.832356 0.189619
vt 0.832356 0.189629
vt 0.832356 0.189523
vt 0.832356 0.189532
vt 0.832356 0.189532
vt 0.832356 0.189532
vt 0.832356 0.189523
vt 0.832356 0.189532
vt 0.832356 0.189532
vt 0.832356 0.189532
vt 0.832356 0.189629
vt 0.832356 0.189523
vt 0.832356 0.189619
vt 0.832355 0.189523
vt 0.832355 0.189532
vt 0.832353 0.189234
vt 0.832356 0.189596
vt 0.832356 0.189593
vt 0.832356 0.189602
vt 0.832356 0.189611
vt 0.832356 0.189610
vt 0.832356 0.189611
vt 0.832356 0.189602
vt 0.832356 0.189593
vt 0.832356 0.189596
vt 0.832356 0.189532
vt 0.832356 0.189559
vt 0.832356 0.189549
vt 0.832356 0.189549
vt 0.832356 0.189559
vt 0.832356 0.189549
vt 0.832356 0.189549
vt 0.832353 0.189381
vt 0.832356 0.189576
vt 0.832356 0.189567
vt 0.832356 0.189576
vt 0.832356 0.189576
vt 0.832356 0.189576
vt 0.832356 0.189567
vt 0.832356 0.189629
vt 0.832356 0.189523
vt 0.832356 0.189629
vt 0.832356 0.189523
vt 0.832353 0.189186
vt 0.832356 0.189602
vt 0.832356 0.189602
vt 0.832356 0.189576
vt 0.832356 0.189576
vt 0.832356 0.189576
vt 0.832356 0.189576
vt 0.832356 0.189567
vt 0.832356 0.189559
vt 0.832356 0.189549
vt 0.832356 0.189549
vt 0.832356 0.189549
vt 0.832356 0.189549
vt 0.832356 0.189559
vt 0.832356 0.189567
s 1
usemtl Material
f 1/1/1 2/2/2 3/3/3
f 1/1/1 4/4/4 2/2/2
f 1/1/1 5/5/5 4/4/4
f 1/1/1 6/6/6 5/5/5
f 1/1/1 7/7/7 6/6/6
f 1/1/1 8/8/8 7/7/7
f 1/1/1 9/9/9 8/8/8
f 1/1/1 10/10/10 9/9/9
f 1/1/1 11/11/11 10/10/10
f 1/1/1 12/12/12 11/11/11
f 1/1/1 13/13/13 12/12/12
f 1/1/1 3/3/3 13/13/13
f 3/3/3 2/2/2 14/14/14 15/15/15
f 2/2/2 4/4/4 16/16/16 14/14/14
f 4/4/4 5/5/5 17/17/17 16/16/16
f 5/5/5 6/6/6 18/18/18 17/17/17
f 6/6/6 7/7/7 19/19/19 18/18/18
f 7/7/7 8/8/8 20/20/20 19/19/19
f 8/8/8 9/9/9 21/21/21 20/20/20
f 9/9/9 10/10/10 22/22/22 21/21/21
f 10/10/10 11/11/11 23/23/23 22/22/22
f 11/11/11 12/12/12 24/24/24 23/23/23
f 12/12/12 13/13/13 25/25/25 24/24/24
f 13/13/13 3/3/3 15/15/15 25/25/25
f 15/15/15 14/14/14 26/27/26
f 16/16/16 26/27/26 14/14/14
f 16/16/16 17/17/17 27/29/27
f 18/18/18 27/29/27 17/17/17
f 18/18/18 19/19/19 28/31/28
f 19/19/19 29/33/29 28/31/28
f 20/20/20 21/21/21 29/33/29
f 22/22/22 23/23/23 30/35/30
f 23/23/23 31/37/31 30/35/30
f 15/15/15 31/37/31 25/25/25
f 30/35/30 21/21/21 22/22/22
f 25/25/25 31/37/31 24/24/24
f 28/30/32 29/32/33 27/28/34
f 29/32/33 30/34/35 27/28/34
f 30/34/35 31/36/36 27/28/34
f 26/26/37 27/28/34 31/36/36
f 33/39/38 32/38/39 44/52/40 49/58/41
f 32/38/39 37/44/42 45/53/43 44/52/40
f 35/42/44 34/41/45 42/50/46 41/48/47
f 34/40/45 33/39/38 43/51/48 42/49/46
f 37/44/42 36/43/49 57/66/50 56/65/51
f 36/43/49 35/42/44 58/67/52 57/66/50
f 39/46/53 38/45/54 50/59/55 55/64/56
f 38/45/54 43/51/48 51/60/57 50/59/55
f 41/48/47 40/47/58 61/70/59 60/69/60
f 40/47/58 39/46/53 59/68/61 61/70/59
f 47/56/62 46/55/63 62/72/64 64/74/65
f 46/54/63 45/53/43 63/73/66 62/71/64
f 49/58/41 48/57/67 52/61/68 51/60/57
f 48/57/67 47/56/62 53/62/69 52/61/68
f 55/64/56 54/63/70 65/75/71 67/77/72
f 54/63/70 53/62/69 66/76/73 65/75/71
f 35/42/44 41/48/47 60/69/60 58/67/52
f 47/56/62 64/74/65 66/76/73 53/62/69
f 39/46/53 55/64/56 67/77/72 59/68/61
f 45/53/43 37/44/42 56/65/51 63/73/66
f 36/43/49 37/44/42 32/38/39 68/79/74
f 32/38/39 33/39/38 34/40/45 68/78/74
f 34/41/45 35/42/44 36/43/49 68/79/74
f 42/49/46 43/51/48 38/45/54 69/80/75
f 38/45/54 39/46/53 40/47/58 69/81/75
f 40/47/58 41/48/47 42/50/46 69/81/75
f 48/57/67 49/58/41 44/52/40 70/83/76
f 44/52/40 45/53/43 46/54/63 70/82/76
f 46/55/63 47/56/62 48/57/67 70/83/76
f 54/63/70 55/64/56 50/59/55 71/84/77
f 50/59/55 51/60/57 52/61/68 71/84/77
f 52/61/68 53/62/69 54/63/70 71/84/77
f 65/75/71 66/76/73 72/85/78 73/86/79
f 66/76/73 64/74/65 74/87/80 72/85/78
f 64/74/65 62/72/64 75/88/81 74/87/80
f 62/72/64 63/73/66 76/89/82 75/88/81
f 63/73/66 56/65/51 77/90/83 76/89/82
f 56/65/51 57/66/50 78/91/84 77/90/83
f 57/66/50 58/67/52 79/92/85 78/91/84
f 58/67/52 60/69/60 80/93/86 79/92/85
f 60/69/60 61/70/59 81/94/87 80/93/86
f 61/70/59 59/68/61 82/95/88 81/94/87
f 59/68/61 67/77/72 83/96/89 82/95/88
f 67/77/72 65/75/71 73/86/79 83/96/89
f 49/58/41 51/60/57 43/51/48 33/39/38
f 16/16/16 27/29/27 26/27/26
f 18/18/18 28/31/28 27/29/27
f 19/19/19 20/20/20 29/33/29
f 23/23/23 24/24/24 31/37/31
f 15/15/15 26/27/26 31/37/31
f 30/35/30 29/33/29 21/21/21
