# Blender 3.3.1
# www.blender.org
mtllib bag_002.mtl
o bag_002
v 0.000012 0.083105 0.053520
v -0.162206 0.472309 0.212683
v -0.251361 0.471242 0.107948
v -0.030061 0.485448 0.257853
v 0.110986 0.499220 0.235339
v 0.222723 0.500516 0.145356
v 0.272211 0.495859 0.006224
v 0.246513 0.485408 -0.139404
v 0.153985 0.463657 -0.246115
v 0.021612 0.449182 -0.289850
v -0.108486 0.456988 -0.259662
v -0.211046 0.473027 -0.164749
v -0.266473 0.476940 -0.029835
v -0.149264 0.528849 0.159734
v -0.228302 0.526089 0.076320
v -0.030502 0.543970 0.201473
v 0.095311 0.561510 0.190526
v 0.193838 0.569439 0.121953
v 0.236078 0.571159 0.007468
v 0.210027 0.563184 -0.119943
v 0.125419 0.543075 -0.218166
v 0.009230 0.526941 -0.257956
v -0.104589 0.528702 -0.234794
v -0.193700 0.539123 -0.153597
v -0.241811 0.536227 -0.036890
v -0.126444 0.471822 0.097013
v 0.049135 0.489288 0.134102
v 0.172844 0.478919 0.047794
v 0.139219 0.470131 -0.122318
v -0.021741 0.462955 -0.190651
v -0.149743 0.472025 -0.063857
v 0.213712 0.040639 0.005153
v 0.109098 -0.000000 -0.046904
v 0.152418 0.034313 -0.156341
v 0.162584 0.170823 -0.198252
v 0.248521 0.168360 -0.106381
v 0.248967 0.181178 0.023532
v -0.171631 0.053566 -0.145754
v -0.207985 0.183468 -0.162675
v -0.115535 0.187028 -0.248628
v 0.025225 0.185726 -0.252623
v 0.007470 0.051970 -0.217585
v -0.043404 -0.000000 -0.109663
v 0.156132 0.057936 0.153658
v 0.190918 0.195671 0.163180
v 0.095815 0.199349 0.256537
v -0.025173 0.197514 0.255493
v -0.007790 0.062035 0.227831
v 0.046361 0.000000 0.109387
v -0.225706 0.051788 -0.001982
v -0.112054 0.000000 0.047181
v -0.147717 0.058933 0.166085
v -0.156623 0.195250 0.200041
v -0.251772 0.188781 0.109969
v -0.261020 0.182474 -0.022528
v 0.259026 0.384530 0.010164
v 0.236561 0.372920 -0.120608
v 0.149359 0.370587 -0.223574
v -0.214783 0.366213 -0.159676
v 0.020036 0.370352 -0.265902
v -0.113608 0.366155 -0.244644
v 0.105101 0.389181 0.228462
v 0.207535 0.391104 0.138801
v -0.023468 0.387723 0.248475
v -0.238199 0.374017 0.103103
v -0.149378 0.382166 0.200940
v -0.261855 0.368247 -0.029910
v 0.229350 0.055456 -0.094210
v -0.106388 0.079885 -0.226355
v 0.088522 0.087685 0.241465
v -0.232314 0.079688 0.103109
v -0.136402 0.516900 0.171479
v -0.213387 0.514059 0.081027
v -0.024053 0.526410 0.211954
v 0.093095 0.535339 0.190811
v 0.184294 0.535883 0.113306
v 0.224697 0.532132 0.000494
v 0.203211 0.525760 -0.117222
v 0.125232 0.513757 -0.206769
v 0.012806 0.504796 -0.245518
v -0.099108 0.506958 -0.222405
v -0.186288 0.513678 -0.144729
v -0.230033 0.515611 -0.033685
vn 0.0085 -0.9914 0.1309
vn -0.5595 0.0722 0.8257
vn -0.9108 -0.0087 0.4128
vn -0.1030 0.1192 0.9875
vn 0.3829 0.0959 0.9188
vn 0.8115 0.0088 0.5843
vn 0.9964 -0.0430 0.0724
vn 0.8979 -0.0614 -0.4358
vn 0.5633 -0.1267 -0.8165
vn 0.0596 -0.1897 -0.9800
vn -0.4577 -0.1839 -0.8699
vn -0.8157 -0.1475 -0.5593
vn -0.9876 -0.0934 -0.1260
vn -0.1939 0.9757 0.1024
vn -0.3346 0.9316 0.1423
vn -0.1097 0.9834 0.1447
vn 0.0052 0.9804 0.1970
vn 0.2106 0.9741 0.0828
vn 0.1996 0.9791 0.0384
vn 0.1286 0.9732 -0.1909
vn 0.0810 0.9563 -0.2809
vn -0.0765 0.9264 -0.3687
vn -0.1328 0.9081 -0.3971
vn -0.3053 0.9233 -0.2331
vn -0.3717 0.9267 -0.0559
vn 0.3441 0.8345 -0.4304
vn -0.2150 0.7236 -0.6559
vn -0.7315 0.6158 -0.2929
vn -0.6370 0.6512 0.4125
vn 0.0796 0.7982 0.5972
vn 0.5308 0.8235 0.2003
vn 0.0419 0.9973 -0.0598
vn 0.0018 0.9973 -0.0739
vn -0.0187 0.9986 -0.0503
vn -0.0094 0.9968 -0.0788
vn -0.0354 0.9980 -0.0514
vn -0.1023 0.9946 0.0161
vn 0.2057 -0.9762 -0.0690
vn 0.7313 -0.6640 0.1560
vn 0.6147 -0.6216 0.4856
vn 0.0997 -0.9564 0.2743
vn 0.9721 -0.1277 0.1967
vn 0.8203 -0.1026 0.5626
vn 0.5458 -0.1594 -0.8226
vn 0.4208 -0.6901 -0.5887
vn 0.0759 -0.6435 -0.7616
vn 0.1535 -0.1562 -0.9757
vn -0.1163 -0.9616 -0.2488
vn 0.9210 -0.1267 -0.3683
vn 0.9039 0.0953 -0.4171
vn 0.9879 0.1051 0.1137
vn 0.5513 0.0628 -0.8319
vn -0.8226 -0.1423 -0.5506
vn -0.6097 -0.6526 -0.4499
vn -0.7533 -0.6542 -0.0676
vn -0.9816 -0.1298 -0.1398
vn -0.2504 -0.9600 0.1256
vn -0.3870 -0.1287 -0.9131
vn -0.4123 0.0829 -0.9073
vn 0.0979 0.0551 -0.9937
vn -0.8202 0.0946 -0.5642
vn -0.1911 -0.0762 0.9786
vn 0.3780 -0.0556 0.9241
vn 0.4120 0.1636 0.8964
vn -0.1267 0.1551 0.9797
vn 0.8189 0.1242 0.5603
vn -0.1159 -0.6144 0.7804
vn -0.4478 -0.6215 0.6428
vn -0.5417 -0.0902 0.8357
vn -0.8984 -0.0868 0.4305
vn -0.8937 0.1326 0.4285
vn -0.9884 0.1062 -0.1090
vn -0.5565 0.1352 0.8198
vn 0.7853 -0.5506 -0.2832
vn -0.3310 -0.5105 -0.7937
vn 0.3309 -0.4661 0.8205
vn -0.7779 -0.4976 0.3839
vn -0.5590 0.2346 0.7953
vn -0.8891 0.2204 0.4012
vn -0.0957 0.2534 0.9626
vn 0.4170 0.2547 0.8725
vn 0.8014 0.2357 0.5498
vn 0.9713 0.2244 0.0792
vn 0.8788 0.2069 -0.4300
vn 0.5442 0.1803 -0.8193
vn 0.0656 0.1627 -0.9845
vn -0.4239 0.1795 -0.8877
vn -0.8014 0.2020 -0.5630
vn -0.9719 0.2091 -0.1081
vt 0.832355 0.226397
vt 0.832355 0.226397
vt 0.832355 0.226397
vt 0.832355 0.226397
vt 0.832355 0.226397
vt 0.832355 0.226397
vt 0.832355 0.226397
vt 0.832355 0.226397
vt 0.832355 0.226397
vt 0.832355 0.226397
vt 0.832355 0.226397
vt 0.832355 0.226397
vt 0.832355 0.226397
vt 0.832355 0.226397
vt 0.832355 0.226397
vt 0.832355 0.226397
vt 0.832355 0.226397
vt 0.832355 0.226397
vt 0.832355 0.226397
vt 0.832355 0.226397
vt 0.832355 0.226397
vt 0.832355 0.226397
vt 0.832355 0.226397
vt 0.832355 0.226397
vt 0.832355 0.226397
vt 0.477008 0.624208
vt 0.832355 0.226387
vt 0.476733 0.625898
vt 0.832355 0.226387
vt 0.475520 0.626760
vt 0.832355 0.226387
vt 0.474147 0.625800
vt 0.832355 0.226387
vt 0.474098 0.624138
vt 0.832355 0.226387
vt 0.475666 0.623447
vt 0.832355 0.226387
vt 0.832356 0.189621
vt 0.832356 0.189619
vt 0.832356 0.189629
vt 0.832356 0.189523
vt 0.832356 0.189532
vt 0.832356 0.189532
vt 0.832356 0.189532
vt 0.832356 0.189523
vt 0.832356 0.189532
vt 0.832356 0.189532
vt 0.832356 0.189532
vt 0.832356 0.189629
vt 0.832356 0.189523
vt 0.832356 0.189619
vt 0.832355 0.189523
vt 0.832355 0.189532
vt 0.832353 0.189234
vt 0.832356 0.189596
vt 0.832356 0.189593
vt 0.832356 0.189602
vt 0.832356 0.189611
vt 0.832356 0.189610
vt 0.832356 0.189611
vt 0.832356 0.189602
vt 0.832356 0.189593
vt 0.832356 0.189596
vt 0.832356 0.189532
vt 0.832356 0.189559
vt 0.832356 0.189549
vt 0.832356 0.189549
vt 0.832356 0.189559
vt 0.832356 0.189549
vt 0.832356 0.189549
vt 0.832353 0.189381
vt 0.832356 0.189576
vt 0.832356 0.189567
vt 0.832356 0.189576
vt 0.832356 0.189576
vt 0.832356 0.189576
vt 0.832356 0.189567
vt 0.832356 0.189629
vt 0.832356 0.189523
vt 0.832356 0.189629
vt 0.832356 0.189523
vt 0.832353 0.189186
vt 0.832356 0.189602
vt 0.832356 0.189602
vt 0.832356 0.189576
vt 0.832356 0.189576
vt 0.832356 0.189576
vt 0.832356 0.189576
vt 0.832356 0.189567
vt 0.832356 0.189559
vt 0.832356 0.189549
vt 0.832356 0.189549
vt 0.832356 0.189549
vt 0.832356 0.189549
vt 0.832356 0.189559
vt 0.832356 0.189567
s 1
usemtl Material
f 1/1/1 2/2/2 3/3/3
f 1/1/1 4/4/4 2/2/2
f 1/1/1 5/5/5 4/4/4
f 1/1/1 6/6/6 5/5/5
f 1/1/1 7/7/7 6/6/6
f 1/1/1 8/8/8 7/7/7
f 1/1/1 9/9/9 8/8/8
f 1/1/1 10/10/10 9/9/9
f 1/1/1 11/11/11 10/10/10
f 1/1/1 12/12/12 11/11/11
f 1/1/1 13/13/13 12/12/12
f 1/1/1 3/3/3 13/13/13
f 3/3/3 2/2/2 14/14/14 15/15/15
f 2/2/2 4/4/4 16/16/16 14/14/14
f 4/4/4 5/5/5 17/17/17 16/16/16
f 5/5/5 6/6/6 18/18/18 17/17/17
f 6/6/6 7/7/7 19/19/19 18/18/18
f 7/7/7 8/8/8 20/20/20 19/19/19
f 8/8/8 9/9/9 21/21/21 20/20/20
f 9/9/9 10/10/10 22/22/22 21/21/21
f 10/10/10 11/11/11 23/23/23 22/22/22
f 11/11/11 12/12/12 24/24/24 23/23/23
f 12/12/12 13/13/13 25/25/25 24/24/24
f 13/13/13 3/3/3 15/15/15 25/25/25
f 15/15/15 14/14/14 26/27/26
f 16/16/16 26/27/26 14/14/14
f 16/16/16 17/17/17 27/29/27
f 18/18/18 27/29/27 17/17/17
f 18/18/18 19/19/19 28/31/28
f 19/19/19 29/33/29 28/31/28
f 20/20/20 21/21/21 29/33/29
f 22/22/22 23/23/23 30/35/30
f 23/23/23 31/37/31 30/35/30
f 15/15/15 31/37/31 25/25/25
f 30/35/30 21/21/21 22/22/22
f 25/25/25 31/37/31 24/24/24
f 28/30/32 29/32/33 27/28/34
f 29/32/33 30/34/35 27/28/34
f 30/34/35 31/36/36 27/28/34
f 26/26/37 27/28/34 31/36/36
f 33/39/38 32/38/39 44/52/40 49/58/41
f 32/38/39 37/44/42 45/53/43 44/52/40
f 35/42/44 34/41/45 42/50/46 41/48/47
f 34/40/45 33/39/38 43/51/48 42/49/46
f 37/44/42 36/43/49 57/66/50 56/65/51
f 36/43/49 35/42/44 58/67/52 57/66/50
f 39/46/53 38/45/54 50/59/55 55/64/56
f 38/45/54 43/51/48 51/60/57 50/59/55
f 41/48/47 40/47/58 61/70/59 60/69/60
f 40/47/58 39/46/53 59/68/61 61/70/59
f 47/56/62 46/55/63 62/72/64 64/74/65
f 46/54/63 45/53/43 63/73/66 62/71/64
f 49/58/41 48/57/67 52/61/68 51/60/57
f 48/57/67 47/56/62 53/62/69 52/61/68
f 55/64/56 54/63/70 65/75/71 67/77/72
f 54/63/70 53/62/69 66/76/73 65/75/71
f 35/42/44 41/48/47 60/69/60 58/67/52
f 47/56/62 64/74/65 66/76/73 53/62/69
f 39/46/53 55/64/56 67/77/72 59/68/61
f 45/53/43 37/44/42 56/65/51 63/73/66
f 36/43/49 37/44/42 32/38/39 68/79/74
f 32/38/39 33/39/38 34/40/45 68/78/74
f 34/41/45 35/42/44 36/43/49 68/79/74
f 42/49/46 43/51/48 38/45/54 69/80/75
f 38/45/54 39/46/53 40/47/58 69/81/75
f 40/47/58 41/48/47 42/50/46 69/81/75
f 48/57/67 49/58/41 44/52/40 70/83/76
f 44/52/40 45/53/43 46/54/63 70/82/76
f 46/55/63 47/56/62 48/57/67 70/83/76
f 54/63/70 55/64/56 50/59/55 71/84/77
f 50/59/55 51/60/57 52/61/68 71/84/77
f 52/61/68 53/62/69 54/63/70 71/84/77
f 65/75/71 66/76/73 72/85/78 73/86/79
f 66/76/73 64/74/65 74/87/80 72/85/78
f 64/74/65 62/72/64 75/88/81 74/87/80
f 62/72/64 63/73/66 76/89/82 75/88/81
f 63/73/66 56/65/51 77/90/83 76/89/82
f 56/65/51 57/66/50 78/91/84 77/90/83
f 57/66/50 58/67/52 79/92/85 78/91/84
f 58/67/52 60/69/60 80/93/86 79/92/85
f 60/69/60 61/70/59 81/94/87 80/93/86
f 61/70/59 59/68/61 82/95/88 81/94/87
f 59/68/61 67/77/72 83/96/89 82/95/88
f 67/77/72 65/75/71 73/86/79 83/96/89
f 49/58/41 51/60/57 43/51/48 33/39/38
f 16/16/16 27/29/27 26/27/26
f 18/18/18 28/31/28 27/29/27
f 19/19/19 20/20/20 29/33/29
f 23/23/23 24/24/24 31/37/31
f 15/15/15 26/27/26 31/37/31
f 30/35/30 29/33/29 21/21/21
