# Blender 3.3.1
# www.blender.org
mtllib box_003.mtl
o box_003
v -0.356571 0.000000 0.002986
v 0.356557 -0.000000 0.003089
v -0.356541 0.000000 0.114135
v 0.356542 -0.000000 0.114245
v -0.356541 0.028673 0.114135
v 0.356542 0.028673 0.114245
v -0.356571 0.028673 0.002986
v 0.356557 0.028673 0.003089
v -0.243936 0.071912 -0.157307
v -0.232396 0.104582 -0.028274
v -0.315531 0.173025 -0.107346
v -0.131796 0.129234 -0.112653
v -0.203391 0.230370 -0.062761
v -0.214976 0.197676 -0.191716
v -0.288462 0.144444 0.024714
v -0.166665 0.138746 0.079219
v -0.202039 0.244546 0.005730
v -0.111884 0.157838 -0.041096
v -0.233696 0.163513 -0.095687
v -0.190797 0.179067 -0.066207
v -0.105518 0.076300 -0.062142
v -0.059163 0.201582 -0.063825
v -0.175446 0.100699 -0.173317
v -0.043794 0.123192 -0.170877
v -0.129092 0.225959 -0.175015
v 0.175441 0.170589 0.048897
v 0.067690 0.091762 0.044120
v 0.163030 0.080274 -0.048685
v 0.056509 0.221984 0.016602
v 0.044078 0.131692 -0.081107
v 0.151817 0.210519 -0.076291
v 0.146376 0.193081 -0.030971
v 0.133877 0.161330 -0.160168
v 0.237429 0.235149 -0.119227
v 0.256862 0.109177 -0.159210
v 0.269381 0.140951 -0.030095
v -0.284313 0.131417 0.041213
v -0.252927 0.235470 0.118856
v -0.164204 0.188831 0.030553
v -0.264165 0.113450 0.172068
v -0.144023 0.170865 0.161441
v -0.175426 0.066788 0.083711
v -0.055226 0.217550 0.055953
v 0.043449 0.217688 0.145974
v 0.053156 0.141939 0.036375
v -0.073598 0.160342 0.175207
v 0.034756 0.084732 0.155724
v -0.063919 0.084594 0.065619
v -0.004622 0.170589 0.042114
v -0.112370 0.091762 0.037254
v -0.017087 0.080274 -0.055585
v -0.123582 0.221984 0.009704
v -0.136017 0.131692 -0.087964
v -0.028248 0.210519 -0.083199
v -0.220413 0.153128 0.072872
v -0.123346 0.243351 0.055874
v -0.123113 0.130705 -0.015951
v -0.128924 0.171577 0.168395
v -0.031673 0.149130 0.079663
v 0.128397 0.243902 0.118240
v 0.175433 0.133484 0.176817
v 0.195241 0.153381 0.046231
v 0.043900 0.148901 0.159258
v 0.063748 0.168774 0.028580
v 0.028338 0.128637 -0.023277
v -0.089310 0.105547 -0.082098
v 0.024089 0.071521 -0.143889
v -0.044597 0.230760 -0.068969
v -0.048887 0.173645 -0.189613
v 0.068785 0.196712 -0.130775
v 0.271931 0.170589 0.178374
v 0.164182 0.091762 0.173515
v 0.259489 0.080274 0.080692
v 0.152958 0.221984 0.145991
v 0.140498 0.131692 0.048292
v 0.248276 0.210519 0.053072
v 0.273782 0.006387 0.220128
v 0.348748 0.006387 0.220190
v 0.273782 0.321236 0.220128
v 0.348748 0.321236 0.220190
v 0.273797 0.321236 0.145254
v 0.348756 0.321236 0.145231
v 0.273797 0.006387 0.145254
v 0.348756 0.006387 0.145231
v -0.348800 0.006387 0.220100
v -0.273842 0.006387 0.220077
v -0.348800 0.321236 0.220100
v -0.273842 0.321236 0.220077
v -0.348800 0.321236 0.145140
v -0.273866 0.321236 0.145114
v -0.348800 0.006387 0.145140
v -0.273866 0.006387 0.145114
v -0.348738 0.006387 -0.142466
v -0.273811 0.006387 -0.142395
v -0.348738 0.321236 -0.142466
v -0.273811 0.321236 -0.142395
v -0.348759 0.321236 -0.217330
v -0.273819 0.321236 -0.217356
v -0.348759 0.006387 -0.217330
v -0.273819 0.006387 -0.217356
v 0.273804 0.006387 -0.142345
v 0.348774 0.006387 -0.142380
v 0.273804 0.321236 -0.142345
v 0.348774 0.321236 -0.142380
v 0.273859 0.321236 -0.217311
v 0.348710 0.321236 -0.217334
v 0.273859 0.006387 -0.217311
v 0.348710 0.006387 -0.217334
v 0.287494 0.025249 -0.181168
v 0.287494 0.144306 -0.181168
v -0.292134 0.025249 -0.181170
v -0.292134 0.144306 -0.181170
v -0.318351 0.025249 -0.203842
v -0.318351 0.144306 -0.203842
v 0.313663 0.025249 -0.203779
v 0.313663 0.144306 -0.203779
v 0.313663 0.025249 0.205199
v 0.313663 0.144306 0.205199
v -0.318373 0.025249 0.205119
v -0.318373 0.144306 0.205119
v -0.292211 0.025249 0.182494
v -0.292211 0.144306 0.182494
v 0.287399 0.025249 0.182507
v 0.287399 0.144306 0.182507
v 0.287494 0.167395 -0.181168
v 0.287494 0.286452 -0.181168
v -0.292134 0.167395 -0.181170
v -0.292134 0.286452 -0.181170
v -0.318351 0.167395 -0.203842
v -0.318351 0.286452 -0.203842
v 0.313663 0.167395 -0.203779
v 0.313663 0.286452 -0.203779
v 0.313663 0.167395 0.205199
v 0.313663 0.286452 0.205199
v -0.318373 0.167395 0.205119
v -0.318373 0.286452 0.205119
v -0.292211 0.167395 0.182494
v -0.292211 0.286452 0.182494
v 0.287399 0.167395 0.182507
v 0.287399 0.286452 0.182507
v -0.356500 0.000000 -0.231378
v 0.356538 -0.000000 -0.231399
v -0.356513 0.000000 -0.120305
v 0.356566 -0.000000 -0.120223
v -0.356513 0.028673 -0.120305
v 0.356566 0.028673 -0.120223
v -0.356500 0.028673 -0.231378
v 0.356538 0.028673 -0.231399
v -0.356522 0.000000 -0.114236
v 0.356583 -0.000000 -0.114151
v -0.356537 0.000000 -0.003079
v 0.356570 -0.000000 -0.003008
v -0.356537 0.028673 -0.003079
v 0.356570 0.028673 -0.003008
v -0.356522 0.028673 -0.114236
v 0.356583 0.028673 -0.114151
v -0.356544 0.000000 0.120233
v 0.356500 -0.000000 0.120310
v -0.356585 0.000000 0.231386
v 0.356541 -0.000000 0.231376
v -0.356585 0.028673 0.231386
v 0.356541 0.028673 0.231376
v -0.356544 0.028673 0.120233
v 0.356500 0.028673 0.120310
v -0.036029 0.161491 0.098640
v -0.028258 0.214379 -0.023792
v -0.032511 0.081745 -0.008422
v 0.076841 0.220537 0.058432
v 0.080421 0.140790 -0.048622
v 0.072648 0.087879 0.073740
v 0.264903 0.170589 0.080854
v 0.157134 0.091762 0.076075
v 0.252459 0.080274 -0.016829
v 0.145937 0.221984 0.048555
v 0.133468 0.131692 -0.049131
v 0.241256 0.210519 -0.044364
v 0.016889 0.115334 -0.059643
v 0.035952 0.146052 -0.188166
v 0.120834 0.063870 -0.125843
v 0.055970 0.238411 -0.093776
v 0.159960 0.186947 -0.160054
v 0.140867 0.156230 -0.031438
vn -0.0002 -0.0000 1.0000
vn -0.0000 1.0000 -0.0000
vn 1.0000 -0.0000 0.0001
vn -1.0000 -0.0000 0.0003
vn 0.0001 -0.0000 -1.0000
vn -0.7869 0.6112 -0.0844
vn 0.0862 0.2449 0.9657
vn 0.2146 0.8389 0.5003
vn 0.9720 0.1920 -0.1354
vn 0.0922 0.4928 -0.8652
vn -0.0862 -0.2444 -0.9658
vn -0.6749 0.6492 0.3508
vn 0.2368 0.6064 0.7591
vn -0.0198 0.9888 0.1477
vn 0.6470 0.7492 -0.1418
vn -0.2650 0.7920 -0.5501
vn -0.5557 0.6672 0.4960
vn -0.0218 0.0215 0.9995
vn 0.2848 0.8109 0.5111
vn 0.4623 0.3510 -0.8143
vn -0.1247 0.7920 -0.5976
vn -0.5233 0.1824 -0.8324
vn -0.5638 0.7500 0.3459
vn -0.7137 0.0856 0.6952
vn 0.5937 0.6015 0.5345
vn -0.6648 0.2296 -0.7109
vn 0.7136 -0.0859 -0.6953
vn 0.4452 0.6286 -0.6376
vn 0.3791 0.8894 -0.2554
vn -0.2389 0.7053 -0.6674
vn -0.1455 0.9430 0.2994
vn 0.6816 0.3148 -0.6606
vn 0.7752 0.5526 0.3061
vn -0.8153 0.4836 -0.3185
vn -0.4103 0.8928 0.1857
vn 0.5789 0.6931 -0.4295
vn -0.6643 0.3493 0.6608
vn 0.7074 0.5787 0.4058
vn 0.9712 -0.1644 -0.1723
vn -0.4764 0.7031 -0.5279
vn 0.5682 0.7045 0.4253
vn 0.6346 0.3363 -0.6959
vn -0.5793 0.5125 0.6339
vn 0.7384 0.0012 0.6743
vn -0.7386 -0.0007 -0.6742
vn -0.5640 0.7500 0.3456
vn -0.7138 0.0856 0.6951
vn 0.5933 0.6017 0.5348
vn -0.6650 0.2294 -0.7108
vn 0.7135 -0.0863 -0.6953
vn 0.4453 0.6285 -0.6378
vn -0.6865 0.7051 -0.1777
vn 0.0284 0.9761 -0.2155
vn 0.0419 0.5372 -0.8424
vn -0.0015 0.8431 0.5377
vn 0.7268 0.6751 -0.1267
vn 0.0933 0.9820 0.1640
vn 0.4842 0.5620 0.6706
vn 0.6323 0.7113 -0.3072
vn -0.5005 0.6778 0.5386
vn -0.3519 0.8267 -0.4390
vn -0.3635 0.8429 0.3968
vn -0.8490 0.2546 0.4630
vn 0.5125 0.1838 0.8388
vn -0.2273 0.6151 -0.7550
vn 0.8490 -0.2546 -0.4629
vn 0.8371 0.4825 -0.2578
vn -0.5639 0.7499 0.3458
vn -0.7137 0.0854 0.6953
vn 0.5933 0.6017 0.5347
vn -0.6651 0.2295 -0.7107
vn 0.7136 -0.0860 -0.6953
vn 0.4452 0.6285 -0.6378
vn -0.0008 -0.0000 1.0000
vn -0.0003 -0.0000 -1.0000
vn -1.0000 -0.0000 -0.0002
vn 0.0003 -0.0000 1.0000
vn 1.0000 -0.0000 -0.0003
vn -1.0000 -0.0000 -0.0000
vn -0.0009 -0.0000 1.0000
vn 1.0000 -0.0000 -0.0001
vn 0.0005 -0.0000 1.0000
vn 1.0000 -0.0000 -0.0009
vn -1.0000 -0.0000 -0.0007
vn -0.0000 -0.0000 1.0000
vn -0.0001 -0.0000 1.0000
vn -0.0000 -0.0000 -1.0000
vn -1.0000 -0.0000 -0.0003
vn 1.0000 -0.0000 -0.0000
vn -1.0000 -0.0000 -0.0001
vn 1.0000 -0.0000 0.0002
vn 1.0000 -0.0000 -0.0004
vn -1.0000 -0.0000 -0.0004
vn -0.5441 0.5226 0.6565
vn -0.5339 0.6694 -0.5165
vn -0.7869 -0.0461 -0.6154
vn 0.5786 0.7347 0.3541
vn 0.5714 0.3240 -0.7540
vn 0.7868 0.0462 0.6155
vn -0.5638 0.7500 0.3460
vn -0.7135 0.0856 0.6954
vn 0.5936 0.6016 0.5345
vn -0.6651 0.2298 -0.7105
vn 0.7132 -0.0857 -0.6957
vn 0.4451 0.6287 -0.6377
vn -0.3434 0.9237 0.1698
vn -0.3778 0.3438 -0.8597
vn -0.7785 0.3847 0.4960
vn 0.7782 -0.3852 -0.4959
vn 0.7573 0.3790 -0.5318
vn 0.6273 0.4414 0.6416
vn -0.0000 -1.0000 -0.0000
vt 0.832360 0.222814
vt 0.832368 0.222814
vt 0.832360 0.223700
vt 0.832368 0.223700
vt 0.832360 0.224586
vt 0.832353 0.223700
vt 0.832368 0.224586
vt 0.832376 0.223700
vt 0.832357 0.224143
vt 0.832372 0.224143
vt 0.746809 0.331189
vt 0.746809 0.333547
vt 0.746809 0.333547
vt 0.746809 0.332761
vt 0.746809 0.331975
vt 0.746809 0.333547
vt 0.746809 0.332761
vt 0.746809 0.331975
vt 0.746809 0.332761
vt 0.746809 0.331975
vt 0.746809 0.333941
vt 0.746809 0.331189
vt 0.746809 0.333547
vt 0.746809 0.333547
vt 0.746809 0.332761
vt 0.746809 0.331975
vt 0.746809 0.332761
vt 0.746809 0.331975
vt 0.746809 0.333941
vt 0.746809 0.331189
vt 0.746809 0.333547
vt 0.746809 0.333547
vt 0.746809 0.332761
vt 0.746809 0.331975
vt 0.746809 0.332761
vt 0.746809 0.331975
vt 0.746809 0.332761
vt 0.746809 0.331975
vt 0.746809 0.333941
vt 0.746809 0.331189
vt 0.746809 0.333547
vt 0.746809 0.332761
vt 0.746809 0.331975
vt 0.746809 0.333547
vt 0.746809 0.332761
vt 0.746809 0.331975
vt 0.746809 0.332761
vt 0.746809 0.331975
vt 0.746809 0.333941
vt 0.746809 0.331189
vt 0.746809 0.333547
vt 0.746809 0.333547
vt 0.746809 0.332761
vt 0.746809 0.331975
vt 0.746809 0.332761
vt 0.746809 0.331975
vt 0.746809 0.333941
vt 0.746809 0.333547
vt 0.746809 0.333547
vt 0.746809 0.332761
vt 0.746809 0.333547
vt 0.746809 0.332761
vt 0.746809 0.331975
vt 0.746809 0.333941
vt 0.746809 0.331189
vt 0.746809 0.333547
vt 0.746809 0.333547
vt 0.746809 0.331975
vt 0.746809 0.333547
vt 0.746809 0.331975
vt 0.746809 0.332761
vt 0.746809 0.331975
vt 0.746809 0.333941
vt 0.746809 0.331189
vt 0.746809 0.333547
vt 0.746809 0.332761
vt 0.746809 0.331975
vt 0.746809 0.333547
vt 0.746809 0.332761
vt 0.746809 0.331975
vt 0.746809 0.332761
vt 0.746809 0.331975
vt 0.746809 0.333941
vt 0.746809 0.333547
vt 0.746809 0.333547
vt 0.746809 0.333547
vt 0.746809 0.332761
vt 0.746809 0.333941
vt 0.746809 0.331189
vt 0.746809 0.333547
vt 0.746809 0.333547
vt 0.746809 0.331975
vt 0.746809 0.333547
vt 0.746809 0.331975
vt 0.746809 0.331975
vt 0.746809 0.333941
vt 0.746809 0.331189
vt 0.746809 0.333547
vt 0.746809 0.332761
vt 0.746809 0.331975
vt 0.746809 0.333547
vt 0.746809 0.332761
vt 0.746809 0.331975
vt 0.746809 0.332761
vt 0.746809 0.331975
vt 0.746809 0.333941
vt 0.746809 0.331189
vt 0.746809 0.333547
vt 0.746809 0.332761
vt 0.746809 0.331975
vt 0.746809 0.333547
vt 0.746809 0.332761
vt 0.746809 0.331975
vt 0.746809 0.332761
vt 0.746809 0.331975
vt 0.832348 0.266120
vt 0.832357 0.266120
vt 0.832348 0.267147
vt 0.832355 0.365833
vt 0.832357 0.267147
vt 0.832238 0.365833
vt 0.832348 0.268174
vt 0.832340 0.267147
vt 0.832355 0.352194
vt 0.832357 0.268174
vt 0.832366 0.267147
vt 0.832238 0.352194
vt 0.832348 0.269200
vt 0.832340 0.266120
vt 0.832357 0.269200
vt 0.832366 0.266120
vt 0.832348 0.266120
vt 0.832357 0.266120
vt 0.832348 0.267147
vt 0.832355 0.365833
vt 0.832357 0.267147
vt 0.832238 0.365833
vt 0.832348 0.268174
vt 0.832340 0.267147
vt 0.832355 0.352194
vt 0.832357 0.268174
vt 0.832366 0.267147
vt 0.832238 0.352194
vt 0.832348 0.269200
vt 0.832340 0.266120
vt 0.832357 0.269200
vt 0.832366 0.266120
vt 0.832348 0.266120
vt 0.832357 0.266120
vt 0.832348 0.267147
vt 0.832355 0.365833
vt 0.832357 0.267147
vt 0.832238 0.365833
vt 0.832348 0.268174
vt 0.832340 0.267147
vt 0.832355 0.352194
vt 0.832357 0.268174
vt 0.832366 0.267147
vt 0.832238 0.352194
vt 0.832348 0.269200
vt 0.832340 0.266120
vt 0.832357 0.269200
vt 0.832366 0.266120
vt 0.832348 0.266120
vt 0.832357 0.266120
vt 0.832348 0.267147
vt 0.832355 0.365833
vt 0.832357 0.267147
vt 0.832238 0.365833
vt 0.832348 0.268174
vt 0.832340 0.267147
vt 0.832355 0.352194
vt 0.832357 0.268174
vt 0.832366 0.267147
vt 0.832238 0.352194
vt 0.832348 0.269200
vt 0.832340 0.266120
vt 0.832357 0.269200
vt 0.832366 0.266120
vt 0.832348 0.266120
vt 0.832357 0.266120
vt 0.832348 0.267147
vt 0.832357 0.267147
vt 0.832348 0.268174
vt 0.832366 0.267147
vt 0.832357 0.268174
vt 0.832348 0.269200
vt 0.832357 0.269200
vt 0.832366 0.266120
vt 0.832348 0.266120
vt 0.832357 0.266120
vt 0.832348 0.267147
vt 0.832357 0.267147
vt 0.832348 0.268174
vt 0.832366 0.267147
vt 0.832357 0.268174
vt 0.832348 0.269200
vt 0.832357 0.269200
vt 0.832366 0.266120
vt 0.832348 0.266120
vt 0.832357 0.266120
vt 0.832348 0.267147
vt 0.832357 0.267147
vt 0.832348 0.268174
vt 0.832366 0.267147
vt 0.832357 0.268174
vt 0.832348 0.269200
vt 0.832357 0.269200
vt 0.832366 0.266120
vt 0.832348 0.266120
vt 0.832357 0.266120
vt 0.832348 0.267147
vt 0.832357 0.267147
vt 0.832348 0.268174
vt 0.832366 0.267147
vt 0.832357 0.268174
vt 0.832348 0.269200
vt 0.832357 0.269200
vt 0.832366 0.266120
vt 0.832360 0.222814
vt 0.832368 0.222814
vt 0.832360 0.223700
vt 0.832368 0.223700
vt 0.832360 0.224586
vt 0.832353 0.223700
vt 0.832368 0.224586
vt 0.832376 0.223700
vt 0.832357 0.224143
vt 0.832372 0.224143
vt 0.832360 0.222814
vt 0.832368 0.222814
vt 0.832360 0.223700
vt 0.832368 0.223700
vt 0.832360 0.224586
vt 0.832353 0.223700
vt 0.832368 0.224586
vt 0.832376 0.223700
vt 0.832357 0.224143
vt 0.832372 0.224143
vt 0.832360 0.222814
vt 0.832368 0.222814
vt 0.832360 0.223700
vt 0.832368 0.223700
vt 0.832360 0.224586
vt 0.832353 0.223700
vt 0.832368 0.224586
vt 0.832376 0.223700
vt 0.832357 0.224143
vt 0.832372 0.224143
vt 0.746809 0.333941
vt 0.746809 0.331189
vt 0.746809 0.333547
vt 0.746809 0.333547
vt 0.746809 0.333547
vt 0.746809 0.332761
vt 0.746809 0.331975
vt 0.746809 0.332761
vt 0.746809 0.331975
vt 0.746809 0.333941
vt 0.746809 0.331189
vt 0.746809 0.333547
vt 0.746809 0.332761
vt 0.746809 0.331975
vt 0.746809 0.333547
vt 0.746809 0.332761
vt 0.746809 0.331975
vt 0.746809 0.332761
vt 0.746809 0.331975
vt 0.746809 0.333941
vt 0.746809 0.331189
vt 0.746809 0.333547
vt 0.746809 0.333547
vt 0.746809 0.332761
vt 0.746809 0.333547
vt 0.746809 0.332761
vt 0.746809 0.331975
vt 0.746809 0.332761
vt 0.746809 0.331975
s 1
usemtl Material
f 3/3/1 4/4/1 6/7/1 5/5/1
f 5/5/2 6/7/2 8/10/2 7/9/2
f 2/2/3 8/10/3 6/8/3 4/4/3
f 7/9/4 1/1/4 3/3/4 5/6/4
f 1/1/5 7/9/5 8/10/5 2/2/5
f 11/13/6 10/12/7 13/19/8
f 13/19/8 10/12/7 12/16/9
f 11/14/6 13/19/8 14/20/10
f 14/20/10 13/19/8 12/17/9
f 11/15/6 14/20/10 9/11/11
f 9/11/11 14/20/10 12/18/9
f 15/21/12 16/23/13 17/24/14
f 17/24/14 16/23/13 18/27/15
f 17/25/14 18/27/15 19/28/16
f 17/26/14 19/28/16 15/22/12
f 20/29/17 21/31/18 22/32/19
f 22/33/19 24/37/20 25/38/21
f 25/38/21 24/37/20 23/35/22
f 22/34/19 25/38/21 20/30/17
f 20/30/17 25/38/21 23/36/22
f 29/44/23 27/41/24 26/39/25
f 30/47/26 27/41/24 29/44/23
f 28/42/27 30/47/26 31/48/28
f 31/48/28 30/47/26 29/45/23
f 28/43/27 31/48/28 26/40/25
f 26/40/25 31/48/28 29/46/23
f 34/52/29 33/51/30 32/49/31
f 35/55/32 33/51/30 34/52/29
f 36/56/33 35/55/32 34/53/29
f 32/50/31 36/56/33 34/54/29
f 37/57/34 38/58/35 39/59/36
f 40/61/37 38/58/35 37/57/34
f 39/59/36 38/58/35 41/62/38
f 41/62/38 38/58/35 40/61/37
f 39/60/36 41/62/38 42/63/39
f 43/64/40 44/66/41 45/67/42
f 46/69/43 44/66/41 43/64/40
f 45/67/42 44/66/41 47/71/44
f 47/71/44 44/66/41 46/69/43
f 45/68/42 48/72/45 43/65/40
f 43/65/40 48/72/45 46/70/43
f 52/78/46 50/75/47 49/73/48
f 53/81/49 50/75/47 52/78/46
f 51/76/50 53/81/49 54/82/51
f 54/82/51 53/81/49 52/79/46
f 51/77/50 54/82/51 49/74/48
f 49/74/48 54/82/51 52/80/46
f 55/83/52 56/84/53 57/85/54
f 58/86/55 56/84/53 55/83/52
f 57/85/54 56/84/53 59/87/56
f 59/87/56 56/84/53 58/86/55
f 60/88/57 61/90/58 62/91/59
f 63/93/60 61/90/58 60/88/57
f 62/92/59 64/95/61 60/89/57
f 60/89/57 64/95/61 63/94/60
f 68/101/62 66/98/63 65/96/64
f 69/104/65 66/98/63 68/101/62
f 67/99/66 69/104/65 70/105/67
f 70/105/67 69/104/65 68/102/62
f 67/100/66 70/105/67 65/97/64
f 65/97/64 70/105/67 68/103/62
f 74/111/68 72/108/69 71/106/70
f 75/114/71 72/108/69 74/111/68
f 73/109/72 75/114/71 76/115/73
f 76/115/73 75/114/71 74/112/68
f 73/110/72 76/115/73 71/107/70
f 71/107/70 76/115/73 74/113/68
f 77/116/74 78/117/74 80/120/74 79/118/74
f 81/122/75 82/125/75 84/130/75 83/128/75
f 78/117/3 84/131/3 82/126/3 80/120/3
f 83/129/76 77/116/76 79/118/76 81/123/76
f 80/121/2 82/127/2 81/124/2 79/119/2
f 85/132/77 86/133/77 88/136/77 87/134/77
f 89/138/75 90/141/75 92/146/75 91/144/75
f 86/133/78 92/147/78 90/142/78 88/136/78
f 91/145/79 85/132/79 87/134/79 89/139/79
f 88/137/2 90/143/2 89/140/2 87/135/2
f 93/148/80 94/149/80 96/152/80 95/150/80
f 97/154/75 98/157/75 100/162/75 99/160/75
f 94/149/81 100/163/81 98/158/81 96/152/81
f 99/161/4 93/148/4 95/150/4 97/155/4
f 96/153/2 98/159/2 97/156/2 95/151/2
f 101/164/82 102/165/82 104/168/82 103/166/82
f 105/170/75 106/173/75 108/178/75 107/176/75
f 102/165/83 108/179/83 106/174/83 104/168/83
f 107/177/84 101/164/84 103/166/84 105/171/84
f 104/169/2 106/175/2 105/172/2 103/167/2
f 109/180/85 110/181/85 112/183/85 111/182/85
f 113/184/5 114/186/5 116/188/5 115/187/5
f 110/181/2 116/189/2 114/185/2 112/183/2
f 117/190/86 118/191/86 120/193/86 119/192/86
f 121/194/87 122/196/87 124/198/87 123/197/87
f 118/191/2 124/199/2 122/195/2 120/193/2
f 110/181/88 109/180/88 123/197/88 124/198/88
f 115/187/89 116/188/89 118/191/89 117/190/89
f 116/189/2 110/181/2 124/199/2 118/191/2
f 112/183/2 114/185/2 120/193/2 122/195/2
f 114/186/90 113/184/90 119/192/90 120/193/90
f 111/182/91 112/183/91 122/196/91 121/194/91
f 125/200/85 126/201/85 128/203/85 127/202/85
f 129/204/5 130/206/5 132/208/5 131/207/5
f 126/201/2 132/209/2 130/205/2 128/203/2
f 133/210/86 134/211/86 136/213/86 135/212/86
f 137/214/87 138/216/87 140/218/87 139/217/87
f 134/211/2 140/219/2 138/215/2 136/213/2
f 126/201/88 125/200/88 139/217/88 140/218/88
f 131/207/89 132/208/89 134/211/89 133/210/89
f 132/209/2 126/201/2 140/219/2 134/211/2
f 128/203/2 130/205/2 136/213/2 138/215/2
f 130/206/90 129/204/90 135/212/90 136/213/90
f 127/202/91 128/203/91 138/216/91 137/214/91
f 143/222/86 144/223/86 146/226/86 145/224/86
f 145/224/2 146/226/2 148/229/2 147/228/2
f 142/221/78 148/229/78 146/227/78 144/223/78
f 147/228/90 141/220/90 143/222/90 145/225/90
f 141/220/87 147/228/87 148/229/87 142/221/87
f 151/232/86 152/233/86 154/236/86 153/234/86
f 153/234/2 154/236/2 156/239/2 155/238/2
f 150/231/3 156/239/3 154/237/3 152/233/3
f 155/238/90 149/230/90 151/232/90 153/235/90
f 149/230/5 155/238/5 156/239/5 150/231/5
f 159/242/85 160/243/85 162/246/85 161/244/85
f 161/244/2 162/246/2 164/249/2 163/248/2
f 158/241/92 164/249/92 162/247/92 160/243/92
f 163/248/93 157/240/93 159/242/93 161/245/93
f 157/240/5 163/248/5 164/249/5 158/241/5
f 165/250/94 166/252/95 167/253/96
f 168/254/97 166/252/95 165/250/94
f 167/253/96 166/252/95 169/257/98
f 169/257/98 166/252/95 168/254/97
f 170/258/99 169/257/98 168/255/97
f 165/251/94 170/258/99 168/256/97
f 174/264/100 172/261/101 171/259/102
f 175/267/103 172/261/101 174/264/100
f 173/262/104 175/267/103 176/268/105
f 176/268/105 175/267/103 174/265/100
f 173/263/104 176/268/105 171/260/102
f 171/260/102 176/268/105 174/266/100
f 180/274/106 178/271/107 177/269/108
f 179/272/109 178/271/107 181/277/110
f 181/277/110 178/271/107 180/274/106
f 179/273/109 181/277/110 182/278/111
f 182/278/111 181/277/110 180/275/106
f 177/270/108 182/278/111 180/276/106
f 159/242/112 157/240/112 158/241/112 160/243/112
f 3/3/112 1/1/112 2/2/112 4/4/112
f 151/232/112 149/230/112 150/231/112 152/233/112
f 143/222/112 141/220/112 142/221/112 144/223/112
