# Blender 3.3.1
# www.blender.org
mtllib box_001.mtl
o box_001
v -0.201421 0.520402 0.216439
v 0.183091 0.520402 0.218635
v -0.198915 0.520402 -0.220016
v 0.185592 0.520402 -0.217834
v 0.086961 0.520402 0.218082
v -0.009166 0.520402 0.217530
v -0.105282 0.520402 0.216991
v -0.102781 0.520402 -0.219450
v -0.006659 0.520402 -0.218925
v 0.089453 0.520402 -0.218372
v 0.267731 0.000000 0.270811
v 0.270821 0.000000 -0.267731
v 0.267731 0.538558 0.270811
v 0.270821 0.538558 -0.267731
v -0.270823 0.538558 0.267731
v -0.267730 0.538558 -0.270811
v -0.270823 0.000000 0.267731
v -0.267730 0.000000 -0.270811
v 0.268189 0.461378 0.191179
v 0.270379 0.461378 -0.189688
v -0.268176 0.461378 -0.192781
v -0.270359 0.461378 0.188086
v 0.268189 0.078843 0.191179
v 0.270379 0.078843 -0.189688
v -0.268176 0.078843 -0.192781
v -0.270359 0.078843 0.188086
v -0.188861 0.538558 0.188555
v -0.186678 0.538558 -0.192298
v -0.186232 0.461378 -0.270355
v -0.186232 0.078843 -0.270355
v -0.189317 0.078843 0.268201
v -0.189317 0.461378 0.268201
v 0.182548 0.538558 0.190682
v 0.184734 0.538558 -0.190185
v 0.185181 0.461378 -0.268228
v 0.185181 0.078843 -0.268228
v 0.182091 0.078843 0.270341
v 0.182091 0.461378 0.270341
v -0.001237 0.317227 -0.000483
v 0.248362 0.496549 -0.191165
v 0.246156 0.496545 0.193334
v 0.248362 0.060095 -0.191165
v 0.246156 0.060082 0.193334
v 0.246708 0.496549 0.097199
v 0.247256 0.496549 0.001077
v 0.247809 0.496549 -0.095044
v 0.247809 0.060095 -0.095044
v 0.247256 0.060087 0.001077
v 0.246708 0.060078 0.097199
v 0.225684 0.086057 0.249612
v 0.225676 0.470574 0.249639
v -0.210768 0.086057 0.247126
v -0.210772 0.470574 0.247126
v 0.225684 0.374442 0.249612
v 0.225684 0.278314 0.249612
v 0.225684 0.182194 0.249612
v -0.210768 0.182194 0.247126
v -0.210772 0.278314 0.247126
v -0.210781 0.374434 0.247126
v -0.240095 0.496549 0.198775
v -0.237885 0.496545 -0.185724
v -0.240095 0.060095 0.198775
v -0.237885 0.060082 -0.185724
v -0.238433 0.496549 -0.089603
v -0.238994 0.496549 0.006532
v -0.239547 0.496549 0.102640
v -0.239547 0.060095 0.102640
v -0.238994 0.060087 0.006532
v -0.238433 0.060078 -0.089603
v 0.221424 0.470578 -0.251683
v 0.221424 0.086061 -0.251683
v -0.215019 0.470579 -0.254169
v -0.215029 0.086061 -0.254197
v 0.221424 0.182194 -0.251683
v 0.221424 0.278322 -0.251683
v 0.221424 0.374442 -0.251683
v -0.215019 0.374442 -0.254169
v -0.215029 0.278322 -0.254197
v -0.215037 0.182202 -0.254197
v 0.186233 0.000000 0.188375
v 0.188383 0.000000 -0.186233
v -0.188384 0.000000 0.186233
v -0.186232 0.000000 -0.188375
v 0.000000 0.317227 0.000000
v -0.193482 0.017405 -0.217150
v 0.191017 0.019611 -0.217146
v -0.193482 0.017405 0.219304
v 0.191017 0.019611 0.219316
v 0.094882 0.019059 -0.217150
v -0.001240 0.018510 -0.217150
v -0.097361 0.017958 -0.217150
v -0.097361 0.017958 0.219304
v -0.001240 0.018510 0.219312
v 0.094882 0.019059 0.219321
vn -0.0000 1.0000 -0.0000
vn -1.0000 -0.0001 -0.0057
vn 1.0000 -0.0000 0.0057
vn 1.0000 -0.0000 0.0058
vn 0.0056 -0.0000 -1.0000
vn -1.0000 -0.0000 -0.0057
vn -1.0000 -0.0000 -0.0058
vn -0.0058 -0.0000 1.0000
vn -1.0000 0.0001 -0.0057
vn 0.0057 0.0001 -1.0000
vn 0.0057 -0.0001 -1.0000
vn -0.0057 -0.0002 1.0000
vn -0.0057 0.0002 1.0000
vn 0.0058 -0.0000 -1.0000
vn -0.0055 -0.0000 1.0000
vn 0.4703 -0.8825 0.0027
vn 0.5797 -0.0000 -0.8149
vn 0.6611 0.7503 0.0038
vn 0.5716 -0.0000 0.8205
vn -0.6646 0.7472 -0.0038
vn -0.5738 -0.0000 -0.8190
vn -0.4736 -0.8807 -0.0027
vn -0.5845 -0.0000 0.8114
vn 0.7646 0.6444 0.0044
vn 0.0043 0.6516 -0.7586
vn -0.7675 0.6411 -0.0044
vn -0.0043 0.6528 0.7575
vn -0.8207 -0.0000 -0.5714
vn 0.0038 0.7482 -0.6635
vn 0.8248 -0.0000 -0.5654
vn 0.0027 -0.8813 -0.4726
vn 0.8192 -0.0000 0.5735
vn -0.0038 0.7493 0.6622
vn -0.8281 -0.0000 0.5606
vn -0.0027 -0.8820 0.4713
vn -0.0057 -0.0000 1.0000
vn -0.0057 -0.0001 1.0000
vn 0.0057 -0.0000 -1.0000
vn -0.0000 -1.0000 -0.0000
vn -0.0049 -0.5084 0.8611
vn -0.8611 -0.5084 -0.0049
vn 0.0049 -0.5084 -0.8611
vn 0.8611 -0.5084 0.0049
vn 0.0058 -1.0000 -0.0000
vn 0.0057 -1.0000 -0.0000
vt 0.800189 0.328275
vt 0.800241 0.384364
vt 0.800189 0.318197
vt 0.800241 0.382564
vt 0.800241 0.384425
vt 0.800189 0.278634
vt 0.800189 0.215925
vt 0.800189 0.278650
vt 0.800189 0.327933
vt 0.800189 0.216267
vt 0.800189 0.317855
vt 0.800189 0.206189
vt 0.800189 0.205847
vt 0.800189 0.278187
vt 0.800241 0.382626
vt 0.800189 0.278171
vt 0.800189 0.278331
vt 0.800189 0.278463
vt 0.800189 0.278607
vt 0.800189 0.278193
vt 0.800189 0.278463
vt 0.800189 0.278883
vt 0.800189 0.278062
vt 0.800189 0.278193
vt 0.800189 0.278613
vt 0.800189 0.278337
vt 0.800189 0.278187
vt 0.800189 0.278883
vt 0.800189 0.278062
vt 0.800189 0.277918
vt 0.800189 0.278613
vt 0.800189 0.278337
vt 0.800189 0.278331
vt 0.800189 0.278187
vt 0.800189 0.278607
vt 0.800189 0.277918
vt 0.800189 0.278176
vt 0.800189 0.278423
vt 0.800189 0.278232
vt 0.800189 0.278451
vt 0.800189 0.277957
vt 0.800189 0.278147
vt 0.800189 0.278451
vt 0.800189 0.278423
vt 0.800189 0.278232
vt 0.800189 0.277957
vt 0.800189 0.278147
vt 0.800189 0.278843
vt 0.800189 0.278652
vt 0.800189 0.278457
vt 0.800189 0.278567
vt 0.800189 0.278292
vt 0.800189 0.278100
vt 0.800189 0.278732
vt 0.800189 0.278843
vt 0.800189 0.278652
vt 0.800189 0.278457
vt 0.800189 0.278567
vt 0.800189 0.278292
vt 0.800189 0.278100
vt 0.800189 0.278732
vt 0.800189 0.278317
vt 0.800189 0.278052
vt 0.800189 0.278748
vt 0.800189 0.278448
vt 0.800189 0.278172
vt 0.800189 0.278597
vt 0.800189 0.328275
vt 0.800241 0.384364
vt 0.800189 0.318197
vt 0.800241 0.382564
vt 0.800241 0.384425
vt 0.800189 0.278634
vt 0.800189 0.215925
vt 0.800189 0.278650
vt 0.800189 0.327933
vt 0.800189 0.216267
vt 0.800189 0.317855
vt 0.800189 0.206189
vt 0.800189 0.205847
vt 0.800189 0.278187
vt 0.800241 0.382626
vt 0.800189 0.278171
vt 0.800189 0.328275
vt 0.800241 0.384364
vt 0.800189 0.318197
vt 0.800241 0.382564
vt 0.800241 0.384425
vt 0.800189 0.278634
vt 0.800189 0.215925
vt 0.800189 0.278650
vt 0.800189 0.327933
vt 0.800189 0.216267
vt 0.800189 0.317855
vt 0.800189 0.206189
vt 0.800189 0.205847
vt 0.800189 0.278187
vt 0.800241 0.382626
vt 0.800189 0.278171
vt 0.800189 0.328275
vt 0.800241 0.384364
vt 0.800189 0.318197
vt 0.800241 0.382564
vt 0.800241 0.384425
vt 0.800189 0.278634
vt 0.800189 0.215925
vt 0.800189 0.278650
vt 0.800189 0.327933
vt 0.800189 0.216267
vt 0.800189 0.317855
vt 0.800189 0.206189
vt 0.800189 0.205847
vt 0.800189 0.278187
vt 0.800241 0.382626
vt 0.800189 0.278171
vt 0.800189 0.328275
vt 0.800241 0.384364
vt 0.800189 0.318197
vt 0.800241 0.382564
vt 0.800241 0.384425
vt 0.800189 0.278634
vt 0.800189 0.215925
vt 0.800189 0.278650
vt 0.800189 0.327933
vt 0.800189 0.216267
vt 0.800189 0.317855
vt 0.800189 0.206189
vt 0.800189 0.205847
vt 0.800189 0.278187
vt 0.800241 0.382626
vt 0.800189 0.278171
vt 0.800189 0.278463
vt 0.800189 0.278331
vt 0.800189 0.278607
vt 0.800189 0.278193
vt 0.800189 0.278331
vt 0.800189 0.278187
vt 0.800189 0.278607
vt 0.800189 0.277918
vt 0.800189 0.278607
vt 0.800189 0.278331
vt 0.800189 0.278187
vt 0.800189 0.328275
vt 0.800241 0.384364
vt 0.800189 0.318197
vt 0.800241 0.382564
vt 0.800241 0.384425
vt 0.800189 0.278634
vt 0.800189 0.215925
vt 0.800189 0.278650
vt 0.800189 0.327933
vt 0.800189 0.216267
vt 0.800189 0.317855
vt 0.800189 0.206189
vt 0.800189 0.205847
vt 0.800189 0.278187
vt 0.800241 0.382626
vt 0.800189 0.278171
s 1
usemtl Material
f 1/1/1 7/9/1 8/11/1 3/3/1
f 10/15/1 5/5/1 2/2/1 4/4/1
f 7/10/1 6/7/1 9/13/1 8/12/1
f 6/8/1 5/6/1 10/16/1 9/14/1
f 21/41/2 22/42/2 15/27/2 16/30/2
f 15/28/1 27/48/1 28/49/1 16/31/1
f 13/21/3 19/38/3 20/39/3 14/24/3
f 11/18/4 23/44/4 19/38/4 13/21/4
f 14/24/3 20/39/3 24/45/3 12/20/3
f 29/50/5 30/51/5 18/35/5 16/32/5
f 18/36/6 25/46/6 21/41/6 16/30/6
f 15/27/7 22/42/7 26/47/7 17/34/7
f 17/33/8 31/52/8 32/53/8 15/29/8
f 24/45/3 23/44/3 11/18/3 12/20/3
f 17/34/9 26/47/9 25/46/9 18/36/9
f 13/22/1 33/55/1 27/48/1 15/28/1
f 16/31/1 28/49/1 34/56/1 14/25/1
f 14/26/10 35/57/10 29/50/10 16/32/10
f 36/58/11 12/19/11 18/35/11 30/51/11
f 31/52/12 17/33/12 11/17/12 37/59/12
f 15/29/13 32/53/13 38/60/13 13/23/13
f 34/56/1 33/55/1 13/22/1 14/25/1
f 12/19/14 36/58/14 35/57/14 14/26/14
f 38/60/15 37/59/15 11/17/15 13/23/15
f 20/39/16 19/37/16 39/62/16
f 19/38/17 23/44/17 39/62/17
f 23/44/18 24/45/18 39/62/18
f 24/45/19 20/39/19 39/62/19
f 25/46/20 26/47/20 39/63/20
f 26/47/21 22/42/21 39/63/21
f 22/43/22 21/40/22 39/62/22
f 21/41/23 25/46/23 39/63/23
f 28/49/24 27/48/24 39/64/24
f 27/48/25 33/55/25 39/64/25
f 33/55/26 34/56/26 39/64/26
f 34/56/27 28/49/27 39/64/27
f 35/57/28 36/58/28 39/65/28
f 36/58/29 30/51/29 39/65/29
f 30/51/30 29/50/30 39/65/30
f 29/50/31 35/57/31 39/67/31
f 32/53/32 31/52/32 39/66/32
f 31/52/33 37/59/33 39/66/33
f 37/59/34 38/60/34 39/66/34
f 38/61/35 32/54/35 39/67/35
f 40/68/4 46/76/4 47/78/4 42/70/4
f 49/82/3 44/72/3 41/69/3 43/71/3
f 46/77/3 45/74/3 48/80/3 47/79/3
f 45/75/3 44/73/3 49/83/3 48/81/3
f 50/84/36 56/92/36 57/94/36 52/86/36
f 59/98/37 54/88/37 51/85/37 53/87/37
f 56/93/36 55/90/36 58/96/36 57/95/36
f 55/91/36 54/89/36 59/99/36 58/97/36
f 60/100/6 66/108/6 67/110/6 62/102/6
f 69/114/6 64/104/6 61/101/6 63/103/6
f 66/109/6 65/106/6 68/112/6 67/111/6
f 65/107/7 64/105/7 69/115/7 68/113/7
f 70/116/38 76/124/38 77/126/38 72/118/38
f 79/130/14 74/120/14 71/117/14 73/119/14
f 76/125/10 75/122/10 78/128/10 77/127/10
f 75/123/14 74/121/14 79/131/14 78/129/14
f 11/17/39 17/33/39 82/136/39 80/133/39
f 18/35/39 12/19/39 81/134/39 83/138/39
f 17/34/39 18/36/39 83/139/39 82/137/39
f 12/20/39 11/18/39 80/132/39 81/135/39
f 83/138/40 81/134/40 84/140/40
f 81/135/41 80/132/41 84/142/41
f 80/133/42 82/136/42 84/141/42
f 82/137/43 83/139/43 84/142/43
f 85/143/44 91/151/44 92/153/44 87/145/44
f 94/157/45 89/147/45 86/144/45 88/146/45
f 91/152/45 90/149/45 93/155/45 92/154/45
f 90/150/45 89/148/45 94/158/45 93/156/45
