# Blender 3.3.1
# www.blender.org
mtllib bucket_001.mtl
o bucket_001
v -0.011731 0.290537 0.183380
v 0.011738 0.290537 0.183386
v 0.011726 0.290537 -0.181126
v -0.011729 0.290537 -0.181131
v -0.012987 0.290537 0.157555
v 0.012996 0.290537 0.157557
v 0.012997 0.290537 -0.155303
v -0.012987 0.290537 -0.155303
v -0.011731 0.346332 0.183380
v 0.011738 0.346332 0.183386
v 0.012996 0.346332 0.157557
v -0.012987 0.346332 0.157555
v 0.011726 0.346332 -0.181126
v -0.011729 0.346332 -0.181131
v -0.012987 0.346332 -0.155303
v 0.012997 0.346332 -0.155303
v -0.011730 0.432472 0.133589
v 0.011725 0.432472 0.133592
v 0.013006 0.406694 0.120987
v -0.012994 0.406694 0.120992
v 0.011740 0.432472 -0.131338
v -0.011728 0.432472 -0.131345
v -0.012996 0.406694 -0.118736
v 0.012988 0.406694 -0.118735
v -0.011716 0.476429 0.049682
v 0.011739 0.476429 0.049685
v 0.013000 0.449714 0.048684
v -0.012998 0.449714 0.048682
v 0.011739 0.476429 -0.047427
v -0.011729 0.476429 -0.047433
v -0.012990 0.449714 -0.046433
v 0.012995 0.449714 -0.046436
v -0.144834 -0.000000 0.038805
v -0.106015 0.000000 0.106023
v -0.038805 0.000000 0.144823
v 0.038808 0.000000 0.144827
v 0.106018 0.000000 0.106018
v 0.144826 0.000000 0.038805
v 0.144827 -0.000000 -0.038807
v 0.106008 -0.000000 -0.106024
v 0.038811 -0.000000 -0.144823
v -0.038802 -0.000000 -0.144824
v -0.106012 -0.000000 -0.106018
v -0.144835 0.000000 -0.038804
v -0.189624 0.299869 0.050820
v -0.138820 0.299869 0.138816
v -0.050806 0.299869 0.189628
v 0.050807 0.299869 0.189631
v 0.138818 0.299869 0.138816
v 0.189633 0.299869 0.050809
v 0.189625 0.299869 -0.050805
v 0.138827 0.299869 -0.138817
v 0.050813 0.299868 -0.189627
v -0.050814 0.299868 -0.189633
v -0.138813 0.299869 -0.138814
v -0.189627 0.299868 -0.050808
v -0.151789 0.299869 0.040670
v -0.111117 0.299869 0.111115
v -0.040666 0.299869 0.151794
v 0.040682 0.299869 0.151791
v 0.111115 0.299869 0.111114
v 0.151776 0.299869 0.040667
v 0.151796 0.299868 -0.040670
v 0.111123 0.299869 -0.111114
v 0.040669 0.299868 -0.151783
v -0.040675 0.299869 -0.151793
v -0.111110 0.299868 -0.111112
v -0.151796 0.299869 -0.040675
v 0.000001 0.012928 0.000005
v -0.184472 0.265308 0.049426
v -0.135047 0.265308 0.135030
v -0.049414 0.265308 0.184470
v 0.049424 0.265308 0.184466
v 0.135034 0.265308 0.135039
v 0.184464 0.265308 0.049423
v 0.184465 0.265308 -0.049428
v 0.135041 0.265308 -0.135038
v 0.049420 0.265308 -0.184468
v -0.049419 0.265308 -0.184461
v -0.135043 0.265308 -0.135038
v -0.184458 0.265308 -0.049421
v -0.180093 0.236048 0.048256
v -0.131829 0.236048 0.131842
v -0.048263 0.236048 0.180095
v 0.048254 0.236048 0.180089
v 0.131835 0.236048 0.131837
v 0.180097 0.236048 0.048258
v 0.180099 0.236048 -0.048253
v 0.131834 0.236048 -0.131839
v 0.048267 0.236048 -0.180090
v -0.048260 0.236048 -0.180095
v -0.131841 0.236048 -0.131841
v -0.180093 0.236048 -0.048252
v -0.158402 0.090863 0.042445
v -0.115953 0.090863 0.115963
v -0.042440 0.090863 0.158405
v 0.042448 0.090863 0.158407
v 0.115965 0.090863 0.115961
v 0.158391 0.090863 0.042441
v 0.158407 0.090863 -0.042442
v 0.115970 0.090862 -0.115953
v 0.042457 0.090862 -0.158394
v -0.042444 0.090862 -0.158401
v -0.115959 0.090862 -0.115958
v -0.158413 0.090862 -0.042444
v -0.154121 0.062306 0.041303
v -0.112830 0.062306 0.112834
v -0.041296 0.062306 0.154131
v 0.041313 0.062306 0.154137
v 0.112841 0.062306 0.112834
v 0.154149 0.062306 0.041295
v 0.154128 0.062306 -0.041305
v 0.112837 0.062306 -0.112836
v 0.041305 0.062306 -0.154138
v -0.041306 0.062306 -0.154139
v -0.112834 0.062306 -0.112836
v -0.154127 0.062306 -0.041297
v -0.152020 0.257809 0.040741
v -0.111298 0.257809 0.111289
v -0.040734 0.257809 0.152022
v 0.040742 0.257809 0.152030
v 0.111286 0.257809 0.111289
v 0.152030 0.257809 0.040735
v 0.152025 0.257809 -0.040735
v 0.111303 0.257809 -0.111287
v 0.040741 0.257809 -0.152024
v -0.040737 0.257809 -0.152028
v -0.111282 0.257809 -0.111283
v -0.152038 0.257809 -0.040736
vn -0.0002 -0.0000 1.0000
vn -0.0002 0.2590 0.9659
vn -0.0002 0.2591 0.9659
vn 0.9988 -0.0000 0.0487
vn 0.9987 0.0160 0.0479
vn 0.9988 0.0112 0.0481
vn 0.0001 -0.0000 -1.0000
vn -0.0000 -0.2690 -0.9631
vn -0.9988 -0.0000 0.0486
vn -0.9988 0.0111 0.0479
vn -0.9987 0.0159 0.0476
vn 0.0002 -0.0000 -1.0000
vn 0.0002 0.2590 -0.9659
vn 0.0002 0.2591 -0.9659
vn -0.9988 -0.0000 -0.0487
vn -0.9987 0.0159 -0.0478
vn -0.9988 0.0111 -0.0480
vn -0.0000 -0.0000 1.0000
vn -0.0000 -0.2690 0.9631
vn 0.9988 -0.0000 -0.0492
vn 0.9988 0.0111 -0.0483
vn 0.9987 0.0158 -0.0479
vn -0.0001 0.7216 0.6923
vn 0.9987 0.0338 0.0376
vn 0.9988 0.0368 0.0326
vn -0.0000 -0.7099 -0.7043
vn -0.9988 0.0368 0.0324
vn -0.9987 0.0337 0.0373
vn 0.0002 0.7216 -0.6923
vn 0.0002 0.7217 -0.6922
vn -0.9987 0.0336 -0.0374
vn -0.9988 0.0366 -0.0324
vn -0.0000 -0.7099 0.7043
vn 0.9988 0.0363 -0.0322
vn 0.9988 0.0334 -0.0372
vn -0.0000 0.9710 0.2390
vn -0.0000 0.9710 0.2389
vn 0.9989 0.0444 0.0133
vn 0.9989 0.0450 0.0100
vn -0.0000 -0.9642 -0.2651
vn -0.0000 -0.9642 -0.2652
vn -0.9989 0.0453 0.0100
vn -0.9989 0.0446 0.0132
vn 0.0001 0.9710 -0.2390
vn 0.0001 0.9710 -0.2389
vn -0.9989 0.0445 -0.0131
vn -0.9989 0.0452 -0.0099
vn -0.0000 -0.9642 0.2652
vn -0.0000 -0.9642 0.2651
vn 0.9989 0.0448 -0.0098
vn 0.9989 0.0440 -0.0131
vn -0.9546 -0.1529 0.2557
vn -0.6988 -0.1529 0.6987
vn -0.6988 -0.1528 0.6988
vn -0.9546 -0.1528 0.2558
vn -0.2557 -0.1529 0.9546
vn -0.2558 -0.1528 0.9546
vn 0.2558 -0.1529 0.9546
vn 0.2558 -0.1528 0.9546
vn 0.6988 -0.1529 0.6988
vn 0.9546 -0.1528 0.2558
vn 0.9546 -0.1529 0.2558
vn 0.9546 -0.1528 -0.2558
vn 0.9546 -0.1529 -0.2557
vn 0.6988 -0.1529 -0.6988
vn 0.2557 -0.1529 -0.9546
vn 0.2558 -0.1529 -0.9546
vn -0.2557 -0.1528 -0.9546
vn -0.2558 -0.1529 -0.9546
vn -0.6988 -0.1528 -0.6988
vn -0.6988 -0.1529 -0.6988
vn -0.9546 -0.1528 -0.2558
vn -0.0000 1.0000 -0.0000
vn 0.8472 0.4803 -0.2270
vn 0.6202 0.4803 -0.6202
vn 0.2270 0.4803 -0.8472
vn -0.2271 0.4803 -0.8472
vn -0.6203 0.4803 -0.6201
vn -0.8472 0.4803 -0.2271
vn -0.8472 0.4804 0.2269
vn -0.6202 0.4803 0.6202
vn -0.2270 0.4803 0.8472
vn 0.2270 0.4804 0.8472
vn 0.6202 0.4803 0.6202
vn 0.8472 0.4804 0.2271
vn -0.9546 -0.1529 0.2558
vn -0.6987 -0.1529 0.6988
vn -0.2558 -0.1529 0.9546
vn 0.6988 -0.1528 0.6988
vn 0.9546 -0.1528 -0.2557
vn -0.2558 -0.1528 -0.9546
vn -0.9545 -0.1530 0.2558
vn -0.6988 -0.1530 0.6988
vn 0.9546 -0.1527 0.2558
vn 0.2558 -0.1528 -0.9546
vn -0.9546 -0.1531 -0.2557
vn -0.6988 -0.1529 0.6988
vn 0.9546 -0.1528 0.2557
vn 0.9546 -0.1529 -0.2558
vn -0.9546 -0.1530 -0.2558
vn -0.9546 -0.1526 0.2558
vn 0.6988 -0.1530 0.6988
vn 0.9546 -0.1530 0.2558
vn 0.2558 -0.1530 -0.9546
vn -0.2558 -0.1530 -0.9546
vn -0.9546 -0.1527 -0.2558
vn -0.0000 -1.0000 -0.0000
vt 0.628695 0.930204
vt 0.625024 0.930204
vt 0.628695 0.930204
vt 0.625024 0.930204
vt 0.635650 0.926533
vt 0.618068 0.926533
vt 0.635650 0.926533
vt 0.618068 0.926533
vt 0.628695 0.930204
vt 0.625024 0.930204
vt 0.618068 0.926533
vt 0.635650 0.926533
vt 0.628695 0.930204
vt 0.625024 0.930204
vt 0.618068 0.926533
vt 0.635650 0.926533
vt 0.628695 0.930204
vt 0.625024 0.930204
vt 0.618068 0.926533
vt 0.635650 0.926533
vt 0.628695 0.930204
vt 0.625024 0.930204
vt 0.618068 0.926533
vt 0.635650 0.926533
vt 0.628695 0.930204
vt 0.625024 0.930204
vt 0.625024 0.926533
vt 0.628695 0.926533
vt 0.628695 0.930204
vt 0.625024 0.930204
vt 0.625024 0.926533
vt 0.628695 0.926533
vt 0.832345 0.269452
vt 0.832348 0.269452
vt 0.832348 0.269452
vt 0.832348 0.269452
vt 0.832348 0.269452
vt 0.832347 0.269452
vt 0.832347 0.269452
vt 0.832347 0.269452
vt 0.832346 0.269452
vt 0.832346 0.269452
vt 0.832346 0.269452
vt 0.832346 0.269452
vt 0.832345 0.268861
vt 0.832340 0.269944
vt 0.832348 0.268861
vt 0.832354 0.269944
vt 0.832348 0.268861
vt 0.832354 0.269944
vt 0.832348 0.268861
vt 0.832354 0.269944
vt 0.832348 0.268861
vt 0.832354 0.269944
vt 0.832347 0.268861
vt 0.832354 0.269944
vt 0.832347 0.268861
vt 0.832354 0.269944
vt 0.832347 0.268861
vt 0.832354 0.269944
vt 0.832346 0.268861
vt 0.832354 0.269944
vt 0.832346 0.268861
vt 0.832354 0.269944
vt 0.832346 0.268861
vt 0.832354 0.269944
vt 0.832346 0.268861
vt 0.832354 0.269944
vt 0.832340 0.268371
vt 0.832340 0.269944
vt 0.832354 0.268371
vt 0.832354 0.269944
vt 0.832354 0.268371
vt 0.832354 0.269944
vt 0.832354 0.268371
vt 0.832354 0.269944
vt 0.832354 0.268371
vt 0.832354 0.269944
vt 0.832354 0.268371
vt 0.832354 0.269944
vt 0.832354 0.268371
vt 0.832354 0.269944
vt 0.832354 0.268371
vt 0.832354 0.269944
vt 0.832354 0.268371
vt 0.832354 0.269944
vt 0.832354 0.268371
vt 0.832354 0.269944
vt 0.832354 0.268371
vt 0.832354 0.269944
vt 0.832354 0.268371
vt 0.832354 0.269944
vt 0.832347 0.268371
vt 0.832345 0.268929
vt 0.877587 0.287290
vt 0.877340 0.287290
vt 0.832348 0.268929
vt 0.877566 0.287290
vt 0.832348 0.268929
vt 0.877546 0.287290
vt 0.832348 0.268929
vt 0.877525 0.287290
vt 0.832348 0.268929
vt 0.877505 0.287290
vt 0.832347 0.268929
vt 0.877484 0.287290
vt 0.832347 0.268929
vt 0.877463 0.287290
vt 0.832347 0.268929
vt 0.877443 0.287290
vt 0.832346 0.268929
vt 0.877422 0.287290
vt 0.832346 0.268929
vt 0.877402 0.287290
vt 0.832346 0.268929
vt 0.877381 0.287290
vt 0.832346 0.268929
vt 0.877361 0.287290
vt 0.877587 0.287468
vt 0.877340 0.287468
vt 0.832345 0.268987
vt 0.877566 0.287468
vt 0.832348 0.268987
vt 0.877546 0.287468
vt 0.832348 0.268987
vt 0.877525 0.287468
vt 0.832348 0.268987
vt 0.877505 0.287468
vt 0.832348 0.268987
vt 0.877484 0.287468
vt 0.832347 0.268987
vt 0.877463 0.287468
vt 0.832347 0.268987
vt 0.877443 0.287468
vt 0.832347 0.268987
vt 0.877422 0.287468
vt 0.832346 0.268987
vt 0.877402 0.287468
vt 0.832346 0.268987
vt 0.877381 0.287468
vt 0.832346 0.268987
vt 0.877361 0.287468
vt 0.832346 0.268987
vt 0.832345 0.269273
vt 0.877587 0.288355
vt 0.877340 0.288355
vt 0.832348 0.269273
vt 0.877566 0.288355
vt 0.832348 0.269273
vt 0.877546 0.288355
vt 0.832348 0.269273
vt 0.877525 0.288355
vt 0.832348 0.269273
vt 0.877505 0.288355
vt 0.832347 0.269273
vt 0.877484 0.288355
vt 0.832347 0.269273
vt 0.877463 0.288355
vt 0.832347 0.269273
vt 0.877443 0.288355
vt 0.832346 0.269273
vt 0.877422 0.288355
vt 0.832346 0.269273
vt 0.877402 0.288355
vt 0.832346 0.269273
vt 0.877381 0.288355
vt 0.832346 0.269273
vt 0.877361 0.288355
vt 0.877587 0.288529
vt 0.877340 0.288529
vt 0.832345 0.269329
vt 0.877566 0.288529
vt 0.832348 0.269329
vt 0.877546 0.288529
vt 0.832348 0.269329
vt 0.877525 0.288529
vt 0.832348 0.269329
vt 0.877505 0.288529
vt 0.832348 0.269329
vt 0.877484 0.288529
vt 0.832347 0.269329
vt 0.877463 0.288529
vt 0.832347 0.269329
vt 0.877443 0.288529
vt 0.832347 0.269329
vt 0.877422 0.288529
vt 0.832346 0.269329
vt 0.877402 0.288529
vt 0.832346 0.269329
vt 0.877381 0.288529
vt 0.832346 0.269329
vt 0.877361 0.288529
vt 0.832346 0.269329
vt 0.363884 0.734652
vt 0.367035 0.734652
vt 0.367035 0.734652
vt 0.363884 0.734652
vt 0.367035 0.734652
vt 0.363884 0.734652
vt 0.367035 0.734652
vt 0.371339 0.738647
vt 0.371339 0.736958
vt 0.369764 0.735496
vt 0.361155 0.735496
vt 0.359579 0.736958
vt 0.359579 0.738647
vt 0.361155 0.740109
vt 0.363884 0.740954
vt 0.367035 0.740954
vt 0.369764 0.740109
vt 0.363884 0.734652
vt 0.367035 0.734652
vt 0.363884 0.734652
vt 0.367035 0.734652
vt 0.363884 0.734652
vt 0.367035 0.734652
vt 0.363884 0.734652
vt 0.367035 0.734652
vt 0.363884 0.734652
vt 0.367035 0.734652
vt 0.363884 0.734652
vt 0.367035 0.734652
vt 0.363884 0.734652
s 1
usemtl Material
f 1/1/1 2/2/1 10/10/2 9/9/3
f 2/2/4 6/6/4 11/11/5 10/10/6
f 6/6/7 5/5/7 12/12/8 11/11/8
f 5/5/9 1/1/9 9/9/10 12/12/11
f 3/3/12 4/4/12 14/14/13 13/13/14
f 4/4/15 8/8/15 15/15/16 14/14/17
f 8/8/18 7/7/18 16/16/19 15/15/19
f 7/7/20 3/3/20 13/13/21 16/16/22
f 9/9/3 10/10/2 18/18/23 17/17/23
f 10/10/6 11/11/5 19/19/24 18/18/25
f 11/11/8 12/12/8 20/20/26 19/19/26
f 12/12/11 9/9/10 17/17/27 20/20/28
f 13/13/14 14/14/13 22/22/29 21/21/30
f 14/14/17 15/15/16 23/23/31 22/22/32
f 15/15/19 16/16/19 24/24/33 23/23/33
f 16/16/22 13/13/21 21/21/34 24/24/35
f 17/17/23 18/18/23 26/26/36 25/25/37
f 18/18/25 19/19/24 27/27/38 26/26/39
f 19/19/26 20/20/26 28/28/40 27/27/41
f 20/20/28 17/17/27 25/25/42 28/28/43
f 21/21/30 22/22/29 30/30/44 29/29/45
f 22/22/32 23/23/31 31/31/46 30/30/47
f 23/23/33 24/24/33 32/32/48 31/31/49
f 24/24/35 21/21/34 29/29/50 32/32/51
f 26/26/39 27/27/38 32/32/51 29/29/50
f 27/27/41 28/28/40 31/31/49 32/32/48
f 28/28/43 25/25/42 30/30/47 31/31/46
f 25/25/37 26/26/36 29/29/45 30/30/44
f 70/94/52 71/97/53 46/47/54 45/45/55
f 71/97/53 72/99/56 47/49/57 46/47/54
f 72/99/56 73/101/58 48/51/59 47/49/57
f 73/101/58 74/103/60 49/53/60 48/51/59
f 74/103/60 75/105/61 50/55/62 49/53/60
f 75/105/61 76/107/63 51/57/64 50/55/62
f 76/107/63 77/109/65 52/59/65 51/57/64
f 77/109/65 78/111/66 53/61/67 52/59/65
f 78/111/66 79/113/68 54/63/69 53/61/67
f 79/113/68 80/115/70 55/65/71 54/63/69
f 80/115/70 81/117/72 56/67/72 55/65/71
f 81/117/72 70/94/52 45/45/55 56/67/72
f 45/46/73 46/48/73 58/71/73 57/69/73
f 46/48/73 47/50/73 59/73/73 58/71/73
f 47/50/73 48/52/73 60/75/73 59/73/73
f 48/52/73 49/54/73 61/77/73 60/75/73
f 49/54/73 50/56/73 62/79/73 61/77/73
f 50/56/73 51/58/73 63/81/73 62/79/73
f 51/58/73 52/60/73 64/83/73 63/81/73
f 52/60/73 53/62/73 65/85/73 64/83/73
f 53/62/73 54/64/73 66/87/73 65/85/73
f 54/64/73 55/66/73 67/89/73 66/87/73
f 55/66/73 56/68/73 68/91/73 67/89/73
f 56/68/73 45/46/73 57/69/73 68/91/73
f 57/70/74 58/72/75 69/93/73
f 58/72/75 59/74/76 69/93/73
f 59/74/76 60/76/77 69/93/73
f 60/76/77 61/78/78 69/93/73
f 61/78/78 62/80/79 69/93/73
f 62/80/79 63/82/80 69/93/73
f 63/82/80 64/84/81 69/93/73
f 64/84/81 65/86/82 69/93/73
f 65/86/82 66/88/83 69/93/73
f 66/88/83 67/90/84 69/93/73
f 67/90/84 68/92/85 69/93/73
f 68/92/85 57/70/74 69/93/73
f 82/119/86 83/122/87 71/98/53 70/95/52
f 83/122/87 84/124/88 72/100/56 71/98/53
f 84/124/88 85/126/58 73/102/58 72/100/56
f 85/126/58 86/128/89 74/104/60 73/102/58
f 86/128/89 87/130/61 75/106/61 74/104/60
f 87/130/61 88/132/90 76/108/63 75/106/61
f 88/132/90 89/134/65 77/110/65 76/108/63
f 89/134/65 90/136/67 78/112/66 77/110/65
f 90/136/67 91/138/91 79/114/68 78/112/66
f 91/138/91 92/140/70 80/116/70 79/114/68
f 92/140/70 93/142/72 81/118/72 80/116/70
f 93/142/72 82/120/86 70/96/52 81/118/72
f 94/144/92 95/147/93 83/123/87 82/121/86
f 95/147/93 96/149/88 84/125/88 83/123/87
f 96/149/88 97/151/58 85/127/58 84/125/88
f 97/151/58 98/153/89 86/129/89 85/127/58
f 98/153/89 99/155/94 87/131/61 86/129/89
f 99/155/94 100/157/64 88/133/90 87/131/61
f 100/157/64 101/159/65 89/135/65 88/133/90
f 101/159/65 102/161/95 90/137/67 89/135/65
f 102/161/95 103/163/68 91/139/91 90/137/67
f 103/163/68 104/165/71 92/141/70 91/139/91
f 104/165/71 105/167/96 93/143/72 92/141/70
f 105/167/96 94/144/92 82/121/86 93/143/72
f 106/169/92 107/172/97 95/148/93 94/145/92
f 107/172/97 108/174/88 96/150/88 95/148/93
f 108/174/88 109/176/58 97/152/58 96/150/88
f 109/176/58 110/178/89 98/154/89 97/152/58
f 110/178/89 111/180/98 99/156/94 98/154/89
f 111/180/98 112/182/99 100/158/64 99/156/94
f 112/182/99 113/184/65 101/160/65 100/158/64
f 113/184/65 114/186/95 102/162/95 101/160/65
f 114/186/95 115/188/91 103/164/68 102/162/95
f 115/188/91 116/190/71 104/166/71 103/164/68
f 116/190/71 117/192/100 105/168/96 104/166/71
f 117/192/100 106/170/92 94/146/92 105/168/96
f 33/33/101 34/34/54 107/173/97 106/171/92
f 34/34/54 35/35/57 108/175/88 107/173/97
f 35/35/57 36/36/58 109/177/58 108/175/88
f 36/36/58 37/37/102 110/179/89 109/177/58
f 37/37/102 38/38/103 111/181/98 110/179/89
f 38/38/103 39/39/99 112/183/99 111/181/98
f 39/39/99 40/40/65 113/185/65 112/183/99
f 40/40/65 41/41/104 114/187/95 113/185/65
f 41/41/104 42/42/105 115/189/91 114/187/95
f 42/42/105 43/43/71 116/191/71 115/189/91
f 43/43/71 44/44/106 117/193/100 116/191/71
f 44/44/106 33/33/101 106/171/92 117/193/100
f 118/194/73 119/196/73 122/201/73
f 119/197/73 120/198/73 122/202/73
f 120/199/73 121/200/73 122/203/73
f 123/211/73 124/212/73 122/204/73
f 124/213/73 125/214/73 122/205/73
f 125/215/73 126/216/73 122/206/73
f 126/217/73 127/218/73 122/207/73
f 127/219/73 128/220/73 122/208/73
f 128/221/73 129/222/73 122/209/73
f 129/223/73 118/195/73 122/210/73
f 33/33/107 44/44/107 43/43/107 42/42/107 41/41/107 40/40/107 39/39/107 38/38/107 37/37/107 36/36/107 35/35/107 34/34/107
