# Blender 3.3.1
# www.blender.org
mtllib fabulous_mushroom_003.mtl
o fabulous_mushroom_003
v -0.109637 0.000000 -0.063299
v -0.109641 0.000000 0.063299
v -0.000002 0.000000 0.126598
v 0.109633 0.000000 0.063299
v 0.109637 0.000000 -0.063299
v -0.000002 0.000000 -0.126598
v -0.106754 0.306036 -0.038042
v -0.107103 0.305779 0.037409
v -0.042203 0.311632 0.075450
v 0.023042 0.317741 0.038042
v 0.023383 0.317997 -0.037409
v -0.041514 0.312145 -0.075450
v -0.111458 0.758389 -0.030132
v -0.111257 0.758515 0.030463
v -0.058779 0.755283 0.060596
v -0.006511 0.751924 0.030132
v -0.006711 0.751798 -0.030464
v -0.059185 0.755031 -0.060596
v -0.062864 1.471673 -0.015363
v -0.062413 1.471929 0.037836
v -0.016681 1.464842 0.064085
v 0.028595 1.457500 0.037135
v 0.028144 1.457243 -0.016065
v -0.017584 1.464330 -0.042314
v -0.146494 1.568059 -0.072239
v -0.145059 1.568869 0.096231
v -0.000248 1.546427 0.179356
v 0.143139 1.523175 0.094010
v 0.141716 1.522364 -0.074460
v -0.003098 1.544807 -0.157585
v -0.061884 1.853441 -0.042223
v -0.060895 1.854001 0.073990
v 0.039000 1.838520 0.131330
v 0.137910 1.822480 0.072458
v 0.136930 1.821921 -0.043755
v 0.037031 1.837402 -0.101095
v 0.002943 1.948112 -0.012630
v 0.003418 1.948383 0.043607
v 0.051762 1.940891 0.071355
v 0.099626 1.933130 0.042866
v 0.099151 1.932859 -0.013372
v 0.050807 1.940350 -0.041120
v -0.009143 2.008211 -0.025320
v -0.008442 2.008606 0.056636
v 0.062011 1.997688 0.097074
v 0.131759 1.986376 0.055556
v 0.131066 1.985982 -0.026401
v 0.060617 1.996900 -0.066839
v 0.078485 2.111793 0.015118
v -0.097842 1.139074 -0.022374
v -0.097514 1.139265 0.034523
v -0.048412 1.134106 0.062714
v 0.000359 1.128755 0.034007
v 0.000039 1.128564 -0.022891
v -0.049068 1.133724 -0.051081
vn -0.8543 0.0501 -0.5174
vn -0.8557 0.0500 0.5151
vn -0.8713 0.0246 0.4902
vn -0.8694 0.0248 -0.4934
vn 0.0329 0.1654 0.9857
vn -0.0219 0.0978 0.9950
vn 0.8410 0.2677 0.4701
vn 0.8469 0.1707 0.5035
vn 0.8425 0.2678 -0.4674
vn 0.8491 0.1707 -0.4999
vn 0.0357 0.1656 -0.9855
vn -0.0179 0.0980 -0.9950
vn -0.8690 0.0128 0.4946
vn -0.8684 0.0205 -0.4955
vn -0.0094 0.0133 0.9999
vn 0.8651 0.0243 0.5009
vn 0.8613 0.0319 -0.5070
vn -0.0117 0.0287 -0.9995
vn -0.8684 0.0713 -0.4907
vn -0.8643 0.0562 0.4998
vn -0.8607 0.0858 0.5018
vn -0.8711 0.1018 -0.4804
vn -0.0060 -0.0049 1.0000
vn -0.0137 -0.0028 0.9999
vn 0.8647 -0.0498 0.4999
vn 0.8582 -0.0785 0.5073
vn 0.8603 -0.0336 -0.5087
vn 0.8588 -0.0629 -0.5085
vn -0.0137 0.0262 -0.9996
vn -0.0228 0.0287 -0.9993
vn -0.6345 -0.7185 -0.2847
vn -0.6293 -0.7171 0.2998
vn -0.8540 -0.2043 0.4785
vn -0.8605 -0.1993 -0.4689
vn -0.1280 -0.8008 0.5851
vn -0.0396 -0.3304 0.9430
vn 0.3639 -0.8853 0.2895
vn 0.7632 -0.4507 0.4631
vn 0.3597 -0.8870 -0.2896
vn 0.7564 -0.4461 -0.4783
vn -0.1375 -0.8040 -0.5786
vn -0.0527 -0.3207 -0.9457
vn -0.7623 0.4313 0.4826
vn -0.7681 0.4380 -0.4670
vn 0.0557 0.3159 0.9471
vn 0.8601 0.2081 0.4657
vn 0.8532 0.2150 -0.4751
vn 0.0432 0.3295 -0.9432
vn -0.6710 0.5982 0.4381
vn -0.6775 0.5978 -0.4285
vn 0.0764 0.4969 0.8644
vn 0.8143 0.3954 0.4249
vn 0.8072 0.3950 -0.4386
vn 0.0629 0.4961 -0.8660
vn -0.8523 -0.2664 -0.4501
vn -0.8453 -0.2667 0.4630
vn -0.8333 0.2232 0.5057
vn -0.8411 0.2223 -0.4930
vn -0.0627 -0.4023 0.9134
vn 0.0243 0.0845 0.9961
vn 0.7126 -0.5375 0.4509
vn 0.8699 -0.0543 0.4902
vn 0.7057 -0.5373 -0.4618
vn 0.8621 -0.0552 -0.5038
vn -0.0767 -0.4017 -0.9125
vn 0.0086 0.0828 -0.9965
vn 0.1508 0.9886 -0.0018
vt 0.397742 0.328685
vt 0.397702 0.328686
vt 0.397690 0.328565
vt 0.397717 0.328442
vt 0.397757 0.328435
vt 0.397770 0.328558
vt 0.397391 0.328656
vt 0.397372 0.328658
vt 0.397361 0.328585
vt 0.397368 0.328511
vt 0.397387 0.328507
vt 0.397398 0.328581
vt 0.396877 0.328624
vt 0.396868 0.328625
vt 0.396871 0.328567
vt 0.396883 0.328507
vt 0.396893 0.328505
vt 0.396890 0.328564
vt 0.396064 0.328508
vt 0.396064 0.328510
vt 0.396076 0.328460
vt 0.396088 0.328408
vt 0.396089 0.328405
vt 0.396077 0.328456
vt 0.395945 0.328595
vt 0.395947 0.328597
vt 0.395986 0.328440
vt 0.396023 0.328277
vt 0.396023 0.328264
vt 0.395983 0.328425
vt 0.395621 0.328473
vt 0.395629 0.328478
vt 0.395660 0.328369
vt 0.395683 0.328255
vt 0.395675 0.328246
vt 0.395644 0.328356
vt 0.395519 0.328392
vt 0.395524 0.328395
vt 0.395540 0.328342
vt 0.395550 0.328286
vt 0.395545 0.328282
vt 0.395530 0.328335
vt 0.395446 0.328399
vt 0.395455 0.328404
vt 0.395479 0.328327
vt 0.395493 0.328246
vt 0.395485 0.328239
vt 0.395462 0.328317
vt 0.395339 0.328292
vt 0.396443 0.328577
vt 0.396439 0.328578
vt 0.396447 0.328524
vt 0.396459 0.328468
vt 0.396463 0.328465
vt 0.396456 0.328520
s 1
usemtl Material
f 1/1/1 2/2/2 8/8/3 7/7/4
f 2/2/2 3/3/5 9/9/6 8/8/3
f 3/3/5 4/4/7 10/10/8 9/9/6
f 4/4/7 5/5/9 11/11/10 10/10/8
f 5/5/9 6/6/11 12/12/12 11/11/10
f 6/6/11 1/1/1 7/7/4 12/12/12
f 7/7/4 8/8/3 14/14/13 13/13/14
f 8/8/3 9/9/6 15/15/15 14/14/13
f 9/9/6 10/10/8 16/16/16 15/15/15
f 10/10/8 11/11/10 17/17/17 16/16/16
f 11/11/10 12/12/12 18/18/18 17/17/17
f 12/12/12 7/7/4 13/13/14 18/18/18
f 50/50/19 51/51/20 20/20/21 19/19/22
f 51/51/20 52/52/23 21/21/24 20/20/21
f 52/52/23 53/53/25 22/22/26 21/21/24
f 53/53/25 54/54/27 23/23/28 22/22/26
f 54/54/27 55/55/29 24/24/30 23/23/28
f 55/55/29 50/50/19 19/19/22 24/24/30
f 19/19/31 20/20/32 26/26/33 25/25/34
f 20/20/32 21/21/35 27/27/36 26/26/33
f 21/21/35 22/22/37 28/28/38 27/27/36
f 22/22/37 23/23/39 29/29/40 28/28/38
f 23/23/39 24/24/41 30/30/42 29/29/40
f 24/24/41 19/19/31 25/25/34 30/30/42
f 25/25/34 26/26/33 32/32/43 31/31/44
f 26/26/33 27/27/36 33/33/45 32/32/43
f 27/27/36 28/28/38 34/34/46 33/33/45
f 28/28/38 29/29/40 35/35/47 34/34/46
f 29/29/40 30/30/42 36/36/48 35/35/47
f 30/30/42 25/25/34 31/31/44 36/36/48
f 31/31/44 32/32/43 38/38/49 37/37/50
f 32/32/43 33/33/45 39/39/51 38/38/49
f 33/33/45 34/34/46 40/40/52 39/39/51
f 34/34/46 35/35/47 41/41/53 40/40/52
f 35/35/47 36/36/48 42/42/54 41/41/53
f 36/36/48 31/31/44 37/37/50 42/42/54
f 37/37/55 38/38/56 44/44/57 43/43/58
f 38/38/56 39/39/59 45/45/60 44/44/57
f 39/39/59 40/40/61 46/46/62 45/45/60
f 40/40/61 41/41/63 47/47/64 46/46/62
f 41/41/63 42/42/65 48/48/66 47/47/64
f 42/42/65 37/37/55 43/43/58 48/48/66
f 43/43/58 44/44/57 49/49/67
f 44/44/57 45/45/60 49/49/67
f 45/45/60 46/46/62 49/49/67
f 46/46/62 47/47/64 49/49/67
f 47/47/64 48/48/66 49/49/67
f 48/48/66 43/43/58 49/49/67
f 13/13/14 14/14/13 51/51/20 50/50/19
f 14/14/13 15/15/15 52/52/23 51/51/20
f 15/15/15 16/16/16 53/53/25 52/52/23
f 16/16/16 17/17/17 54/54/27 53/53/25
f 17/17/17 18/18/18 55/55/29 54/54/27
f 18/18/18 13/13/14 50/50/19 55/55/29
