# Blender 3.3.1
# www.blender.org
mtllib jug_004.mtl
o jug_004
v 0.060587 0.000000 -0.104942
v -0.060587 0.000000 -0.104942
v -0.121168 0.000000 -0.000009
v -0.060587 0.000000 0.104951
v 0.060587 0.000000 0.104951
v 0.121168 -0.000000 -0.000009
v 0.083303 0.233843 -0.144274
v -0.083303 0.233843 -0.144274
v -0.166613 0.233843 -0.000009
v -0.083303 0.233843 0.144311
v 0.083303 0.233843 0.144311
v 0.166612 0.233843 -0.000009
v 0.090592 0.049112 -0.148556
v -0.090593 0.049112 -0.148556
v -0.181190 0.049112 -0.000009
v -0.090593 0.049112 0.148564
v 0.090592 0.049112 0.148564
v 0.181195 0.049112 -0.000009
v 0.066538 0.334437 -0.115245
v -0.066538 0.334437 -0.115245
v -0.133074 0.334437 -0.000009
v -0.066538 0.334437 0.115253
v 0.066538 0.334437 0.115253
v 0.133080 0.334437 -0.000009
v 0.055673 0.334437 -0.096407
v -0.055673 0.334437 -0.096407
v -0.111346 0.334437 -0.000009
v -0.055673 0.334437 0.096416
v 0.055673 0.334437 0.096416
v 0.111353 0.334437 -0.000009
v -0.000001 0.199145 -0.000009
v 0.063053 0.252584 -0.109196
v -0.063053 0.252584 -0.109196
v -0.126107 0.252584 -0.000009
v -0.063053 0.252584 0.109204
v 0.063053 0.252584 0.109204
v 0.126107 0.252584 -0.000009
v 0.079445 0.278621 -0.137590
v -0.079445 0.278621 -0.137590
v -0.158883 0.278621 -0.000009
v -0.079445 0.278621 0.137599
v 0.079445 0.278621 0.137599
v 0.158883 0.278621 -0.000009
v 0.085274 0.309440 -0.147672
v -0.085272 0.309440 -0.147672
v -0.170546 0.309440 -0.000009
v -0.085272 0.309440 0.147681
v 0.085273 0.309440 0.147681
v 0.170546 0.309440 -0.000009
vn 0.4714 -0.3428 -0.8126
vn -0.4714 -0.3428 -0.8126
vn -0.4277 0.4917 -0.7585
vn 0.4276 0.4917 -0.7585
vn -0.9389 -0.3441 -0.0000
vn -0.8652 0.5015 -0.0001
vn -0.4715 -0.3428 0.8125
vn -0.4277 0.4917 0.7585
vn 0.4715 -0.3428 0.8125
vn 0.4277 0.4917 0.7585
vn 0.9389 -0.3441 -0.0000
vn 0.8652 0.5015 -0.0001
vn -0.0000 -1.0000 -0.0000
vn 0.3140 -0.7366 -0.5990
vn -0.3140 -0.7366 -0.5990
vn -0.6461 -0.7633 -0.0000
vn -0.3141 -0.7366 0.5990
vn 0.3141 -0.7366 0.5990
vn 0.6461 -0.7633 -0.0000
vn 0.2776 0.8317 -0.4808
vn -0.2776 0.8318 -0.4808
vn -0.2775 0.8318 -0.4808
vn 0.2775 0.8317 -0.4808
vn -0.5550 0.8318 -0.0000
vn -0.2776 0.8318 0.4807
vn -0.2775 0.8318 0.4808
vn 0.2776 0.8318 0.4808
vn 0.2775 0.8318 0.4808
vn 0.5550 0.8318 -0.0000
vn -0.0000 1.0000 -0.0000
vn 0.1490 0.9546 0.2581
vn -0.1490 0.9546 0.2581
vn 0.2979 0.9546 -0.0000
vn 0.1490 0.9546 -0.2580
vn -0.1490 0.9546 -0.2581
vn -0.2979 0.9546 -0.0000
vn -0.0000 1.0000 0.0001
vn -0.2099 0.9076 -0.3637
vn 0.2099 0.9076 -0.3637
vn -0.4199 0.9076 -0.0001
vn -0.2100 0.9076 0.3634
vn 0.2100 0.9076 0.3634
vn 0.4199 0.9076 -0.0001
vn 0.3110 -0.7831 -0.5386
vn -0.3110 -0.7831 -0.5386
vn -0.4169 -0.5519 -0.7222
vn 0.4169 -0.5519 -0.7222
vn -0.6220 -0.7830 -0.0000
vn -0.8339 -0.5520 -0.0000
vn -0.3110 -0.7831 0.5386
vn -0.4169 -0.5519 0.7222
vn 0.3110 -0.7831 0.5386
vn 0.4169 -0.5519 0.7222
vn 0.6220 -0.7830 -0.0000
vn 0.8338 -0.5520 -0.0000
vn -0.4677 -0.3535 -0.8101
vn 0.4677 -0.3536 -0.8101
vn -0.9353 -0.3537 -0.0000
vn -0.4677 -0.3536 0.8101
vn 0.4677 -0.3536 0.8101
vn 0.9353 -0.3538 -0.0000
vt 0.800297 0.333722
vt 0.800297 0.334166
vt 0.800297 0.333722
vt 0.800297 0.334166
vt 0.800297 0.333928
vt 0.800297 0.334166
vt 0.800297 0.334166
vt 0.800297 0.334166
vt 0.800297 0.333927
vt 0.800297 0.334166
vt 0.800297 0.334738
vt 0.800297 0.335180
vt 0.800297 0.334738
vt 0.800297 0.335180
vt 0.800297 0.334738
vt 0.800297 0.334974
vt 0.800297 0.334768
vt 0.800297 0.334768
vt 0.800297 0.334738
vt 0.800297 0.334974
vt 0.800297 0.334452
vt 0.800297 0.334452
vt 0.800297 0.334452
vt 0.800297 0.334452
vt 0.800297 0.334452
vt 0.800297 0.334452
vt 0.800297 0.335180
vt 0.800297 0.335180
vt 0.800297 0.334974
vt 0.800297 0.334768
vt 0.800297 0.334768
vt 0.800297 0.334974
vt 0.800297 0.335180
vt 0.832324 0.125096
vt 0.832304 0.121972
vt 0.800297 0.335180
vt 0.832309 0.125096
vt 0.800297 0.334974
vt 0.832316 0.125096
vt 0.800297 0.334768
vt 0.832324 0.125096
vt 0.832308 0.128200
vt 0.800297 0.334768
vt 0.832300 0.128200
vt 0.832289 0.121972
vt 0.800297 0.334974
vt 0.832296 0.121972
vt 0.832316 0.128200
vt 0.832296 0.125076
vt 0.800297 0.335180
vt 0.800297 0.335180
vt 0.800297 0.334974
vt 0.800297 0.334768
vt 0.800297 0.334768
vt 0.800297 0.334974
vt 0.800297 0.335180
vt 0.800297 0.335180
vt 0.800297 0.334974
vt 0.800297 0.334768
vt 0.800297 0.334768
vt 0.800297 0.334974
vt 0.800297 0.335180
vt 0.800297 0.335180
vt 0.800297 0.334974
vt 0.800297 0.334768
vt 0.800297 0.334768
vt 0.800297 0.334974
s 1
usemtl Material
f 13/21/1 14/22/2 8/13/3 7/11/4
f 14/22/2 15/23/5 9/15/6 8/13/3
f 15/23/5 16/24/7 10/17/8 9/15/6
f 16/24/7 17/25/9 11/18/10 10/17/8
f 17/25/9 18/26/11 12/19/12 11/18/10
f 18/26/11 13/21/1 7/11/4 12/19/12
f 2/3/13 1/1/13 6/9/13
f 3/5/13 2/3/13 6/9/13
f 4/7/13 3/5/13 6/9/13
f 5/8/13 4/7/13 6/9/13
f 1/2/14 2/4/15 14/22/2 13/21/1
f 2/4/15 3/6/16 15/23/5 14/22/2
f 3/6/16 4/7/17 16/24/7 15/23/5
f 4/7/17 5/8/18 17/25/9 16/24/7
f 5/8/18 6/10/19 18/26/11 17/25/9
f 6/10/19 1/2/14 13/21/1 18/26/11
f 44/62/20 45/63/21 20/28/22 19/27/23
f 45/63/21 46/64/24 21/29/24 20/28/22
f 46/64/24 47/65/25 22/30/26 21/29/24
f 47/65/25 48/66/27 23/31/28 22/30/26
f 48/66/27 49/67/29 24/32/29 23/31/28
f 49/67/29 44/62/20 19/27/23 24/32/29
f 19/27/30 20/28/30 26/36/31 25/33/32
f 20/28/30 21/29/30 27/38/33 26/36/31
f 21/29/30 22/30/30 28/40/34 27/38/33
f 22/30/30 23/31/30 29/43/35 28/40/34
f 23/31/30 24/32/30 30/46/36 29/43/35
f 24/32/30 19/27/30 25/33/32 30/46/36
f 25/34/32 26/37/31 31/48/37
f 26/37/31 27/39/33 31/48/37
f 27/39/33 28/41/34 31/48/37
f 28/42/34 29/44/35 31/49/37
f 29/45/35 30/47/36 31/49/37
f 30/47/36 25/35/32 31/49/37
f 7/12/4 8/14/3 33/51/38 32/50/39
f 8/14/3 9/16/6 34/52/40 33/51/38
f 9/16/6 10/17/8 35/53/41 34/52/40
f 10/17/8 11/18/10 36/54/42 35/53/41
f 11/18/10 12/20/12 37/55/43 36/54/42
f 12/20/12 7/12/4 32/50/39 37/55/43
f 32/50/44 33/51/45 39/57/46 38/56/47
f 33/51/45 34/52/48 40/58/49 39/57/46
f 34/52/48 35/53/50 41/59/51 40/58/49
f 35/53/50 36/54/52 42/60/53 41/59/51
f 36/54/52 37/55/54 43/61/55 42/60/53
f 37/55/54 32/50/44 38/56/47 43/61/55
f 38/56/47 39/57/46 45/63/56 44/62/57
f 39/57/46 40/58/49 46/64/58 45/63/56
f 40/58/49 41/59/51 47/65/59 46/64/58
f 41/59/51 42/60/53 48/66/60 47/65/59
f 42/60/53 43/61/55 49/67/61 48/66/60
f 43/61/55 38/56/47 44/62/57 49/67/61
