# Blender 3.3.1
# www.blender.org
mtllib jug_003.mtl
o jug_003
v 0.050709 -0.000000 -0.087863
v -0.050711 0.000000 -0.087863
v -0.101425 0.000000 0.000000
v -0.050711 0.000000 0.087863
v 0.050709 -0.000000 0.087863
v 0.101430 -0.000000 0.000000
v 0.097186 0.373421 -0.168351
v -0.097187 0.373421 -0.168351
v -0.194367 0.373421 0.000000
v -0.097187 0.373421 0.168323
v 0.097186 0.373421 0.168323
v 0.194372 0.373421 0.000000
v 0.081726 0.106350 -0.134017
v -0.081728 0.106350 -0.134018
v -0.163449 0.106350 0.000000
v -0.081728 0.106350 0.133990
v 0.081726 0.106350 0.133990
v 0.163447 0.106350 0.000000
v 0.047318 0.570425 -0.081952
v -0.047319 0.570425 -0.081952
v -0.094635 0.570425 0.000000
v -0.047319 0.570425 0.081952
v 0.047318 0.570425 0.081952
v 0.094639 0.570425 0.000000
v 0.039592 0.570425 -0.068583
v -0.039594 0.570425 -0.068583
v -0.079183 0.570425 0.000000
v -0.039594 0.570425 0.068583
v 0.039592 0.570425 0.068583
v 0.079185 0.570425 0.000000
v -0.000001 0.457989 0.000000
v 0.033213 0.524463 -0.057507
v -0.033208 0.524463 -0.057507
v -0.066422 0.524463 0.000000
v -0.033208 0.524463 0.057535
v 0.033213 0.524463 0.057535
v 0.066420 0.524463 0.000000
v 0.076819 0.446887 -0.133051
v -0.076814 0.446887 -0.133051
v -0.153628 0.446887 0.000000
v -0.076814 0.446887 0.133051
v 0.076819 0.446887 0.133051
v 0.153625 0.446887 0.000000
vn 0.4783 -0.2914 -0.8285
vn -0.4783 -0.2914 -0.8285
vn -0.4885 0.1684 -0.8562
vn 0.4885 0.1684 -0.8562
vn -0.9551 -0.2963 -0.0000
vn -0.9847 0.1743 -0.0000
vn -0.4783 -0.2913 0.8285
vn -0.4885 0.1683 0.8562
vn 0.4783 -0.2913 0.8285
vn 0.4884 0.1683 0.8562
vn 0.9551 -0.2963 -0.0000
vn 0.9847 0.1743 -0.0000
vn -0.0000 -1.0000 -0.0000
vn 0.4253 -0.4673 -0.7751
vn -0.4253 -0.4673 -0.7751
vn -0.8699 -0.4932 -0.0000
vn -0.4252 -0.4672 0.7752
vn 0.4252 -0.4672 0.7752
vn 0.8699 -0.4932 -0.0000
vn 0.4261 -0.5233 -0.7380
vn -0.4261 -0.5233 -0.7380
vn 0.4260 -0.5233 -0.7380
vn -0.8522 -0.5232 -0.0000
vn -0.4261 -0.5230 0.7382
vn -0.4262 -0.5230 0.7381
vn 0.4261 -0.5230 0.7382
vn 0.4262 -0.5230 0.7381
vn 0.8522 -0.5232 -0.0000
vn -0.0000 1.0000 -0.0000
vn 0.1620 0.9460 0.2806
vn -0.1620 0.9460 0.2806
vn 0.3241 0.9460 -0.0000
vn 0.1620 0.9460 -0.2806
vn -0.1620 0.9460 -0.2806
vn -0.3241 0.9460 -0.0000
vn 0.4001 0.5998 -0.6929
vn -0.4001 0.5998 -0.6929
vn -0.3323 0.7472 -0.5755
vn 0.3323 0.7472 -0.5755
vn -0.8002 0.5997 -0.0000
vn -0.6646 0.7472 -0.0000
vn -0.4001 0.5997 0.6930
vn -0.3323 0.7471 0.5756
vn 0.4001 0.5997 0.6930
vn 0.3323 0.7471 0.5756
vn 0.8002 0.5997 -0.0000
vn 0.6646 0.7472 -0.0000
vt 0.800297 0.333722
vt 0.800297 0.334166
vt 0.800297 0.333722
vt 0.800297 0.334166
vt 0.800297 0.333928
vt 0.800297 0.334166
vt 0.800297 0.334166
vt 0.800297 0.334166
vt 0.800297 0.333927
vt 0.800297 0.334166
vt 0.800297 0.334738
vt 0.800297 0.335180
vt 0.800297 0.334738
vt 0.800297 0.335180
vt 0.800297 0.334738
vt 0.800297 0.334974
vt 0.800297 0.334768
vt 0.800297 0.334768
vt 0.800297 0.334738
vt 0.800297 0.334974
vt 0.800297 0.334452
vt 0.800297 0.334452
vt 0.800297 0.334452
vt 0.800297 0.334452
vt 0.800297 0.334452
vt 0.800297 0.334452
vt 0.800297 0.335180
vt 0.800297 0.335180
vt 0.800297 0.334974
vt 0.800297 0.334768
vt 0.800297 0.334768
vt 0.800297 0.334974
vt 0.800297 0.335180
vt 0.832324 0.125096
vt 0.832304 0.121972
vt 0.800297 0.335180
vt 0.832309 0.125096
vt 0.800297 0.334974
vt 0.832316 0.125096
vt 0.800297 0.334768
vt 0.832324 0.125096
vt 0.832308 0.128200
vt 0.800297 0.334768
vt 0.832300 0.128200
vt 0.832289 0.121972
vt 0.800297 0.334974
vt 0.832296 0.121972
vt 0.832316 0.128200
vt 0.832296 0.125076
vt 0.800297 0.335180
vt 0.800297 0.335180
vt 0.800297 0.334974
vt 0.800297 0.334768
vt 0.800297 0.334768
vt 0.800297 0.334974
vt 0.800297 0.335180
vt 0.800297 0.335180
vt 0.800297 0.334974
vt 0.800297 0.334768
vt 0.800297 0.334768
vt 0.800297 0.334974
s 1
usemtl Material
f 13/21/1 14/22/2 8/13/3 7/11/4
f 14/22/2 15/23/5 9/15/6 8/13/3
f 15/23/5 16/24/7 10/17/8 9/15/6
f 16/24/7 17/25/9 11/18/10 10/17/8
f 17/25/9 18/26/11 12/19/12 11/18/10
f 18/26/11 13/21/1 7/11/4 12/19/12
f 2/3/13 1/1/13 6/9/13
f 3/5/13 2/3/13 6/9/13
f 4/7/13 3/5/13 6/9/13
f 5/8/13 4/7/13 6/9/13
f 1/2/14 2/4/15 14/22/2 13/21/1
f 2/4/15 3/6/16 15/23/5 14/22/2
f 3/6/16 4/7/17 16/24/7 15/23/5
f 4/7/17 5/8/18 17/25/9 16/24/7
f 5/8/18 6/10/19 18/26/11 17/25/9
f 6/10/19 1/2/14 13/21/1 18/26/11
f 32/50/20 33/51/21 20/28/21 19/27/22
f 33/51/21 34/52/23 21/29/23 20/28/21
f 34/52/23 35/53/24 22/30/25 21/29/23
f 35/53/24 36/54/26 23/31/27 22/30/25
f 36/54/26 37/55/28 24/32/28 23/31/27
f 37/55/28 32/50/20 19/27/22 24/32/28
f 19/27/29 20/28/29 26/36/30 25/33/31
f 20/28/29 21/29/29 27/38/32 26/36/30
f 21/29/29 22/30/29 28/40/33 27/38/32
f 22/30/29 23/31/29 29/43/34 28/40/33
f 23/31/29 24/32/29 30/46/35 29/43/34
f 24/32/29 19/27/29 25/33/31 30/46/35
f 25/34/31 26/37/30 31/48/29
f 26/37/30 27/39/32 31/48/29
f 27/39/32 28/41/33 31/48/29
f 28/42/33 29/44/34 31/49/29
f 29/45/34 30/47/35 31/49/29
f 30/47/35 25/35/31 31/49/29
f 38/56/36 39/57/37 33/51/38 32/50/39
f 39/57/37 40/58/40 34/52/41 33/51/38
f 40/58/40 41/59/42 35/53/43 34/52/41
f 41/59/42 42/60/44 36/54/45 35/53/43
f 42/60/44 43/61/46 37/55/47 36/54/45
f 43/61/46 38/56/36 32/50/39 37/55/47
f 7/12/4 8/14/3 39/57/37 38/56/36
f 8/14/3 9/16/6 40/58/40 39/57/37
f 9/16/6 10/17/8 41/59/42 40/58/40
f 10/17/8 11/18/10 42/60/44 41/59/42
f 11/18/10 12/20/12 43/61/46 42/60/44
f 12/20/12 7/12/4 38/56/36 43/61/46
