# Blender 3.3.1
# www.blender.org
mtllib jug_005.mtl
o jug_005
v 0.047274 0.000000 -0.081850
v -0.047274 0.000000 -0.081850
v -0.094548 0.000000 -0.000009
v -0.047274 0.000000 0.081860
v 0.047274 0.000000 0.081860
v 0.094548 0.000000 -0.000009
v 0.095531 0.310391 -0.165487
v -0.095529 0.310391 -0.165487
v -0.191067 0.310391 -0.000009
v -0.095529 0.310391 0.165441
v 0.095531 0.310391 0.165441
v 0.191074 0.310391 -0.000009
v 0.076182 0.099138 -0.124939
v -0.076181 0.099138 -0.124939
v -0.152362 0.099138 -0.000009
v -0.076182 0.099138 0.124921
v 0.076182 0.099138 0.124921
v 0.152362 0.099138 -0.000009
v 0.054882 0.449001 -0.095053
v -0.054882 0.449001 -0.095053
v -0.109758 0.449001 -0.000009
v -0.054882 0.449001 0.095063
v 0.054882 0.449001 0.095063
v 0.109764 0.449001 -0.000009
v 0.045919 0.449001 -0.079558
v -0.045919 0.449001 -0.079558
v -0.091837 0.449001 -0.000009
v -0.045919 0.449001 0.079540
v 0.045919 0.449001 0.079540
v 0.091844 0.449001 -0.000009
v 0.000000 0.145993 -0.000009
v 0.061962 0.379844 -0.107317
v -0.061955 0.379844 -0.107317
v -0.123921 0.379844 -0.000009
v -0.061955 0.379844 0.107326
v 0.061962 0.379844 0.107326
v 0.123921 0.379844 -0.000009
vn 0.4732 -0.3256 -0.8186
vn -0.4732 -0.3256 -0.8186
vn -0.4799 0.2452 -0.8424
vn 0.4799 0.2452 -0.8424
vn -0.9440 -0.3298 -0.0000
vn -0.9678 0.2515 -0.0000
vn -0.4732 -0.3255 0.8186
vn -0.4799 0.2451 0.8424
vn 0.4732 -0.3255 0.8186
vn 0.4799 0.2451 0.8424
vn 0.9440 -0.3298 -0.0000
vn 0.9679 0.2515 -0.0000
vn -0.0000 -1.0000 -0.0000
vn 0.4252 -0.4676 -0.7749
vn -0.4252 -0.4676 -0.7749
vn -0.8699 -0.4933 -0.0000
vn -0.4253 -0.4675 0.7750
vn 0.4253 -0.4675 0.7750
vn 0.8699 -0.4933 -0.0000
vn 0.4307 0.5079 -0.7460
vn -0.4307 0.5079 -0.7460
vn -0.4898 0.2006 -0.8484
vn 0.4898 0.2006 -0.8484
vn -0.8615 0.5078 -0.0000
vn -0.9797 0.2006 -0.0001
vn -0.4307 0.5077 0.7461
vn -0.4899 0.2006 0.8484
vn 0.4307 0.5077 0.7461
vn 0.4899 0.2006 0.8484
vn 0.8615 0.5078 -0.0000
vn 0.9797 0.2006 -0.0001
vn -0.0000 1.0000 -0.0000
vn -0.4785 0.2901 0.8288
vn 0.4785 0.2901 0.8288
vn 0.9570 0.2901 -0.0000
vn 0.4785 0.2901 -0.8288
vn -0.4785 0.2901 -0.8288
vn -0.9570 0.2901 -0.0000
vt 0.800297 0.333722
vt 0.800297 0.334166
vt 0.800297 0.333722
vt 0.800297 0.334166
vt 0.800297 0.333928
vt 0.800297 0.334166
vt 0.800297 0.334166
vt 0.800297 0.334166
vt 0.800297 0.333927
vt 0.800297 0.334166
vt 0.800297 0.334738
vt 0.800297 0.335180
vt 0.800297 0.334738
vt 0.800297 0.335180
vt 0.800297 0.334738
vt 0.800297 0.334974
vt 0.800297 0.334768
vt 0.800297 0.334768
vt 0.800297 0.334738
vt 0.800297 0.334974
vt 0.800297 0.334452
vt 0.800297 0.334452
vt 0.800297 0.334452
vt 0.800297 0.334452
vt 0.800297 0.334452
vt 0.800297 0.334452
vt 0.800297 0.335180
vt 0.800297 0.335180
vt 0.800297 0.334974
vt 0.800297 0.334768
vt 0.800297 0.334768
vt 0.800297 0.334974
vt 0.800297 0.335180
vt 0.832324 0.125096
vt 0.832304 0.121972
vt 0.800297 0.335180
vt 0.832309 0.125096
vt 0.800297 0.334974
vt 0.832316 0.125096
vt 0.800297 0.334768
vt 0.832324 0.125096
vt 0.832308 0.128200
vt 0.800297 0.334768
vt 0.832300 0.128200
vt 0.832289 0.121972
vt 0.800297 0.334974
vt 0.832296 0.121972
vt 0.832316 0.128200
vt 0.832296 0.125076
vt 0.800297 0.335180
vt 0.800297 0.335180
vt 0.800297 0.334974
vt 0.800297 0.334768
vt 0.800297 0.334768
vt 0.800297 0.334974
s 1
usemtl Material
f 13/21/1 14/22/2 8/13/3 7/11/4
f 14/22/2 15/23/5 9/15/6 8/13/3
f 15/23/5 16/24/7 10/17/8 9/15/6
f 16/24/7 17/25/9 11/18/10 10/17/8
f 17/25/9 18/26/11 12/19/12 11/18/10
f 18/26/11 13/21/1 7/11/4 12/19/12
f 2/3/13 1/1/13 6/9/13
f 3/5/13 2/3/13 6/9/13
f 4/7/13 3/5/13 6/9/13
f 5/8/13 4/7/13 6/9/13
f 1/2/14 2/4/15 14/22/2 13/21/1
f 2/4/15 3/6/16 15/23/5 14/22/2
f 3/6/16 4/7/17 16/24/7 15/23/5
f 4/7/17 5/8/18 17/25/9 16/24/7
f 5/8/18 6/10/19 18/26/11 17/25/9
f 6/10/19 1/2/14 13/21/1 18/26/11
f 32/50/20 33/51/21 20/28/22 19/27/23
f 33/51/21 34/52/24 21/29/25 20/28/22
f 34/52/24 35/53/26 22/30/27 21/29/25
f 35/53/26 36/54/28 23/31/29 22/30/27
f 36/54/28 37/55/30 24/32/31 23/31/29
f 37/55/30 32/50/20 19/27/23 24/32/31
f 19/27/32 20/28/32 26/36/32 25/33/32
f 20/28/32 21/29/32 27/38/32 26/36/32
f 21/29/32 22/30/32 28/40/32 27/38/32
f 22/30/32 23/31/32 29/43/32 28/40/32
f 23/31/32 24/32/32 30/46/32 29/43/32
f 24/32/32 19/27/32 25/33/32 30/46/32
f 25/34/33 26/37/34 31/48/32
f 26/37/34 27/39/35 31/48/32
f 27/39/35 28/41/36 31/48/32
f 28/42/36 29/44/37 31/49/32
f 29/45/37 30/47/38 31/49/32
f 30/47/38 25/35/33 31/49/32
f 7/12/4 8/14/3 33/51/21 32/50/20
f 8/14/3 9/16/6 34/52/24 33/51/21
f 9/16/6 10/17/8 35/53/26 34/52/24
f 10/17/8 11/18/10 36/54/28 35/53/26
f 11/18/10 12/20/12 37/55/30 36/54/28
f 12/20/12 7/12/4 32/50/20 37/55/30
