# Blender 3.3.1
# www.blender.org
mtllib jug_001.mtl
o jug_001
v -0.048500 0.057418 -0.021884
v -0.023858 0.054635 0.057333
v 0.027873 0.049363 0.100367
v 0.101814 0.042601 0.111111
v 0.183847 0.034938 0.087247
v 0.239209 0.028936 -0.000063
v 0.226354 0.029067 -0.100494
v 0.178634 0.033049 -0.152974
v 0.114073 0.039024 -0.181258
v 0.043903 0.046072 -0.187031
v -0.016095 0.052740 -0.158498
v -0.048035 0.056984 -0.099113
v 0.029787 0.278903 -0.049671
v 0.044563 0.279384 -0.018128
v 0.072945 0.277200 0.004604
v 0.107332 0.272774 0.011510
v 0.138892 0.267443 0.002588
v 0.159221 0.262530 -0.019205
v 0.163351 0.259319 -0.048732
v 0.149052 0.258797 -0.078590
v 0.119956 0.261006 -0.101626
v 0.084377 0.265504 -0.111266
v 0.052103 0.270976 -0.104167
v 0.032014 0.275814 -0.081546
v -0.059396 0.110770 -0.022851
v -0.035305 0.185152 -0.019260
v -0.011473 0.174245 0.058438
v -0.030929 0.099619 0.066006
v 0.038857 0.167037 0.100533
v 0.027457 0.091743 0.116553
v 0.112219 0.164598 0.112023
v 0.112065 0.087977 0.119895
v 0.194257 0.166816 0.088628
v 0.203410 0.089421 0.094815
v 0.250407 0.173848 0.001704
v 0.264359 0.097488 0.001704
v 0.238913 0.186361 -0.097152
v 0.252575 0.113662 -0.108338
v 0.192103 0.198461 -0.148554
v 0.203087 0.129339 -0.166398
v 0.129190 0.206681 -0.176010
v 0.130987 0.139158 -0.199874
v 0.059580 0.209575 -0.181810
v 0.050092 0.141392 -0.207829
v -0.000428 0.206432 -0.153802
v -0.020761 0.135661 -0.175319
v -0.033294 0.197364 -0.095688
v -0.059277 0.123851 -0.106626
v 0.045807 0.284089 -0.049892
v 0.057462 0.284483 -0.025558
v 0.079742 0.282731 -0.008377
v 0.106106 0.279387 -0.002522
v 0.130599 0.275218 -0.008957
v 0.146497 0.271373 -0.026138
v 0.149425 0.268933 -0.049036
v 0.138247 0.268510 -0.072375
v 0.115730 0.270244 -0.090025
v 0.088178 0.273707 -0.097373
v 0.063207 0.277937 -0.091848
v 0.048022 0.281697 -0.074143
v 0.069643 0.222850 -0.039451
v 0.044868 0.237873 -0.021636
v 0.071376 0.235025 0.003362
v 0.105521 0.233093 -0.014951
v 0.103646 0.234974 -0.058979
v 0.073810 0.238225 -0.075138
v 0.046802 0.239466 -0.059836
v 0.003849 0.014499 -0.034838
v 0.017406 0.013439 0.008278
v 0.047378 0.010586 0.037833
v 0.089953 0.006356 0.047914
v 0.136577 0.001530 0.027392
v 0.165118 -0.001709 -0.023652
v 0.158935 -0.001458 -0.076905
v 0.130630 0.001222 -0.110741
v 0.094476 0.004734 -0.125878
v 0.055703 0.008669 -0.127728
v 0.023117 0.012046 -0.112177
v 0.005514 0.013991 -0.079833
v -0.204707 0.036080 -0.144052
v -0.315649 0.049962 -0.157890
v -0.401426 0.061205 -0.119994
v -0.442747 0.067818 -0.040280
v -0.431858 0.067648 0.059847
v -0.374057 0.060203 0.152598
v -0.282680 0.047483 0.213641
v -0.177336 0.032655 0.227258
v -0.083856 0.019627 0.189638
v -0.028897 0.011952 0.110559
v -0.031628 0.012535 0.010985
v -0.097969 0.022024 -0.082181
v -0.264370 0.327573 -0.058648
v -0.320060 0.323016 -0.068481
v -0.369848 0.316772 -0.053787
v -0.401872 0.310466 -0.018487
v -0.408340 0.305565 0.028248
v -0.388703 0.303387 0.073491
v -0.347498 0.304351 0.105145
v -0.294710 0.308641 0.115006
v -0.243142 0.315103 0.100256
v -0.207077 0.321934 0.064874
v -0.197602 0.327136 0.018581
v -0.219105 0.329147 -0.026635
v -0.195970 0.089064 -0.167585
v -0.225342 0.203616 -0.144770
v -0.328477 0.178859 -0.158111
v -0.323792 0.103910 -0.183771
v -0.409587 0.164181 -0.120519
v -0.421495 0.121750 -0.140296
v -0.451236 0.162987 -0.041909
v -0.467404 0.138490 -0.048262
v -0.444809 0.175186 0.056173
v -0.451022 0.150275 0.067166
v -0.394152 0.196606 0.147157
v -0.380381 0.156136 0.173590
v -0.310874 0.221559 0.206846
v -0.270968 0.154541 0.243720
v -0.212684 0.244011 0.219856
v -0.148027 0.143439 0.259713
v -0.123767 0.259149 0.182788
v -0.042288 0.124700 0.216375
v -0.069295 0.262987 0.105035
v 0.018085 0.103421 0.125253
v -0.068616 0.253437 0.007008
v 0.010739 0.086733 0.010433
v -0.127832 0.231496 -0.084087
v -0.071182 0.081483 -0.096516
v -0.276753 0.334390 -0.039203
v -0.319566 0.330914 -0.047075
v -0.358356 0.326048 -0.035612
v -0.383473 0.321100 -0.008129
v -0.388731 0.317259 0.027972
v -0.373289 0.315569 0.062830
v -0.341033 0.316468 0.087523
v -0.299772 0.319777 0.094953
v -0.259958 0.324734 0.083601
v -0.232471 0.330004 0.056311
v -0.225618 0.333991 0.020183
v -0.241643 0.335579 -0.014703
v -0.286096 0.255417 -0.012631
v -0.292487 0.271885 -0.050555
v -0.332929 0.265747 -0.032960
v -0.328601 0.267225 0.012836
v -0.284283 0.274793 0.040595
v -0.242619 0.281120 0.023083
v -0.246491 0.279753 -0.022768
v -0.184119 0.002928 -0.062570
v -0.244514 0.007811 -0.070055
v -0.291061 0.011424 -0.049505
v -0.313788 0.013095 -0.006306
v -0.307879 0.012465 0.047749
v -0.276137 0.009776 0.098129
v -0.226479 0.005765 0.130999
v -0.169161 0.001128 0.138456
v -0.118248 -0.002898 0.118127
v -0.088334 -0.005154 0.075259
v -0.089883 -0.004862 0.021398
v -0.126013 -0.001817 -0.028983
vn -0.9867 0.0519 0.1543
vn -0.7899 0.5834 0.1889
vn -0.7625 0.6347 -0.1255
vn -0.9661 0.0837 -0.2441
vn -0.8301 0.0151 0.5575
vn -0.6494 0.5584 0.5161
vn -0.3824 -0.0337 0.9234
vn -0.3002 0.5326 0.7913
vn 0.0972 -0.0607 0.9934
vn 0.0924 0.5201 0.8491
vn 0.6076 -0.0880 0.7893
vn 0.4912 0.5304 0.6909
vn 0.9717 -0.0877 0.2192
vn 0.7845 0.5744 0.2338
vn 0.9132 -0.0442 -0.4050
vn 0.7468 0.6226 -0.2337
vn 0.6053 0.0205 -0.7957
vn 0.5069 0.6841 -0.5245
vn 0.2604 0.0611 -0.9636
vn 0.2367 0.7133 -0.6597
vn -0.1739 0.0919 -0.9805
vn -0.1115 0.7162 -0.6889
vn -0.6829 0.1043 -0.7230
vn -0.5177 0.6977 -0.4953
vn -0.7587 0.4835 0.4366
vn -0.7950 -0.0384 0.6054
vn -0.9516 -0.2887 0.1051
vn -0.2157 0.5135 0.8305
vn -0.4506 -0.0282 0.8923
vn 0.1334 -0.4061 0.9040
vn 0.3825 -0.7654 0.5176
vn 0.3704 -0.6479 0.6656
vn 0.4456 -0.8647 0.2317
vn 0.3227 -0.9117 -0.2543
vn 0.4179 -0.9072 -0.0480
vn 0.3261 -0.8990 -0.2923
vn -0.1014 -0.8124 -0.5743
vn 0.1655 -0.8518 -0.4970
vn -0.1123 -0.7878 -0.6056
vn -0.7710 -0.5620 -0.2996
vn -0.4493 -0.6889 -0.5689
vn -0.8083 -0.5035 -0.3051
vn -0.8566 -0.5019 0.1196
vn -0.7220 -0.5328 0.4414
vn -0.3747 -0.5739 0.7282
vn 0.0166 -0.5888 0.8081
vn 0.4264 -0.6212 0.6575
vn 0.7310 -0.6588 0.1779
vn 0.6876 -0.6399 -0.3430
vn 0.4323 -0.6011 -0.6722
vn 0.1532 -0.5682 -0.8085
vn -0.1973 -0.5414 -0.8173
vn -0.6119 -0.5126 -0.6023
vn -0.8426 -0.4955 -0.2108
vn -0.3037 0.9527 -0.0104
vn -0.2466 0.9451 0.2145
vn -0.2357 0.9441 0.2307
vn -0.3038 0.9526 0.0177
vn -0.0746 0.9271 0.3673
vn -0.0736 0.9270 0.3679
vn 0.1537 0.8995 0.4089
vn 0.1367 0.9017 0.4101
vn 0.3754 0.8724 0.3131
vn 0.3556 0.8750 0.3286
vn 0.5237 0.8444 0.1125
vn 0.5220 0.8450 0.1164
vn 0.5665 0.8130 -0.1347
vn 0.5649 0.8106 -0.1539
vn 0.4970 0.7874 -0.3645
vn 0.4863 0.7864 -0.3809
vn 0.3360 0.7928 -0.5084
vn 0.3403 0.7922 -0.5065
vn 0.1266 0.8382 -0.5305
vn 0.1511 0.8319 -0.5339
vn -0.0838 0.8990 -0.4298
vn -0.0680 0.8944 -0.4420
vn -0.2384 0.9401 -0.2435
vn -0.2446 0.9416 -0.2316
vn 0.9283 0.3333 -0.1647
vn 0.7481 0.2831 -0.6001
vn 0.3315 0.9306 -0.1554
vn 0.4019 0.3675 -0.8387
vn 0.0255 0.5351 -0.8444
vn -0.2857 0.7084 -0.6454
vn -0.4631 0.8234 -0.3278
vn -0.4984 0.8667 0.0186
vn -0.4072 0.8510 0.3317
vn -0.2114 0.8019 0.5588
vn 0.0819 0.7358 0.6722
vn 0.4706 0.6363 0.6112
vn 0.8204 0.4824 0.3069
vn -0.3758 0.9239 -0.0723
vn 0.0181 0.9726 -0.2320
vn 0.2899 0.9546 -0.0677
vn 0.2795 0.9203 0.2738
vn 0.0815 -0.9719 0.2206
vn 0.1778 -0.9823 0.0585
vn -0.3959 -0.9157 -0.0689
vn -0.4003 -0.9152 0.0460
vn -0.3538 -0.9226 0.1537
vn -0.2244 -0.9385 0.2624
vn -0.0247 -0.9562 -0.2917
vn -0.1497 -0.9436 -0.2952
vn 0.1676 -0.9790 -0.1159
vn -0.0725 -0.9511 0.3001
vn -0.3093 -0.9261 -0.2159
vn 0.0780 -0.9662 -0.2458
vn 0.3038 -0.0834 -0.9491
vn 0.1790 0.5623 -0.8073
vn 0.4431 0.6334 -0.6343
vn 0.6676 -0.0709 -0.7412
vn -0.1716 -0.0691 -0.9827
vn -0.1983 0.5434 -0.8157
vn -0.6920 0.0056 -0.7218
vn -0.5681 0.5847 -0.5791
vn -0.9784 0.0760 -0.1922
vn -0.7800 0.6008 -0.1751
vn -0.9382 0.0288 0.3448
vn -0.8111 0.5587 0.1733
vn -0.6909 0.0002 0.7230
vn -0.6887 0.5497 0.4729
vn -0.3141 0.0450 0.9483
vn -0.4130 0.6267 0.6608
vn 0.1606 0.0770 0.9840
vn -0.0394 0.7386 0.6730
vn 0.6428 0.0589 0.7638
vn 0.3282 0.8072 0.4906
vn 0.9611 0.0030 0.2761
vn 0.5764 0.8063 0.1329
vn 0.9478 -0.0477 -0.3154
vn 0.6053 0.7387 -0.2967
vn 0.1371 -0.3989 -0.9067
vn -0.0781 -0.3929 -0.9163
vn 0.4193 -0.3273 -0.8468
vn -0.4192 -0.7122 -0.5630
vn -0.4101 -0.5677 -0.7138
vn -0.5255 -0.8173 -0.2363
vn -0.3407 -0.9274 0.1545
vn -0.4529 -0.8904 0.0464
vn -0.2702 -0.9296 0.2507
vn 0.0794 -0.9155 0.3943
vn -0.0915 -0.9240 0.3714
vn 0.1182 -0.9018 0.4157
vn 0.5695 -0.7990 0.1931
vn 0.3456 -0.8521 0.3930
vn 0.6015 -0.7695 0.2144
vn 0.6757 -0.5073 -0.5348
vn 0.7551 -0.6466 -0.1084
vn 0.7026 -0.4389 -0.5602
vn 0.1492 -0.7026 -0.6957
vn -0.1805 -0.7099 -0.6808
vn -0.5442 -0.6917 -0.4747
vn -0.7551 -0.6482 -0.0986
vn -0.7502 -0.6094 0.2566
vn -0.6059 -0.5943 0.5289
vn -0.3473 -0.6127 0.7100
vn -0.0022 -0.6619 0.7496
vn 0.3594 -0.7198 0.5939
vn 0.6146 -0.7556 0.2265
vn 0.6267 -0.7406 -0.2425
vn 0.4213 -0.7064 -0.5687
vn 0.0718 0.9539 -0.2913
vn -0.1153 0.9334 -0.3399
vn -0.1145 0.9335 -0.3399
vn 0.0568 0.9521 -0.3004
vn -0.3128 0.9112 -0.2680
vn -0.3061 0.9121 -0.2727
vn -0.4583 0.8838 -0.0946
vn -0.4590 0.8836 -0.0931
vn -0.5037 0.8538 0.1317
vn -0.5029 0.8527 0.1417
vn -0.4270 0.8360 0.3446
vn -0.4232 0.8358 0.3497
vn -0.2581 0.8394 0.4783
vn -0.2617 0.8391 0.4768
vn -0.0590 0.8654 0.4976
vn -0.0745 0.8626 0.5004
vn 0.1116 0.9053 0.4099
vn 0.0935 0.9001 0.4254
vn 0.2153 0.9449 0.2465
vn 0.2094 0.9419 0.2625
vn 0.2437 0.9685 0.0516
vn 0.2431 0.9692 0.0395
vn 0.1974 0.9697 -0.1443
vn 0.1845 0.9683 -0.1685
vn -0.3836 0.3349 0.8606
vn 0.0344 0.4274 0.9034
vn -0.1918 0.9318 0.3080
vn 0.3856 0.6175 0.6856
vn 0.5391 0.7769 0.3253
vn 0.5108 0.8595 -0.0180
vn 0.3684 0.8863 -0.2808
vn 0.1537 0.8789 -0.4515
vn -0.1049 0.8475 -0.5203
vn -0.3829 0.7958 -0.4692
vn -0.6480 0.7131 -0.2674
vn -0.8087 0.5788 0.1046
vn -0.7199 0.4136 0.5573
vn -0.1298 0.8178 -0.5606
vn 0.1369 0.9269 -0.3495
vn 0.0467 0.9974 0.0541
vn -0.2520 0.9400 0.2301
vn -0.5440 0.8321 0.1084
vn -0.5359 0.7861 -0.3078
vn -0.2604 -0.9633 0.0653
vn -0.2260 -0.9649 0.1341
vn 0.0769 -0.9802 -0.1825
vn -0.0023 -0.9754 -0.2205
vn -0.1026 -0.9731 -0.2063
vn -0.2048 -0.9700 -0.1306
vn 0.0306 -0.9882 0.1500
vn 0.1125 -0.9925 0.0478
vn -0.1598 -0.9705 0.1807
vn -0.2598 -0.9654 -0.0244
vn 0.1284 -0.9876 -0.0899
vn -0.0688 -0.9792 0.1907
vt 0.832334 0.263091
vt 0.832335 0.263091
vt 0.832335 0.263091
vt 0.832336 0.263091
vt 0.832336 0.263091
vt 0.832337 0.263091
vt 0.832337 0.263091
vt 0.832338 0.263091
vt 0.832338 0.263091
vt 0.832339 0.263091
vt 0.832339 0.263091
vt 0.832339 0.263091
vt 0.832348 0.263091
vt 0.832326 0.263091
vt 0.832326 0.263091
vt 0.832326 0.263091
vt 0.832326 0.263091
vt 0.832326 0.263091
vt 0.832326 0.263091
vt 0.832326 0.263091
vt 0.832326 0.263091
vt 0.832326 0.263091
vt 0.832326 0.263091
vt 0.832326 0.263091
vt 0.832340 0.263091
vt 0.832334 0.263091
vt 0.832335 0.263091
vt 0.832335 0.263091
vt 0.832335 0.263091
vt 0.832335 0.263091
vt 0.832336 0.263091
vt 0.832336 0.263091
vt 0.832336 0.263091
vt 0.832336 0.263091
vt 0.832337 0.263091
vt 0.832337 0.263091
vt 0.832337 0.263091
vt 0.832337 0.263091
vt 0.832338 0.263091
vt 0.832338 0.263091
vt 0.832338 0.263091
vt 0.832338 0.263091
vt 0.832339 0.263091
vt 0.832339 0.263091
vt 0.832339 0.263091
vt 0.832339 0.263091
vt 0.832339 0.263091
vt 0.832339 0.263091
vt 0.832348 0.263091
vt 0.877256 0.057715
vt 0.877306 0.050420
vt 0.832326 0.263091
vt 0.877306 0.057715
vt 0.877256 0.054399
vt 0.832326 0.263091
vt 0.877306 0.054399
vt 0.877256 0.047269
vt 0.832326 0.263091
vt 0.877306 0.047269
vt 0.877256 0.054399
vt 0.832326 0.263091
vt 0.877306 0.054399
vt 0.877256 0.053736
vt 0.832326 0.263091
vt 0.877306 0.053736
vt 0.877256 0.057715
vt 0.832326 0.263091
vt 0.877306 0.057715
vt 0.877256 0.050586
vt 0.832326 0.263091
vt 0.877306 0.050586
vt 0.877256 0.050420
vt 0.832326 0.263091
vt 0.877306 0.050420
vt 0.877256 0.054399
vt 0.832326 0.263091
vt 0.877306 0.054399
vt 0.877256 0.057715
vt 0.832326 0.263091
vt 0.877306 0.057715
vt 0.877256 0.054399
vt 0.832326 0.263091
vt 0.877306 0.054399
vt 0.877256 0.050420
vt 0.877281 0.047519
vt 0.877281 0.053985
vt 0.877281 0.050835
vt 0.877281 0.057965
vt 0.877281 0.054648
vt 0.877281 0.050669
vt 0.832334 0.263091
vt 0.832335 0.263091
vt 0.832336 0.263091
vt 0.832337 0.263091
vt 0.832338 0.263091
vt 0.832339 0.263091
vt 0.832334 0.263091
vt 0.832335 0.263091
vt 0.832335 0.263091
vt 0.832336 0.263091
vt 0.832336 0.263091
vt 0.832337 0.263091
vt 0.832337 0.263091
vt 0.832338 0.263091
vt 0.832338 0.263091
vt 0.832339 0.263091
vt 0.832339 0.263091
vt 0.832339 0.263091
vt 0.832334 0.263091
vt 0.832335 0.263091
vt 0.832335 0.263091
vt 0.832336 0.263091
vt 0.832336 0.263091
vt 0.832337 0.263091
vt 0.832337 0.263091
vt 0.832338 0.263091
vt 0.832338 0.263091
vt 0.832339 0.263091
vt 0.832339 0.263091
vt 0.832339 0.263091
vt 0.832348 0.263091
vt 0.832326 0.263091
vt 0.832326 0.263091
vt 0.832326 0.263091
vt 0.832326 0.263091
vt 0.832326 0.263091
vt 0.832326 0.263091
vt 0.832326 0.263091
vt 0.832326 0.263091
vt 0.832326 0.263091
vt 0.832326 0.263091
vt 0.832326 0.263091
vt 0.832340 0.263091
vt 0.832334 0.263091
vt 0.832335 0.263091
vt 0.832335 0.263091
vt 0.832335 0.263091
vt 0.832335 0.263091
vt 0.832336 0.263091
vt 0.832336 0.263091
vt 0.832336 0.263091
vt 0.832336 0.263091
vt 0.832337 0.263091
vt 0.832337 0.263091
vt 0.832337 0.263091
vt 0.832337 0.263091
vt 0.832338 0.263091
vt 0.832338 0.263091
vt 0.832338 0.263091
vt 0.832338 0.263091
vt 0.832339 0.263091
vt 0.832339 0.263091
vt 0.832339 0.263091
vt 0.832339 0.263091
vt 0.832339 0.263091
vt 0.832339 0.263091
vt 0.832348 0.263091
vt 0.877256 0.057715
vt 0.877306 0.050420
vt 0.832326 0.263091
vt 0.877306 0.057715
vt 0.877256 0.054399
vt 0.832326 0.263091
vt 0.877306 0.054399
vt 0.877256 0.047269
vt 0.832326 0.263091
vt 0.877306 0.047269
vt 0.877256 0.054399
vt 0.832326 0.263091
vt 0.877306 0.054399
vt 0.877256 0.053736
vt 0.832326 0.263091
vt 0.877306 0.053736
vt 0.877256 0.057715
vt 0.832326 0.263091
vt 0.877306 0.057715
vt 0.877256 0.050586
vt 0.832326 0.263091
vt 0.877306 0.050586
vt 0.877256 0.050420
vt 0.832326 0.263091
vt 0.877306 0.050420
vt 0.877256 0.054399
vt 0.832326 0.263091
vt 0.877306 0.054399
vt 0.877256 0.057715
vt 0.832326 0.263091
vt 0.877306 0.057715
vt 0.877256 0.054399
vt 0.832326 0.263091
vt 0.877306 0.054399
vt 0.877256 0.050420
vt 0.877281 0.047519
vt 0.877281 0.053985
vt 0.877281 0.050835
vt 0.877281 0.057965
vt 0.877281 0.054648
vt 0.877281 0.050669
vt 0.832334 0.263091
vt 0.832335 0.263091
vt 0.832336 0.263091
vt 0.832337 0.263091
vt 0.832338 0.263091
vt 0.832339 0.263091
vt 0.832334 0.263091
vt 0.832335 0.263091
vt 0.832335 0.263091
vt 0.832336 0.263091
vt 0.832336 0.263091
vt 0.832337 0.263091
vt 0.832337 0.263091
vt 0.832338 0.263091
vt 0.832338 0.263091
vt 0.832339 0.263091
vt 0.832339 0.263091
vt 0.832339 0.263091
s 1
usemtl Material
f 25/25/1 26/26/2 47/47/3 48/48/4
f 26/26/2 25/25/1 28/28/5 27/27/6
f 27/27/6 28/28/5 30/30/7 29/29/8
f 29/29/8 30/30/7 32/32/9 31/31/10
f 31/31/10 32/32/9 34/34/11 33/33/12
f 33/33/12 34/34/11 36/36/13 35/35/14
f 35/35/14 36/36/13 38/38/15 37/37/16
f 37/37/16 38/38/15 40/40/17 39/39/18
f 39/39/18 40/40/17 42/42/19 41/41/20
f 41/41/20 42/42/19 44/44/21 43/43/22
f 43/43/22 44/44/21 46/46/23 45/45/24
f 45/45/24 46/46/23 48/48/4 47/47/3
f 62/91/25 14/14/26 13/13/27
f 62/91/25 63/92/28 15/15/29 14/14/26
f 63/92/28 16/16/30 15/15/29
f 63/92/28 64/93/31 17/17/32 16/16/30
f 64/93/31 18/18/33 17/17/32
f 64/93/31 65/94/34 19/19/35 18/18/33
f 65/94/34 20/20/36 19/19/35
f 65/94/34 66/95/37 21/21/38 20/20/36
f 66/95/37 22/22/39 21/21/38
f 66/95/37 67/96/40 23/23/41 22/22/39
f 67/96/40 24/24/42 23/23/41
f 67/96/40 62/91/25 13/13/27 24/24/42
f 1/1/43 2/2/44 28/28/5 25/25/1
f 2/2/44 3/3/45 30/30/7 28/28/5
f 3/3/45 4/4/46 32/32/9 30/30/7
f 4/4/46 5/5/47 34/34/11 32/32/9
f 5/5/47 6/6/48 36/36/13 34/34/11
f 6/6/48 7/7/49 38/38/15 36/36/13
f 7/7/49 8/8/50 40/40/17 38/38/15
f 8/8/50 9/9/51 42/42/19 40/40/17
f 9/9/51 10/10/52 44/44/21 42/42/19
f 10/10/52 11/11/53 46/46/23 44/44/21
f 11/11/53 12/12/54 48/48/4 46/46/23
f 12/12/54 1/1/43 25/25/1 48/48/4
f 13/13/55 14/14/56 50/52/57 49/49/58
f 14/14/56 15/15/59 51/55/60 50/52/57
f 15/15/59 16/16/61 52/58/62 51/55/60
f 16/16/61 17/17/63 53/61/64 52/58/62
f 17/17/63 18/18/65 54/64/66 53/61/64
f 18/18/65 19/19/67 55/67/68 54/64/66
f 19/19/67 20/20/69 56/70/70 55/67/68
f 20/20/69 21/21/71 57/73/72 56/70/70
f 21/21/71 22/22/73 58/76/74 57/73/72
f 22/22/73 23/23/75 59/79/76 58/76/74
f 23/23/75 24/24/77 60/82/78 59/79/76
f 24/24/77 13/13/55 49/49/58 60/82/78
f 49/50/79 50/53/80 61/88/81
f 50/54/80 51/56/82 61/89/81
f 51/57/82 52/59/83 61/85/81
f 52/60/83 53/62/84 61/89/81
f 53/63/84 54/65/85 61/86/81
f 54/66/85 55/68/86 61/88/81
f 55/69/86 56/71/87 61/87/81
f 56/72/87 57/74/88 61/90/81
f 57/75/88 58/77/89 61/89/81
f 58/78/89 59/80/90 61/88/81
f 59/81/90 60/83/91 61/89/81
f 60/84/91 49/51/79 61/90/81
f 47/47/3 26/26/2 62/91/25 67/96/92
f 45/45/24 47/47/3 67/96/92
f 43/43/22 45/45/24 67/96/92 66/95/93
f 41/41/20 43/43/22 66/95/93
f 39/39/18 41/41/20 66/95/93 65/94/94
f 37/37/16 39/39/18 65/94/94
f 35/35/14 37/37/16 65/94/94 64/93/95
f 33/33/12 35/35/14 64/93/95
f 31/31/10 33/33/12 64/93/95 63/92/28
f 29/29/8 31/31/10 63/92/28
f 27/27/6 29/29/8 63/92/28 62/91/25
f 26/26/2 27/27/6 62/91/25
f 6/6/48 5/5/47 72/101/96 73/102/97
f 1/1/43 12/12/54 79/108/98 68/97/99
f 3/3/45 2/2/44 69/98/100 70/99/101
f 10/10/52 9/9/51 76/105/102 77/106/103
f 7/7/49 6/6/48 73/102/97 74/103/104
f 4/4/46 3/3/45 70/99/101 71/100/105
f 11/11/53 10/10/52 77/106/103 78/107/106
f 8/8/50 7/7/49 74/103/104 75/104/107
f 5/5/47 4/4/46 71/100/105 72/101/96
f 12/12/54 11/11/53 78/107/106 79/108/98
f 2/2/44 1/1/43 68/97/99 69/98/100
f 9/9/51 8/8/50 75/104/107 76/105/102
f 104/133/108 105/134/109 126/155/110 127/156/111
f 105/134/109 104/133/108 107/136/112 106/135/113
f 106/135/113 107/136/112 109/138/114 108/137/115
f 108/137/115 109/138/114 111/140/116 110/139/117
f 110/139/117 111/140/116 113/142/118 112/141/119
f 112/141/119 113/142/118 115/144/120 114/143/121
f 114/143/121 115/144/120 117/146/122 116/145/123
f 116/145/123 117/146/122 119/148/124 118/147/125
f 118/147/125 119/148/124 121/150/126 120/149/127
f 120/149/127 121/150/126 123/152/128 122/151/129
f 122/151/129 123/152/128 125/154/130 124/153/131
f 124/153/131 125/154/130 127/156/111 126/155/110
f 141/199/132 93/122/133 92/121/134
f 141/199/132 142/200/135 94/123/136 93/122/133
f 142/200/135 95/124/137 94/123/136
f 142/200/135 143/201/138 96/125/139 95/124/137
f 143/201/138 97/126/140 96/125/139
f 143/201/138 144/202/141 98/127/142 97/126/140
f 144/202/141 99/128/143 98/127/142
f 144/202/141 145/203/144 100/129/145 99/128/143
f 145/203/144 101/130/146 100/129/145
f 145/203/144 146/204/147 102/131/148 101/130/146
f 146/204/147 103/132/149 102/131/148
f 146/204/147 141/199/132 92/121/134 103/132/149
f 80/109/150 81/110/151 107/136/112 104/133/108
f 81/110/151 82/111/152 109/138/114 107/136/112
f 82/111/152 83/112/153 111/140/116 109/138/114
f 83/112/153 84/113/154 113/142/118 111/140/116
f 84/113/154 85/114/155 115/144/120 113/142/118
f 85/114/155 86/115/156 117/146/122 115/144/120
f 86/115/156 87/116/157 119/148/124 117/146/122
f 87/116/157 88/117/158 121/150/126 119/148/124
f 88/117/158 89/118/159 123/152/128 121/150/126
f 89/118/159 90/119/160 125/154/130 123/152/128
f 90/119/160 91/120/161 127/156/111 125/154/130
f 91/120/161 80/109/150 104/133/108 127/156/111
f 92/121/162 93/122/163 129/160/164 128/157/165
f 93/122/163 94/123/166 130/163/167 129/160/164
f 94/123/166 95/124/168 131/166/169 130/163/167
f 95/124/168 96/125/170 132/169/171 131/166/169
f 96/125/170 97/126/172 133/172/173 132/169/171
f 97/126/172 98/127/174 134/175/175 133/172/173
f 98/127/174 99/128/176 135/178/177 134/175/175
f 99/128/176 100/129/178 136/181/179 135/178/177
f 100/129/178 101/130/180 137/184/181 136/181/179
f 101/130/180 102/131/182 138/187/183 137/184/181
f 102/131/182 103/132/184 139/190/185 138/187/183
f 103/132/184 92/121/162 128/157/165 139/190/185
f 128/158/186 129/161/187 140/196/188
f 129/162/187 130/164/189 140/197/188
f 130/165/189 131/167/190 140/193/188
f 131/168/190 132/170/191 140/197/188
f 132/171/191 133/173/192 140/194/188
f 133/174/192 134/176/193 140/196/188
f 134/177/193 135/179/194 140/195/188
f 135/180/194 136/182/195 140/198/188
f 136/183/195 137/185/196 140/197/188
f 137/186/196 138/188/197 140/196/188
f 138/189/197 139/191/198 140/197/188
f 139/192/198 128/159/186 140/198/188
f 126/155/110 105/134/109 141/199/199 146/204/200
f 124/153/131 126/155/110 146/204/200
f 122/151/129 124/153/131 146/204/200 145/203/201
f 120/149/127 122/151/129 145/203/201
f 118/147/125 120/149/127 145/203/201 144/202/202
f 116/145/123 118/147/125 144/202/202
f 114/143/121 116/145/123 144/202/202 143/201/203
f 112/141/119 114/143/121 143/201/203
f 110/139/117 112/141/119 143/201/203 142/200/204
f 108/137/115 110/139/117 142/200/204
f 106/135/113 108/137/115 142/200/204 141/199/199
f 105/134/109 106/135/113 141/199/199
f 85/114/155 84/113/154 151/209/205 152/210/206
f 80/109/150 91/120/161 158/216/207 147/205/208
f 82/111/152 81/110/151 148/206/209 149/207/210
f 89/118/159 88/117/158 155/213/211 156/214/212
f 86/115/156 85/114/155 152/210/206 153/211/213
f 83/112/153 82/111/152 149/207/210 150/208/214
f 90/119/160 89/118/159 156/214/212 157/215/215
f 87/116/157 86/115/156 153/211/213 154/212/216
f 84/113/154 83/112/153 150/208/214 151/209/205
f 91/120/161 90/119/160 157/215/215 158/216/207
f 81/110/151 80/109/150 147/205/208 148/206/209
f 88/117/158 87/116/157 154/212/216 155/213/211
f 151/209/205 150/208/214 149/207/210 148/206/209 147/205/208 158/216/207 157/215/215 156/214/212 155/213/211 154/212/216 153/211/213 152/210/206
f 72/101/96 71/100/105 70/99/101 69/98/100 68/97/99 79/108/98 78/107/106 77/106/103 76/105/102 75/104/107 74/103/104 73/102/97
