# Blender 3.3.1
# www.blender.org
mtllib log_003.mtl
o log_003
v -0.241728 0.152972 -0.236285
v -0.241728 0.095149 -0.181112
v -0.241728 0.018455 -0.203623
v -0.241728 -0.000415 -0.281280
v -0.241728 0.057408 -0.336453
v -0.241728 0.134102 -0.313955
v 0.216017 0.164986 -0.232763
v 0.216017 0.098105 -0.168958
v 0.216017 0.009398 -0.194978
v 0.216017 -0.012429 -0.284787
v 0.216017 0.054452 -0.348606
v 0.216017 0.143159 -0.322601
v -0.225092 0.113723 -0.457889
v -0.225092 0.151167 -0.393035
v -0.225092 0.113723 -0.328180
v -0.225092 0.038834 -0.328180
v -0.225092 0.001390 -0.393035
v -0.225092 0.038834 -0.457889
v 0.200037 0.116626 -0.458759
v 0.200037 0.156973 -0.388878
v 0.200037 0.116626 -0.318996
v 0.200037 0.035931 -0.318996
v 0.200037 -0.004416 -0.388878
v 0.200037 0.035931 -0.458759
v -0.241728 0.292695 0.036294
v -0.241728 0.234872 0.091467
v -0.241728 0.158178 0.068983
v -0.241728 0.139308 -0.008687
v -0.241728 0.197131 -0.063860
v -0.241728 0.273825 -0.041377
v 0.216017 0.304709 0.039816
v 0.216017 0.237828 0.103634
v 0.216017 0.149121 0.077629
v 0.216017 0.127295 -0.012209
v 0.216017 0.194175 -0.076027
v 0.216017 0.282882 -0.050022
v -0.225092 0.113723 -0.231658
v -0.225092 0.151167 -0.166790
v -0.225092 0.113723 -0.101936
v -0.225092 0.038834 -0.101936
v -0.225092 0.001390 -0.166790
v -0.225092 0.038834 -0.231658
v 0.200037 0.116626 -0.232528
v 0.200037 0.156973 -0.162647
v 0.200037 0.116626 -0.092752
v 0.200037 0.035931 -0.092752
v 0.200037 -0.004416 -0.162647
v 0.200037 0.035931 -0.232528
v -0.225092 0.113723 0.263933
v -0.225092 0.151167 0.328773
v -0.225092 0.113723 0.393628
v -0.225092 0.038834 0.393628
v -0.225092 0.001390 0.328773
v -0.225092 0.038834 0.263933
v 0.200037 0.116626 0.263063
v 0.200037 0.156973 0.332944
v 0.200037 0.116626 0.402826
v 0.200037 0.035931 0.402826
v 0.200037 -0.004416 0.332944
v 0.200037 0.035931 0.263063
v -0.205251 0.140146 0.421497
v -0.205251 0.150926 0.501460
v -0.205251 0.087059 0.550792
v -0.205251 0.012411 0.520132
v -0.205251 0.001631 0.440155
v -0.205251 0.065498 0.390838
v 0.179540 0.140146 0.421497
v 0.179540 0.150926 0.501460
v 0.179540 0.087059 0.550792
v 0.179540 0.012411 0.520132
v 0.179540 0.001631 0.440156
v 0.179540 0.065498 0.390838
v -0.205251 0.254150 0.274843
v -0.205251 0.190282 0.324161
v -0.205251 0.115635 0.293501
v -0.205251 0.104855 0.213538
v -0.205251 0.168722 0.164221
v -0.205251 0.243369 0.194866
v 0.179540 0.254149 0.274843
v 0.179540 0.190282 0.324161
v 0.179540 0.115635 0.293501
v 0.179540 0.104855 0.213538
v 0.179540 0.168722 0.164221
v 0.179540 0.243369 0.194866
v -0.205251 0.201901 -0.039996
v -0.205251 0.127254 -0.070655
v -0.205251 0.116474 -0.150618
v -0.205251 0.180341 -0.199936
v -0.205251 0.254988 -0.169290
v -0.205251 0.265769 -0.089313
v 0.179540 0.201901 -0.039996
v 0.179540 0.127254 -0.070655
v 0.179540 0.116474 -0.150618
v 0.179540 0.180341 -0.199936
v 0.179540 0.254988 -0.169290
v 0.179540 0.265768 -0.089313
v -0.205251 0.140146 -0.101729
v -0.205251 0.150926 -0.021752
v -0.205251 0.087059 0.027566
v -0.205251 0.012411 -0.003080
v -0.205251 0.001631 -0.083043
v -0.205251 0.065498 -0.132374
v 0.179540 0.140146 -0.101729
v 0.179540 0.150926 -0.021752
v 0.179540 0.087059 0.027566
v 0.179540 0.012411 -0.003080
v 0.179540 0.001631 -0.083043
v 0.179540 0.065498 -0.132374
v -0.253786 0.143111 0.188182
v -0.253786 0.133619 0.259873
v -0.253786 0.066787 0.287494
v -0.253786 0.009446 0.243424
v -0.253786 0.018938 0.171748
v -0.253786 0.085770 0.144113
v 0.227266 0.135117 0.185710
v 0.227266 0.126760 0.248824
v 0.227266 0.067922 0.273145
v 0.227266 0.017440 0.234365
v 0.227266 0.025796 0.171237
v 0.227266 0.084635 0.146902
v -0.241728 0.152972 0.101438
v -0.241728 0.095149 0.156611
v -0.241728 0.018455 0.134128
v -0.241728 -0.000415 0.056471
v -0.241728 0.057408 0.001298
v -0.241728 0.134102 0.023781
v 0.216017 0.164986 0.104960
v 0.216017 0.098105 0.168778
v 0.216017 0.009398 0.142773
v 0.216017 -0.012429 0.052936
v 0.216017 0.054452 -0.010883
v 0.216017 0.143159 0.015136
vn -0.0273 0.9592 0.2813
vn -0.0273 0.2359 0.9714
vn -0.0273 -0.7233 0.6900
vn -0.0273 -0.9592 -0.2813
vn -0.0273 -0.2360 -0.9714
vn -0.0273 0.7232 -0.6901
vn -1.0000 -0.0000 -0.0000
vn 1.0000 -0.0000 -0.0000
vn -0.0052 0.4986 -0.8668
vn -0.0136 0.9999 -0.0031
vn -0.0137 0.9999 0.0031
vn -0.0052 0.5013 -0.8652
vn -0.0221 0.5012 0.8650
vn -0.0221 0.4985 0.8666
vn -0.0221 -0.5012 0.8650
vn -0.0221 -0.4985 0.8666
vn -0.0136 -0.9999 -0.0031
vn -0.0137 -0.9999 0.0031
vn -0.0052 -0.4986 -0.8668
vn -0.0052 -0.5013 -0.8652
vn -0.0273 0.2361 0.9714
vn -0.0273 -0.7232 0.6901
vn -0.0273 -0.2361 -0.9714
vn -0.0052 0.4987 -0.8668
vn -0.0052 0.5014 -0.8652
vn -0.0221 0.5013 0.8650
vn -0.0221 0.4986 0.8666
vn -0.0221 -0.5013 0.8650
vn -0.0221 -0.4986 0.8666
vn -0.0052 -0.4987 -0.8668
vn -0.0052 -0.5014 -0.8652
vn -0.0136 0.9999 -0.0032
vn -0.0052 0.5013 -0.8653
vn -0.0222 0.4985 0.8666
vn -0.0222 -0.4985 0.8666
vn -0.0136 -0.9999 -0.0032
vn -0.0052 -0.5013 -0.8653
vn -0.0000 0.7915 -0.6112
vn -0.0000 0.9251 0.3798
vn -0.0000 0.1336 0.9910
vn -0.0000 -0.7915 0.6112
vn -0.0000 -0.9250 -0.3798
vn -0.0000 -0.1335 -0.9910
vn -0.0000 0.9250 0.3798
vn -0.0000 0.1335 0.9910
vn -0.0000 -0.9251 -0.3798
vn -0.0000 -0.1336 -0.9910
vn -0.0000 -0.7914 0.6112
vn -0.0000 -0.1337 -0.9910
vn 0.0134 0.9254 -0.3787
vn 0.0253 0.7908 0.6115
vn 0.0253 0.7945 0.6067
vn 0.0133 0.9227 -0.3852
vn 0.0299 -0.1307 0.9910
vn 0.0299 -0.1317 0.9908
vn 0.0226 -0.9226 0.3852
vn 0.0225 -0.9253 0.3787
vn 0.0107 -0.7947 -0.6069
vn 0.0106 -0.7910 -0.6117
vn 0.0061 0.1317 -0.9913
vn 0.0061 0.1307 -0.9914
vn -0.0274 -0.9592 -0.2813
vn -0.0274 -0.2360 -0.9714
vn -0.0274 0.7232 -0.6901
vt 0.832332 0.126450
vt 0.775006 0.334123
vt 0.832307 0.126450
vt 0.775006 0.334372
vt 0.832312 0.126450
vt 0.775006 0.334497
vt 0.832317 0.126450
vt 0.775006 0.334372
vt 0.832322 0.126450
vt 0.775006 0.334123
vt 0.832327 0.126450
vt 0.775006 0.333998
vt 0.832332 0.131659
vt 0.775006 0.334625
vt 0.832307 0.131659
vt 0.775006 0.334875
vt 0.832312 0.131659
vt 0.775006 0.335000
vt 0.832317 0.131659
vt 0.775006 0.334875
vt 0.832322 0.131659
vt 0.775006 0.334625
vt 0.832327 0.131659
vt 0.775006 0.334501
vt 0.832332 0.126450
vt 0.800317 0.449013
vt 0.832307 0.126450
vt 0.800317 0.450080
vt 0.832312 0.126450
vt 0.800317 0.450613
vt 0.832317 0.126450
vt 0.800317 0.450080
vt 0.832322 0.126450
vt 0.800317 0.449013
vt 0.832327 0.126450
vt 0.800317 0.448480
vt 0.832332 0.131659
vt 0.800317 0.451161
vt 0.832307 0.131659
vt 0.800317 0.452227
vt 0.832312 0.131659
vt 0.800317 0.452761
vt 0.832317 0.131659
vt 0.800317 0.452227
vt 0.832322 0.131659
vt 0.800317 0.451161
vt 0.832327 0.131659
vt 0.800317 0.450627
vt 0.832332 0.126450
vt 0.800317 0.449797
vt 0.832307 0.126450
vt 0.800317 0.449917
vt 0.832312 0.126450
vt 0.800317 0.449978
vt 0.832317 0.126450
vt 0.800317 0.449917
vt 0.832322 0.126450
vt 0.800317 0.449797
vt 0.832327 0.126450
vt 0.800317 0.449736
vt 0.832332 0.131659
vt 0.800317 0.450039
vt 0.832307 0.131659
vt 0.800317 0.450160
vt 0.832312 0.131659
vt 0.800317 0.450220
vt 0.832317 0.131659
vt 0.800317 0.450160
vt 0.832322 0.131659
vt 0.800317 0.450039
vt 0.832327 0.131659
vt 0.800317 0.449979
vt 0.832332 0.126450
vt 0.800317 0.449013
vt 0.832307 0.126450
vt 0.800317 0.450080
vt 0.832312 0.126450
vt 0.800317 0.450613
vt 0.832317 0.126450
vt 0.800317 0.450080
vt 0.832322 0.126450
vt 0.800317 0.449013
vt 0.832327 0.126450
vt 0.800317 0.448480
vt 0.832332 0.131659
vt 0.800317 0.451161
vt 0.832307 0.131659
vt 0.800317 0.452227
vt 0.832312 0.131659
vt 0.800317 0.452761
vt 0.832317 0.131659
vt 0.800317 0.452227
vt 0.832322 0.131659
vt 0.800317 0.451161
vt 0.832327 0.131659
vt 0.800317 0.450627
vt 0.832332 0.126450
vt 0.800317 0.449013
vt 0.832307 0.126450
vt 0.800317 0.450080
vt 0.832312 0.126450
vt 0.800317 0.450613
vt 0.832317 0.126450
vt 0.800317 0.450080
vt 0.832322 0.126450
vt 0.800317 0.449013
vt 0.832327 0.126450
vt 0.800317 0.448480
vt 0.832332 0.131659
vt 0.800317 0.451161
vt 0.832307 0.131659
vt 0.800317 0.452227
vt 0.832312 0.131659
vt 0.800317 0.452761
vt 0.832317 0.131659
vt 0.800317 0.452227
vt 0.832322 0.131659
vt 0.800317 0.451161
vt 0.832327 0.131659
vt 0.800317 0.450627
vt 0.832332 0.126450
vt 0.800264 0.384751
vt 0.832307 0.126450
vt 0.800264 0.385898
vt 0.832312 0.126450
vt 0.800264 0.386471
vt 0.832317 0.126450
vt 0.800264 0.385898
vt 0.832322 0.126450
vt 0.800264 0.384751
vt 0.832327 0.126450
vt 0.800264 0.384178
vt 0.832332 0.131659
vt 0.800264 0.387060
vt 0.832307 0.131659
vt 0.800264 0.388206
vt 0.832312 0.131659
vt 0.800264 0.388780
vt 0.832317 0.131659
vt 0.800264 0.388206
vt 0.832322 0.131659
vt 0.800264 0.387060
vt 0.832327 0.131659
vt 0.800264 0.386486
vt 0.832332 0.126450
vt 0.800264 0.384751
vt 0.832307 0.126450
vt 0.800264 0.385898
vt 0.832312 0.126450
vt 0.800264 0.386471
vt 0.832317 0.126450
vt 0.800264 0.385898
vt 0.832322 0.126450
vt 0.800264 0.384751
vt 0.832327 0.126450
vt 0.800264 0.384178
vt 0.832332 0.131659
vt 0.800264 0.387060
vt 0.832307 0.131659
vt 0.800264 0.388206
vt 0.832312 0.131659
vt 0.800264 0.388780
vt 0.832317 0.131659
vt 0.800264 0.388206
vt 0.832322 0.131659
vt 0.800264 0.387060
vt 0.832327 0.131659
vt 0.800264 0.386486
vt 0.832332 0.126450
vt 0.800264 0.384751
vt 0.832307 0.126450
vt 0.800264 0.385898
vt 0.832312 0.126450
vt 0.800264 0.386471
vt 0.832317 0.126450
vt 0.800264 0.385898
vt 0.832322 0.126450
vt 0.800264 0.384751
vt 0.832327 0.126450
vt 0.800264 0.384178
vt 0.832332 0.131659
vt 0.800264 0.387060
vt 0.832307 0.131659
vt 0.800264 0.388206
vt 0.832312 0.131659
vt 0.800264 0.388780
vt 0.832317 0.131659
vt 0.800264 0.388206
vt 0.832322 0.131659
vt 0.800264 0.387060
vt 0.832327 0.131659
vt 0.800264 0.386486
vt 0.832332 0.126450
vt 0.800264 0.384751
vt 0.832307 0.126450
vt 0.800264 0.385898
vt 0.832312 0.126450
vt 0.800264 0.386471
vt 0.832317 0.126450
vt 0.800264 0.385898
vt 0.832322 0.126450
vt 0.800264 0.384751
vt 0.832327 0.126450
vt 0.800264 0.384178
vt 0.832332 0.131659
vt 0.800264 0.387060
vt 0.832307 0.131659
vt 0.800264 0.388206
vt 0.832312 0.131659
vt 0.800264 0.388780
vt 0.832317 0.131659
vt 0.800264 0.388206
vt 0.832322 0.131659
vt 0.800264 0.387060
vt 0.832327 0.131659
vt 0.800264 0.386486
vt 0.832332 0.126450
vt 0.774992 0.376599
vt 0.832307 0.126450
vt 0.774992 0.381765
vt 0.832312 0.126450
vt 0.774992 0.384348
vt 0.832317 0.126450
vt 0.774992 0.381765
vt 0.832322 0.126450
vt 0.774992 0.376599
vt 0.832327 0.126450
vt 0.774992 0.374016
vt 0.832332 0.131659
vt 0.774992 0.387000
vt 0.832307 0.131659
vt 0.774992 0.392166
vt 0.832312 0.131659
vt 0.774992 0.394749
vt 0.832317 0.131659
vt 0.774992 0.392166
vt 0.832322 0.131659
vt 0.774992 0.387000
vt 0.832327 0.131659
vt 0.774992 0.384416
vt 0.832332 0.126450
vt 0.775006 0.334123
vt 0.832307 0.126450
vt 0.775006 0.334372
vt 0.832312 0.126450
vt 0.775006 0.334497
vt 0.832317 0.126450
vt 0.775006 0.334372
vt 0.832322 0.126450
vt 0.775006 0.334123
vt 0.832327 0.126450
vt 0.775006 0.333998
vt 0.832332 0.131659
vt 0.775006 0.334625
vt 0.832307 0.131659
vt 0.775006 0.334875
vt 0.832312 0.131659
vt 0.775006 0.335000
vt 0.832317 0.131659
vt 0.775006 0.334875
vt 0.832322 0.131659
vt 0.775006 0.334625
vt 0.832327 0.131659
vt 0.775006 0.334501
s 1
usemtl Material
f 1/1/1 2/3/2 8/15/2 7/13/1
f 2/3/2 3/5/3 9/17/3 8/15/2
f 3/5/3 4/7/4 10/19/4 9/17/3
f 4/7/4 5/9/5 11/21/5 10/19/4
f 5/9/5 6/11/6 12/23/6 11/21/5
f 6/11/6 1/1/1 7/13/1 12/23/6
f 3/6/7 2/4/7 1/2/7
f 4/8/7 3/6/7 1/2/7
f 5/10/7 4/8/7 1/2/7
f 6/12/7 5/10/7 1/2/7
f 8/16/8 9/18/8 7/14/8
f 9/18/8 10/20/8 7/14/8
f 10/20/8 11/22/8 7/14/8
f 11/22/8 12/24/8 7/14/8
f 13/25/9 14/27/10 20/39/11 19/37/12
f 14/27/10 15/29/13 21/41/14 20/39/11
f 15/29/13 16/31/15 22/43/16 21/41/14
f 16/31/15 17/33/17 23/45/18 22/43/16
f 17/33/17 18/35/19 24/47/20 23/45/18
f 18/35/19 13/25/9 19/37/12 24/47/20
f 15/30/7 14/28/7 13/26/7
f 16/32/7 15/30/7 13/26/7
f 17/34/7 16/32/7 13/26/7
f 18/36/7 17/34/7 13/26/7
f 20/40/8 21/42/8 19/38/8
f 21/42/8 22/44/8 19/38/8
f 22/44/8 23/46/8 19/38/8
f 23/46/8 24/48/8 19/38/8
f 25/49/1 26/51/21 32/63/21 31/61/1
f 26/51/21 27/53/22 33/65/22 32/63/21
f 27/53/22 28/55/4 34/67/4 33/65/22
f 28/55/4 29/57/23 35/69/23 34/67/4
f 29/57/23 30/59/6 36/71/6 35/69/23
f 30/59/6 25/49/1 31/61/1 36/71/6
f 27/54/7 26/52/7 25/50/7
f 28/56/7 27/54/7 25/50/7
f 29/58/7 28/56/7 25/50/7
f 30/60/7 29/58/7 25/50/7
f 32/64/8 33/66/8 31/62/8
f 33/66/8 34/68/8 31/62/8
f 34/68/8 35/70/8 31/62/8
f 35/70/8 36/72/8 31/62/8
f 37/73/24 38/75/10 44/87/11 43/85/25
f 38/75/10 39/77/26 45/89/27 44/87/11
f 39/77/26 40/79/28 46/91/29 45/89/27
f 40/79/28 41/81/17 47/93/18 46/91/29
f 41/81/17 42/83/30 48/95/31 47/93/18
f 42/83/30 37/73/24 43/85/25 48/95/31
f 39/78/7 38/76/7 37/74/7
f 40/80/7 39/78/7 37/74/7
f 41/82/7 40/80/7 37/74/7
f 42/84/7 41/82/7 37/74/7
f 44/88/8 45/90/8 43/86/8
f 45/90/8 46/92/8 43/86/8
f 46/92/8 47/94/8 43/86/8
f 47/94/8 48/96/8 43/86/8
f 49/97/9 50/99/32 56/111/11 55/109/33
f 50/99/32 51/101/13 57/113/34 56/111/11
f 51/101/13 52/103/15 58/115/35 57/113/34
f 52/103/15 53/105/36 59/117/18 58/115/35
f 53/105/36 54/107/19 60/119/37 59/117/18
f 54/107/19 49/97/9 55/109/33 60/119/37
f 51/102/7 50/100/7 49/98/7
f 52/104/7 51/102/7 49/98/7
f 53/106/7 52/104/7 49/98/7
f 54/108/7 53/106/7 49/98/7
f 56/112/8 57/114/8 55/110/8
f 57/114/8 58/116/8 55/110/8
f 58/116/8 59/118/8 55/110/8
f 59/118/8 60/120/8 55/110/8
f 61/121/38 62/123/39 68/135/39 67/133/38
f 62/123/39 63/125/40 69/137/40 68/135/39
f 63/125/40 64/127/41 70/139/41 69/137/40
f 64/127/41 65/129/42 71/141/42 70/139/41
f 65/129/42 66/131/43 72/143/43 71/141/42
f 66/131/43 61/121/38 67/133/38 72/143/43
f 63/126/7 62/124/7 61/122/7
f 64/128/7 63/126/7 61/122/7
f 65/130/7 64/128/7 61/122/7
f 66/132/7 65/130/7 61/122/7
f 68/136/8 69/138/8 67/134/8
f 69/138/8 70/140/8 67/134/8
f 70/140/8 71/142/8 67/134/8
f 71/142/8 72/144/8 67/134/8
f 73/145/44 74/147/45 80/159/45 79/157/44
f 74/147/45 75/149/41 81/161/41 80/159/45
f 75/149/41 76/151/46 82/163/46 81/161/41
f 76/151/46 77/153/47 83/165/47 82/163/46
f 77/153/47 78/155/38 84/167/38 83/165/47
f 78/155/38 73/145/44 79/157/44 84/167/38
f 75/150/7 74/148/7 73/146/7
f 76/152/7 75/150/7 73/146/7
f 77/154/7 76/152/7 73/146/7
f 78/156/7 77/154/7 73/146/7
f 80/160/8 81/162/8 79/158/8
f 81/162/8 82/164/8 79/158/8
f 82/164/8 83/166/8 79/158/8
f 83/166/8 84/168/8 79/158/8
f 85/169/45 86/171/41 92/183/41 91/181/45
f 86/171/41 87/173/46 93/185/46 92/183/41
f 87/173/46 88/175/47 94/187/47 93/185/46
f 88/175/47 89/177/38 95/189/38 94/187/47
f 89/177/38 90/179/44 96/191/44 95/189/38
f 90/179/44 85/169/45 91/181/45 96/191/44
f 87/174/7 86/172/7 85/170/7
f 88/176/7 87/174/7 85/170/7
f 89/178/7 88/176/7 85/170/7
f 90/180/7 89/178/7 85/170/7
f 92/184/8 93/186/8 91/182/8
f 93/186/8 94/188/8 91/182/8
f 94/188/8 95/190/8 91/182/8
f 95/190/8 96/192/8 91/182/8
f 97/193/38 98/195/44 104/207/44 103/205/38
f 98/195/44 99/197/40 105/209/40 104/207/44
f 99/197/40 100/199/48 106/211/48 105/209/40
f 100/199/48 101/201/46 107/213/46 106/211/48
f 101/201/46 102/203/49 108/215/49 107/213/46
f 102/203/49 97/193/38 103/205/38 108/215/49
f 99/198/7 98/196/7 97/194/7
f 100/200/7 99/198/7 97/194/7
f 101/202/7 100/200/7 97/194/7
f 102/204/7 101/202/7 97/194/7
f 104/208/8 105/210/8 103/206/8
f 105/210/8 106/212/8 103/206/8
f 106/212/8 107/214/8 103/206/8
f 107/214/8 108/216/8 103/206/8
f 109/217/50 110/219/51 116/231/52 115/229/53
f 110/219/51 111/221/54 117/233/55 116/231/52
f 111/221/54 112/223/56 118/235/57 117/233/55
f 112/223/56 113/225/58 119/237/59 118/235/57
f 113/225/58 114/227/60 120/239/61 119/237/59
f 114/227/60 109/217/50 115/229/53 120/239/61
f 111/222/7 110/220/7 109/218/7
f 112/224/7 111/222/7 109/218/7
f 113/226/7 112/224/7 109/218/7
f 114/228/7 113/226/7 109/218/7
f 116/232/8 117/234/8 115/230/8
f 117/234/8 118/236/8 115/230/8
f 118/236/8 119/238/8 115/230/8
f 119/238/8 120/240/8 115/230/8
f 121/241/1 122/243/21 128/255/21 127/253/1
f 122/243/21 123/245/22 129/257/22 128/255/21
f 123/245/22 124/247/62 130/259/62 129/257/22
f 124/247/62 125/249/63 131/261/63 130/259/62
f 125/249/63 126/251/64 132/263/64 131/261/63
f 126/251/64 121/241/1 127/253/1 132/263/64
f 123/246/7 122/244/7 121/242/7
f 124/248/7 123/246/7 121/242/7
f 125/250/7 124/248/7 121/242/7
f 126/252/7 125/250/7 121/242/7
f 128/256/8 129/258/8 127/254/8
f 129/258/8 130/260/8 127/254/8
f 130/260/8 131/262/8 127/254/8
f 131/262/8 132/264/8 127/254/8
