# Blender 3.3.1
# www.blender.org
mtllib log_002.mtl
o log_002
v 0.158178 -0.001662 -0.239522
v 0.041911 -0.001662 -0.346360
v 0.188361 0.494140 -0.255790
v 0.052379 0.474624 -0.371329
v -0.222038 -0.001662 -0.206210
v -0.098722 -0.001662 -0.323931
v -0.228096 0.429080 -0.219358
v -0.114221 0.448596 -0.356718
v 0.203109 0.494140 -0.087163
v 0.089236 0.474624 0.050141
v 0.170556 -0.001662 -0.098019
v 0.074609 -0.001662 0.027409
v -0.077364 0.448596 0.064752
v -0.213344 0.429080 -0.050759
v -0.209661 -0.001662 -0.064763
v -0.094272 -0.001662 0.032077
v -0.076320 0.389454 0.051549
v -0.192779 0.323511 -0.054460
v -0.207482 0.327477 -0.219413
v 0.486629 0.682592 -0.218115
v -0.032556 0.591499 -0.164447
v 0.471797 0.738161 -0.216845
v -0.041617 0.625406 -0.163674
v 0.475475 0.738161 -0.174778
v -0.039371 0.625406 -0.137986
v 0.490306 0.682592 -0.176048
v -0.030324 0.591499 -0.138787
v 0.144518 0.489013 -0.167016
v 0.003008 0.450950 -0.154642
v 0.047057 0.673849 -0.171712
v -0.017268 0.656549 -0.166077
v 0.049351 0.673850 -0.145472
v -0.014965 0.656549 -0.139809
v 0.222661 0.033658 0.354056
v 0.222661 0.088610 0.354056
v 0.186212 0.116086 0.323479
v 0.149742 0.088610 0.292903
v 0.149742 0.033658 0.292903
v 0.186212 0.006183 0.323479
v 0.081103 0.033658 0.522765
v 0.081103 0.088610 0.522765
v 0.044633 0.116086 0.492161
v 0.008185 0.088610 0.461612
v 0.008185 0.033659 0.461612
v 0.044633 0.006183 0.492161
v 0.262493 0.033584 0.157946
v 0.262493 0.099820 0.157946
v 0.242880 0.132938 0.104057
v 0.223258 0.099820 0.050141
v 0.223258 0.033584 0.050113
v 0.242880 0.000466 0.104057
v -0.274731 0.033584 0.353503
v -0.274731 0.099820 0.353503
v -0.294348 0.132938 0.299532
v -0.313970 0.099820 0.245671
v -0.313970 0.033584 0.245671
v -0.294348 0.000466 0.299532
vn 0.3379 -0.0665 -0.9388
vn 0.2988 -0.0667 -0.9520
vn -0.4647 -0.0547 -0.8838
vn -0.4351 -0.0762 -0.8971
vn 0.4467 -0.0601 0.8926
vn 0.4925 -0.0798 0.8666
vn -0.3074 -0.1143 0.9447
vn -0.3504 -0.0254 0.9362
vn -0.8794 -0.0737 0.4704
vn -0.9432 -0.0835 -0.3215
vn -0.9548 0.0061 -0.2972
vn -0.8965 0.0272 0.4422
vn 0.9597 -0.0661 0.2733
vn 0.9559 -0.0661 0.2863
vn 0.8917 -0.0660 -0.4479
vn 0.8977 -0.0661 -0.4357
vn -0.1532 0.9881 0.0134
vn -0.2249 -0.2059 0.9524
vn -0.8656 -0.1929 0.4621
vn -0.9345 -0.1881 -0.3023
vn -0.1020 -0.0045 -0.9948
vn -0.2126 0.9770 0.0186
vn 0.0721 -0.0039 0.9974
vn -0.9622 -0.2589 0.0839
vn 0.9623 0.2588 -0.0841
vn -0.0703 -0.0623 -0.9956
vn 0.3854 0.9222 -0.0337
vn -0.2578 0.9659 0.0226
vn 0.3852 0.9222 -0.0337
vn 0.1038 -0.0624 0.9926
vn -0.9919 -0.0930 0.0870
vn 0.8827 0.4635 -0.0772
vn 0.6634 -0.5000 0.5567
vn 0.6634 0.5000 0.5567
vn -0.0000 1.0000 -0.0000
vn -0.0002 1.0000 -0.0001
vn -0.6634 0.5000 -0.5567
vn -0.6635 0.4999 -0.5567
vn -0.6634 -0.5000 -0.5567
vn -0.6635 -0.4999 -0.5567
vn -0.0000 -1.0000 -0.0000
vn -0.0002 -1.0000 -0.0001
vn 0.6426 -0.0001 -0.7662
vn 0.6426 0.0001 -0.7662
vn 0.6426 -0.0000 -0.7662
vn 0.6426 -0.0002 -0.7662
vn 0.6425 -0.0000 -0.7663
vn -0.6428 -0.0000 0.7660
vn -0.6426 -0.0000 0.7662
vn -0.6424 -0.0000 0.7664
vn 0.2962 -0.5001 0.8137
vn 0.2962 0.5001 0.8137
vn 0.2962 0.5000 0.8138
vn 0.2962 -0.5000 0.8138
vn -0.0000 1.0000 -0.0001
vn -0.2962 0.5000 -0.8138
vn -0.2962 -0.4999 -0.8138
vn -0.2962 -0.4999 -0.8139
vn -0.0000 -1.0000 -0.0001
vn 0.9397 -0.0000 -0.3420
vn 0.9397 -0.0000 -0.3419
vn 0.9398 0.0001 -0.3417
vn -0.9398 -0.0000 0.3416
vn -0.9397 -0.0000 0.3420
vn -0.9396 -0.0000 0.3423
vn 0.1713 -0.9851 -0.0149
vt 0.832362 0.222248
vt 0.832364 0.222248
vt 0.832314 0.364869
vt 0.832362 0.222529
vt 0.832317 0.364531
vt 0.832364 0.222529
vt 0.832366 0.222248
vt 0.832365 0.222248
vt 0.832324 0.364869
vt 0.832366 0.222529
vt 0.832321 0.364531
vt 0.832365 0.222529
vt 0.832361 0.222529
vt 0.832314 0.365321
vt 0.832363 0.222725
vt 0.832317 0.365660
vt 0.832364 0.222809
vt 0.832363 0.223174
vt 0.832361 0.222248
vt 0.832364 0.223090
vt 0.832321 0.365660
vt 0.832365 0.222809
vt 0.832324 0.365321
vt 0.832365 0.222725
vt 0.832367 0.222529
vt 0.832367 0.222248
vt 0.832365 0.223174
vt 0.832365 0.223090
vt 0.832365 0.222844
vt 0.832365 0.222788
vt 0.832367 0.222489
vt 0.832366 0.222492
vt 0.832337 0.263208
vt 0.832354 0.263208
vt 0.832337 0.265100
vt 0.832354 0.265100
vt 0.832337 0.266992
vt 0.832321 0.265100
vt 0.832354 0.266992
vt 0.832370 0.265100
vt 0.832337 0.268884
vt 0.832321 0.263208
vt 0.832370 0.263208
vt 0.832354 0.268884
vt 0.877033 0.334420
vt 0.876972 0.332613
vt 0.877155 0.334420
vt 0.877216 0.332613
vt 0.877033 0.333215
vt 0.877155 0.333215
vt 0.877033 0.333818
vt 0.876911 0.333215
vt 0.877155 0.333818
vt 0.877277 0.333215
vt 0.832364 0.222487
vt 0.832348 0.370033
vt 0.832364 0.222487
vt 0.832350 0.370033
vt 0.832364 0.222487
vt 0.832351 0.369821
vt 0.832364 0.222487
vt 0.832350 0.369610
vt 0.832364 0.222487
vt 0.832348 0.369610
vt 0.832364 0.222487
vt 0.832347 0.369821
vt 0.832364 0.222341
vt 0.832348 0.368535
vt 0.832364 0.222341
vt 0.832350 0.368535
vt 0.832364 0.222341
vt 0.832351 0.368747
vt 0.832364 0.222341
vt 0.832350 0.368958
vt 0.832364 0.222341
vt 0.832348 0.368958
vt 0.832364 0.222341
vt 0.832347 0.368746
vt 0.832364 0.222487
vt 0.832348 0.370033
vt 0.832364 0.222487
vt 0.832350 0.370033
vt 0.832364 0.222487
vt 0.832351 0.369821
vt 0.832364 0.222487
vt 0.832350 0.369610
vt 0.832364 0.222487
vt 0.832348 0.369610
vt 0.832364 0.222487
vt 0.832347 0.369821
vt 0.832364 0.222341
vt 0.832348 0.368535
vt 0.832364 0.222341
vt 0.832350 0.368535
vt 0.832364 0.222341
vt 0.832351 0.368747
vt 0.832364 0.222341
vt 0.832350 0.368958
vt 0.832364 0.222341
vt 0.832348 0.368958
vt 0.832364 0.222341
vt 0.832347 0.368746
s 1
usemtl Material
f 4/6/1 2/2/2 6/8/3 8/12/4
f 12/20/5 10/17/6 17/29/7 16/28/8
f 18/31/9 19/32/10 5/7/11 15/26/12
f 9/13/13 11/19/14 1/1/15 3/4/16
f 3/3/17 4/5/17 8/11/17 7/9/17 14/23/17 13/21/17 10/16/17 9/14/17
f 1/1/15 2/2/2 4/6/1 3/4/16
f 6/8/3 5/7/11 19/32/10 8/12/4
f 9/15/13 10/17/6 12/20/5 11/18/14
f 17/29/7 18/30/9 15/27/12 16/28/8
f 17/29/7 10/17/6 13/22/18
f 13/22/18 14/24/19 18/30/9 17/29/7
f 7/10/20 19/32/10 18/31/9 14/25/19
f 8/12/4 19/32/10 7/10/20
f 20/33/21 21/34/21 23/36/21 22/35/21
f 22/35/22 23/36/22 25/39/22 24/37/22
f 24/37/23 25/39/23 27/44/23 26/41/23
f 21/34/24 27/43/24 25/40/24 23/36/24
f 26/42/25 20/33/25 22/35/25 24/38/25
f 28/46/26 29/48/26 31/50/26 30/49/26
f 30/49/27 31/50/28 33/53/28 32/51/29
f 32/51/30 33/53/30 29/47/30 28/45/30
f 29/48/31 33/54/31 31/50/31
f 28/46/32 30/49/27 32/52/29
f 34/55/33 35/57/34 41/69/34 40/67/33
f 35/57/34 36/59/35 42/71/36 41/69/34
f 36/59/35 37/61/37 43/73/38 42/71/36
f 37/61/37 38/63/39 44/75/40 43/73/38
f 38/63/39 39/65/41 45/77/42 44/75/40
f 39/65/41 34/55/33 40/67/33 45/77/42
f 35/58/43 34/56/44 37/62/45
f 36/60/46 35/58/43 37/62/45
f 39/66/44 38/64/47 37/62/45
f 34/56/44 39/66/44 37/62/45
f 40/68/48 41/70/48 42/72/49
f 43/74/50 44/76/50 42/72/49
f 44/76/50 45/78/49 42/72/49
f 45/78/49 40/68/48 42/72/49
f 46/79/51 47/81/52 53/93/53 52/91/54
f 47/81/52 48/83/55 54/95/55 53/93/53
f 48/83/55 49/85/56 55/97/56 54/95/55
f 49/85/56 50/87/57 56/99/58 55/97/56
f 50/87/57 51/89/59 57/101/59 56/99/58
f 51/89/59 46/79/51 52/91/54 57/101/59
f 47/82/60 46/80/60 49/86/61
f 48/84/60 47/82/60 49/86/61
f 51/90/61 50/88/62 49/86/61
f 46/80/60 51/90/61 49/86/61
f 52/92/63 53/94/63 54/96/64
f 55/98/65 56/100/65 54/96/64
f 56/100/65 57/102/64 54/96/64
f 57/102/64 52/92/63 54/96/64
f 2/2/41 1/1/41 11/19/41 12/20/41 16/28/41 15/27/41 5/7/41 6/8/41
f 20/33/66 26/42/66 27/44/66 21/34/66
