# Blender 3.3.1
# www.blender.org
mtllib plate_001.mtl
o plate_001
v -0.243629 0.036741 -0.140651
v -0.243629 0.036741 0.140670
v -0.000000 0.036741 0.281317
v 0.243629 0.036741 0.140670
v 0.243629 0.036741 -0.140651
v -0.000000 0.036741 -0.281325
v -0.243629 0.071741 -0.140651
v -0.243629 0.071741 0.140670
v -0.000000 0.071741 0.281317
v 0.243629 0.071741 0.140670
v 0.243629 0.071741 -0.140651
v -0.000000 0.071741 -0.281325
v -0.133337 0.031507 -0.076984
v -0.133337 0.031507 0.076976
v -0.000000 0.031507 0.153983
v 0.133336 0.031507 0.076976
v 0.133336 0.031507 -0.076984
v -0.000000 0.031507 -0.153964
v -0.000000 -0.000000 -0.162826
v 0.141010 0.000001 -0.081409
v 0.141004 -0.000001 0.081413
v -0.000000 -0.000000 0.162817
v -0.141004 -0.000001 0.081413
v -0.141010 0.000001 -0.081409
vn -0.8660 -0.0000 -0.5000
vn -0.8660 -0.0000 0.5000
vn -0.0000 -0.0000 1.0000
vn 0.8660 -0.0000 0.5000
vn 0.8660 -0.0000 -0.5000
vn -0.0000 -0.0000 -1.0000
vn -0.0000 -0.9551 0.2961
vn -0.2565 -0.9551 0.1481
vn 0.2565 -0.9551 0.1481
vn 0.2565 -0.9551 -0.1481
vn -0.0000 -0.9551 -0.2961
vn -0.2565 -0.9551 -0.1481
vn -0.0000 1.0000 -0.0000
vn -0.0000 0.9535 0.3012
vn 0.2609 0.9535 0.1506
vn 0.2609 0.9535 -0.1506
vn -0.0000 0.9535 -0.3012
vn -0.2609 0.9535 -0.1506
vn -0.2609 0.9535 0.1506
vn -0.0000 -1.0000 -0.0000
vt 0.800261 0.382400
vt 0.800261 0.382400
vt 0.800261 0.382400
vt 0.800261 0.382400
vt 0.800261 0.382400
vt 0.800261 0.382400
vt 0.800261 0.382400
vt 0.800261 0.382400
vt 0.800261 0.382400
vt 0.800261 0.382400
vt 0.800261 0.382400
vt 0.800261 0.382400
vt 0.800261 0.382400
vt 0.800261 0.382400
vt 0.800261 0.382400
vt 0.800261 0.382400
vt 0.800261 0.382400
vt 0.800261 0.382400
vt 0.800261 0.382400
vt 0.800261 0.382400
vt 0.800261 0.382400
vt 0.800261 0.382400
vt 0.800261 0.382400
vt 0.800261 0.382400
s 1
usemtl Material
f 1/1/1 2/2/2 8/8/2 7/7/1
f 2/2/2 3/3/3 9/9/3 8/8/2
f 3/3/3 4/4/4 10/10/4 9/9/3
f 4/4/4 5/5/5 11/11/5 10/10/4
f 5/5/5 6/6/6 12/12/6 11/11/5
f 6/6/6 1/1/1 7/7/1 12/12/6
f 3/3/7 2/2/8 23/23/8 22/22/7
f 4/4/9 3/3/7 22/22/7 21/21/9
f 5/5/10 4/4/9 21/21/9 20/20/10
f 6/6/11 5/5/10 20/20/10 19/19/11
f 2/2/8 1/1/12 24/24/12 23/23/8
f 18/18/13 13/13/13 14/14/13 15/15/13 16/16/13 17/17/13
f 12/12/14 7/7/15 13/13/15 18/18/14
f 7/7/15 8/8/16 14/14/16 13/13/15
f 8/8/16 9/9/17 15/15/17 14/14/16
f 9/9/17 10/10/18 16/16/18 15/15/17
f 10/10/18 11/11/19 17/17/19 16/16/18
f 11/11/19 12/12/14 18/18/14 17/17/19
f 19/19/20 20/20/20 21/21/20 22/22/20 23/23/20 24/24/20
f 1/1/12 6/6/11 19/19/11 24/24/12
