# Blender 3.3.1
# www.blender.org
mtllib plate_003.mtl
o plate_003
v -0.152625 0.033732 -0.088134
v -0.152625 0.033732 0.088117
v 0.000000 0.033732 0.176228
v 0.152625 0.033732 0.088117
v 0.152625 0.033732 -0.088134
v 0.000000 0.033732 -0.176245
v -0.152625 0.068731 -0.088134
v -0.152625 0.068731 0.088117
v 0.000000 0.068731 0.176228
v 0.152625 0.068731 0.088117
v 0.152625 0.068731 -0.088134
v 0.000000 0.068731 -0.176245
v -0.083530 0.028498 -0.048221
v -0.083530 0.028498 0.048204
v 0.000000 0.028498 0.096430
v 0.083531 0.028498 0.048204
v 0.083531 0.028498 -0.048221
v 0.000000 0.028498 -0.096448
v 0.000000 -0.000003 -0.108079
v 0.093597 -0.000002 -0.054046
v 0.093603 0.000001 0.054043
v 0.000000 0.000004 0.108086
v -0.093603 0.000001 0.054043
v -0.093598 -0.000002 -0.054046
vn -0.8660 -0.0000 -0.5000
vn -0.8660 -0.0000 0.5000
vn -0.0000 -0.0000 1.0000
vn 0.8660 -0.0000 0.5000
vn 0.8660 -0.0000 -0.5000
vn -0.0000 -0.0000 -1.0000
vn -0.0000 -0.8962 0.4436
vn -0.3841 -0.8962 0.2218
vn 0.3842 -0.8962 0.2218
vn 0.3841 -0.8962 0.2218
vn 0.3841 -0.8962 -0.2218
vn -0.0000 -0.8963 -0.4435
vn -0.3841 -0.8962 -0.2218
vn -0.0000 1.0000 -0.0000
vn -0.0000 0.8929 0.4502
vn 0.3899 0.8929 0.2251
vn 0.3899 0.8929 -0.2251
vn -0.0000 0.8929 -0.4502
vn -0.3899 0.8929 -0.2251
vn -0.3899 0.8929 0.2251
vn -0.0000 -1.0000 -0.0000
vt 0.800261 0.382400
vt 0.800261 0.382400
vt 0.800261 0.382400
vt 0.800261 0.382400
vt 0.800261 0.382400
vt 0.800261 0.382400
vt 0.800261 0.382400
vt 0.800261 0.382400
vt 0.800261 0.382400
vt 0.800261 0.382400
vt 0.800261 0.382400
vt 0.800261 0.382400
vt 0.800261 0.382400
vt 0.800261 0.382400
vt 0.800261 0.382400
vt 0.800261 0.382400
vt 0.800261 0.382400
vt 0.800261 0.382400
vt 0.800261 0.382400
vt 0.800261 0.382400
vt 0.800261 0.382400
vt 0.800261 0.382400
vt 0.800261 0.382400
vt 0.800261 0.382400
s 1
usemtl Material
f 1/1/1 2/2/2 8/8/2 7/7/1
f 2/2/2 3/3/3 9/9/3 8/8/2
f 3/3/3 4/4/4 10/10/4 9/9/3
f 4/4/4 5/5/5 11/11/5 10/10/4
f 5/5/5 6/6/6 12/12/6 11/11/5
f 6/6/6 1/1/1 7/7/1 12/12/6
f 3/3/7 2/2/8 23/23/8 22/22/7
f 4/4/9 3/3/7 22/22/7 21/21/10
f 5/5/11 4/4/9 21/21/10 20/20/11
f 6/6/12 5/5/11 20/20/11 19/19/12
f 2/2/8 1/1/13 24/24/13 23/23/8
f 18/18/14 13/13/14 14/14/14 15/15/14 16/16/14 17/17/14
f 12/12/15 7/7/16 13/13/16 18/18/15
f 7/7/16 8/8/17 14/14/17 13/13/16
f 8/8/17 9/9/18 15/15/18 14/14/17
f 9/9/18 10/10/19 16/16/19 15/15/18
f 10/10/19 11/11/20 17/17/20 16/16/19
f 11/11/20 12/12/15 18/18/15 17/17/20
f 19/19/21 20/20/21 21/21/21 22/22/21 23/23/21 24/24/21
f 1/1/13 6/6/12 19/19/12 24/24/13
