# Blender 3.3.1
# www.blender.org
mtllib pointer_001.mtl
o pointer_001
v 0.019887 1.392577 -0.024434
v 0.086466 1.432153 -0.075602
v 0.109716 1.417036 -0.035330
v 0.109716 1.368117 -0.035330
v 0.086466 1.353001 -0.075602
v 0.072075 1.392577 -0.100502
v 0.214324 1.329409 0.181993
v 0.020258 1.281972 -0.154101
v 0.214324 1.483304 0.181993
v 0.020222 1.483785 -0.171778
v 0.166755 1.483304 0.209489
v -0.027307 1.483439 -0.144254
v 0.166755 1.329409 0.209489
v -0.027328 1.282745 -0.126701
v -0.122128 1.366482 -0.305105
v -0.074565 1.366482 -0.332547
v 0.013080 1.821845 0.020920
v 0.089199 1.868793 0.085139
v 0.048399 1.850861 0.122290
v 0.048399 1.792830 0.122290
v 0.089199 1.774897 0.085139
v 0.114419 1.821845 0.062186
v -0.177017 1.746911 0.298512
v 0.163434 1.690637 -0.011424
v -0.177017 1.929472 0.298512
v 0.183908 1.930042 -0.015940
v -0.220879 1.929472 0.250327
v 0.139972 1.929632 -0.064056
v -0.220879 1.746911 0.250327
v 0.119618 1.691555 -0.059650
v 0.302396 1.790889 -0.214688
v 0.346261 1.790889 -0.166475
v -0.058246 0.119514 -0.058256
v -0.079568 0.119514 0.021321
v -0.021324 0.119514 0.079574
v 0.058241 0.119514 0.058250
v 0.079562 0.119514 -0.021326
v 0.021318 0.119514 -0.079579
v -0.042904 1.030810 -0.042898
v -0.058607 1.030810 0.015700
v -0.015704 1.030810 0.058609
v 0.042901 1.030810 0.042893
v 0.058603 1.030810 -0.015705
v 0.015701 1.030810 -0.058615
v -0.052485 2.154124 -0.052483
v -0.071692 2.154124 0.019208
v -0.019214 2.154124 0.071702
v 0.052482 2.154124 0.052477
v 0.071689 2.154124 -0.019213
v 0.019209 2.154124 -0.071693
v -0.015388 2.173590 0.057422
v 0.042031 2.173590 0.042023
v -0.057417 2.173590 0.015382
v 0.057414 2.173590 -0.015374
v 0.015385 2.173590 -0.057427
v -0.042036 2.173590 -0.042028
v -0.091845 0.000000 -0.091843
v -0.125465 0.000000 0.033626
v -0.033620 0.000000 0.125466
v 0.091842 0.000000 0.091837
v 0.125462 0.000000 -0.033618
v 0.033617 0.000000 -0.125471
v -0.079956 0.181359 -0.079952
v -0.109219 0.181359 0.029262
v -0.029266 0.181359 0.109225
v 0.079951 0.181359 0.079947
v 0.109215 0.181359 -0.029267
v 0.029261 0.181359 -0.109203
v 0.043196 1.016703 0.009679
v 0.126435 1.056280 0.020561
v 0.114398 1.041163 0.065501
v 0.114398 0.992244 0.065501
v 0.126435 0.977127 0.020561
v 0.133879 1.016703 -0.007198
v 0.034687 0.907408 0.293140
v 0.142689 0.926840 -0.109935
v 0.034687 1.153557 0.293140
v 0.135338 1.094683 -0.082493
v -0.018370 1.153557 0.278929
v 0.082281 1.094683 -0.096704
v -0.018370 0.907408 0.278929
v 0.089634 0.926840 -0.124146
v 0.082093 0.851358 -0.096014
v 0.135136 0.850094 -0.081733
v 0.094530 1.138245 -0.142417
v 0.147604 1.138811 -0.128261
v 0.162393 0.977666 -0.395689
v 0.215451 0.977666 -0.381477
vn -0.1864 0.8796 0.4378
vn 0.1204 -0.0000 0.9927
vn -0.1864 -0.8796 0.4378
vn -0.6895 -0.5484 -0.4731
vn -0.6896 0.5484 -0.4731
vn 0.8660 -0.0000 -0.5000
vn 0.8660 -0.0000 -0.5001
vn 0.8658 -0.0000 -0.5004
vn 0.8720 -0.0242 -0.4890
vn 0.8728 -0.0318 -0.4871
vn -0.0024 1.0000 0.0022
vn -0.1414 0.9608 -0.2386
vn -0.1403 0.9614 -0.2366
vn -0.8720 0.0243 0.4889
vn -0.8728 0.0319 0.4870
vn 0.0541 -0.9927 0.1077
vn -0.0732 -0.9909 -0.1130
vn -0.0754 -0.9903 -0.1169
vn 0.5005 -0.0000 0.8658
vn -0.8739 0.0424 0.4843
vn 0.8738 -0.0423 -0.4844
vn -0.1978 -0.9230 -0.3301
vn -0.2683 0.8471 -0.4588
vn -0.4675 0.8795 -0.0889
vn -0.9443 -0.0000 0.3290
vn -0.4675 -0.8795 -0.0889
vn 0.3154 -0.5482 -0.7746
vn 0.3154 0.5482 -0.7746
vn 0.6733 -0.0000 0.7394
vn 0.6732 -0.0000 0.7395
vn 0.6731 -0.0000 0.7396
vn 0.6637 -0.0242 0.7476
vn 0.6620 -0.0318 0.7488
vn 0.6620 -0.0318 0.7489
vn -0.0026 1.0000 -0.0019
vn 0.2030 0.9608 -0.1891
vn 0.2012 0.9614 -0.1875
vn -0.6637 0.0243 -0.7476
vn -0.6620 0.0320 -0.7488
vn -0.6620 0.0319 -0.7488
vn -0.0937 -0.9927 0.0758
vn 0.0948 -0.9909 -0.0956
vn 0.0981 -0.9903 -0.0986
vn -0.7395 -0.0000 0.6732
vn -0.6596 0.0425 -0.7504
vn 0.6596 -0.0423 0.7504
vn 0.2803 -0.9230 -0.2636
vn 0.3910 0.8471 -0.3600
vn -0.7069 0.0238 -0.7069
vn -0.9657 0.0238 0.2587
vn -0.9659 0.0059 0.2588
vn -0.7071 0.0059 -0.7071
vn -0.2587 0.0238 0.9657
vn -0.2588 0.0059 0.9659
vn 0.7069 0.0238 0.7069
vn 0.7072 0.0059 0.7070
vn 0.9657 0.0238 -0.2587
vn 0.9659 0.0059 -0.2588
vn 0.2587 0.0238 -0.9657
vn 0.2588 0.0059 -0.9659
vn -0.1416 0.8371 0.5285
vn 0.3869 0.8371 0.3868
vn -0.5285 0.8370 0.1416
vn 0.5285 0.8370 -0.1415
vn 0.1416 0.8370 -0.5285
vn -0.3869 0.8370 -0.3869
vn -0.9255 0.2862 0.2479
vn -0.6775 0.2862 -0.6775
vn -0.2480 0.2863 0.9255
vn 0.6776 0.2862 0.6775
vn 0.9255 0.2862 -0.2480
vn 0.2480 0.2862 -0.9255
vn -0.7041 0.0924 -0.7041
vn -0.9618 0.0923 0.2577
vn -0.2577 0.0923 0.9618
vn 0.7041 0.0923 0.7041
vn 0.9618 0.0924 -0.2577
vn 0.2577 0.0924 -0.9618
vn -0.0000 1.0000 -0.0000
vn -0.4414 0.8795 0.1776
vn -0.6170 -0.0000 0.7870
vn -0.4414 -0.8796 0.1776
vn -0.1530 -0.5480 -0.8223
vn -0.1530 0.5480 -0.8223
vn 0.9659 -0.0000 0.2587
vn 0.9659 -0.0000 0.2588
vn 0.9659 -0.0000 0.2590
vn 0.0387 0.9887 -0.1446
vn -0.0779 0.9558 0.2835
vn -0.0779 0.9558 0.2834
vn -0.9659 -0.0000 -0.2588
vn 0.0120 -0.9989 -0.0449
vn -0.2587 -0.0000 0.9660
vn -0.2382 0.3578 0.9029
vn -0.1791 0.7338 0.6554
vn 0.9659 0.0001 0.2588
vn 0.0879 -0.9255 -0.3684
vn 0.1308 0.8523 -0.5064
vn -0.0000 -1.0000 -0.0000
vt 0.876979 0.158533
vt 0.876979 0.157714
vt 0.876979 0.157053
vt 0.876979 0.157714
vt 0.876979 0.157175
vt 0.876979 0.157714
vt 0.876979 0.157575
vt 0.876979 0.157699
vt 0.876979 0.157714
vt 0.876979 0.157375
vt 0.008463 0.820158
vt 0.008463 0.822881
vt 0.008463 0.820988
vt 0.008463 0.822909
vt 0.008463 0.822200
vt 0.008463 0.822157
vt 0.008463 0.821519
vt 0.008463 0.822200
vt 0.008463 0.821668
vt 0.008463 0.822153
vt 0.008463 0.820839
vt 0.008463 0.822881
vt 0.008463 0.821382
vt 0.008463 0.822887
vt 0.008463 0.822540
vt 0.008463 0.822540
vt 0.876979 0.158533
vt 0.876979 0.157714
vt 0.876979 0.157053
vt 0.876979 0.157714
vt 0.876979 0.157175
vt 0.876979 0.157714
vt 0.876979 0.157575
vt 0.876979 0.157699
vt 0.876979 0.157714
vt 0.876979 0.157375
vt 0.271518 0.870588
vt 0.271518 0.864031
vt 0.271012 0.868590
vt 0.271518 0.863963
vt 0.271518 0.865671
vt 0.271518 0.865773
vt 0.271518 0.867310
vt 0.271518 0.865671
vt 0.271518 0.866951
vt 0.271518 0.865784
vt 0.271518 0.868949
vt 0.271518 0.864031
vt 0.271289 0.867641
vt 0.271518 0.864015
vt 0.271518 0.864851
vt 0.271518 0.864851
vt 0.800214 0.304621
vt 0.800214 0.304621
vt 0.800214 0.304621
vt 0.800214 0.304621
vt 0.800214 0.304621
vt 0.800214 0.304621
vt 0.800214 0.303728
vt 0.800214 0.303038
vt 0.800214 0.303728
vt 0.800214 0.303038
vt 0.800214 0.303728
vt 0.800214 0.303360
vt 0.800214 0.303681
vt 0.800214 0.303681
vt 0.800214 0.303728
vt 0.800214 0.303360
vt 0.800214 0.303038
vt 0.775052 0.335341
vt 0.800214 0.303039
vt 0.775052 0.338314
vt 0.800214 0.303360
vt 0.775052 0.339801
vt 0.800214 0.303681
vt 0.775052 0.338314
vt 0.800214 0.303681
vt 0.775052 0.335341
vt 0.800214 0.303360
vt 0.775052 0.333854
vt 0.775052 0.339209
vt 0.775052 0.338018
vt 0.775052 0.338018
vt 0.775052 0.335637
vt 0.775052 0.334446
vt 0.775052 0.335637
vt 0.876979 0.158533
vt 0.876979 0.158533
vt 0.876979 0.158533
vt 0.876979 0.158533
vt 0.876979 0.158533
vt 0.876979 0.158533
vt 0.876979 0.157714
vt 0.876979 0.157080
vt 0.876979 0.157714
vt 0.876979 0.157081
vt 0.876979 0.157714
vt 0.876979 0.157375
vt 0.876979 0.157670
vt 0.876979 0.157670
vt 0.876979 0.157714
vt 0.876979 0.157375
vt 0.876979 0.158533
vt 0.876979 0.157714
vt 0.876979 0.157053
vt 0.876979 0.157714
vt 0.876979 0.157175
vt 0.876979 0.157714
vt 0.876979 0.157575
vt 0.876979 0.157699
vt 0.876979 0.157714
vt 0.876979 0.157375
vt 0.877069 0.334599
vt 0.877069 0.334953
vt 0.877069 0.334599
vt 0.877069 0.334953
vt 0.877069 0.334865
vt 0.877069 0.334865
vt 0.877069 0.334865
vt 0.877069 0.334865
vt 0.877069 0.334688
vt 0.877069 0.334953
vt 0.877069 0.334688
vt 0.877069 0.334953
vt 0.877069 0.334953
vt 0.877069 0.334953
vt 0.877069 0.334865
vt 0.877069 0.334865
vt 0.877069 0.334909
vt 0.877069 0.334909
s 1
usemtl Material
f 1/1/1 3/4/1 2/2/1
f 1/1/2 4/6/2 3/4/2
f 1/1/3 5/8/3 4/6/3
f 1/1/4 6/9/4 5/8/4
f 1/1/5 2/2/5 6/9/5
f 3/5/6 4/7/6 2/3/7
f 4/7/6 5/8/7 2/3/7
f 5/8/7 6/10/8 2/3/7
f 7/12/9 8/14/10 10/16/10 9/15/9
f 9/15/11 10/16/12 12/19/13 11/17/11
f 11/17/14 12/19/15 14/23/15 13/21/14
f 13/21/16 14/23/17 8/13/18 7/11/16
f 13/22/19 7/12/19 9/15/19 11/18/19
f 14/24/15 12/20/15 15/25/20
f 10/16/10 8/14/10 16/26/21
f 8/14/18 14/24/17 15/25/22 16/26/22
f 12/20/13 10/16/12 16/26/23 15/25/23
f 17/27/24 19/30/24 18/28/24
f 17/27/25 20/32/25 19/30/25
f 17/27/26 21/34/26 20/32/26
f 17/27/27 22/35/27 21/34/27
f 17/27/28 18/28/28 22/35/28
f 19/31/29 20/33/29 18/29/30
f 20/33/29 21/34/30 18/29/30
f 21/34/30 22/36/31 18/29/30
f 23/38/32 24/40/33 26/42/34 25/41/32
f 25/41/35 26/42/36 28/45/37 27/43/35
f 27/43/38 28/45/39 30/49/40 29/47/38
f 29/47/41 30/49/42 24/39/43 23/37/41
f 29/48/44 23/38/44 25/41/44 27/44/44
f 30/50/40 28/46/39 31/51/45
f 26/42/34 24/40/33 32/52/46
f 24/40/43 30/50/42 31/51/47 32/52/47
f 28/46/37 26/42/36 32/52/48 31/51/48
f 33/53/49 34/54/50 40/61/51 39/59/52
f 34/54/50 35/55/53 41/63/54 40/61/51
f 35/55/53 36/56/55 42/65/56 41/63/54
f 36/56/55 37/57/57 43/66/58 42/65/56
f 37/57/57 38/58/59 44/67/60 43/66/58
f 38/58/59 33/53/49 39/59/52 44/67/60
f 51/81/61 52/82/62 53/83/63
f 52/82/62 54/84/64 53/83/63
f 54/84/64 55/85/65 53/83/63
f 55/85/65 56/86/66 53/83/63
f 39/60/52 40/62/51 46/71/67 45/69/68
f 40/62/51 41/64/54 47/73/69 46/71/67
f 41/64/54 42/65/56 48/75/70 47/73/69
f 42/65/56 43/66/58 49/77/71 48/75/70
f 43/66/58 44/68/60 50/79/72 49/77/71
f 44/68/60 39/60/52 45/69/68 50/79/72
f 47/74/69 48/76/70 52/82/62 51/81/61
f 46/72/67 47/74/69 51/81/61 53/83/63
f 48/76/70 49/78/71 54/84/64 52/82/62
f 49/78/71 50/80/72 55/85/65 54/84/64
f 50/80/72 45/70/68 56/86/66 55/85/65
f 45/70/68 46/72/67 53/83/63 56/86/66
f 57/87/73 58/88/74 64/95/74 63/93/73
f 58/88/74 59/89/75 65/97/75 64/95/74
f 59/89/75 60/90/76 66/99/76 65/97/75
f 60/90/76 61/91/77 67/100/77 66/99/76
f 61/91/77 62/92/78 68/101/78 67/100/77
f 62/92/78 57/87/73 63/93/73 68/101/78
f 65/98/79 66/99/79 64/96/79
f 66/99/79 67/100/79 64/96/79
f 67/100/79 68/102/79 64/96/79
f 68/102/79 63/94/79 64/96/79
f 69/103/80 71/106/80 70/104/80
f 69/103/81 72/108/81 71/106/81
f 69/103/82 73/110/82 72/108/82
f 69/103/83 74/111/83 73/110/83
f 69/103/84 70/104/84 74/111/84
f 71/107/85 72/109/85 70/105/86
f 72/109/85 73/110/86 70/105/86
f 73/110/86 74/112/87 70/105/86
f 75/114/86 76/116/86 78/118/86 77/117/86
f 77/117/88 78/118/89 80/120/90 79/119/88
f 79/119/91 80/120/91 82/123/91 81/121/91
f 81/121/92 82/123/92 76/115/92 75/113/92
f 81/122/93 75/114/93 77/117/93 79/119/93
f 76/116/94 82/124/94 83/125/94 84/126/94
f 83/125/91 82/124/91 87/129/91
f 85/127/91 87/129/91 80/120/91
f 82/124/91 80/120/91 87/129/91
f 80/120/90 78/118/89 86/128/95 85/127/95
f 86/128/86 78/118/86 88/130/86
f 84/126/96 88/130/86 76/116/86
f 78/118/86 76/116/86 88/130/86
f 84/126/97 83/125/97 87/129/97 88/130/97
f 85/127/98 86/128/98 88/130/98 87/129/98
f 57/87/99 62/92/99 61/91/99 60/90/99 59/89/99 58/88/99
